<svg xmlns="http://www.w3.org/2000/svg" width="1115.914" height="1758.582" viewBox="0 0 1115.914 1758.582"><g transform="translate(3282.957 177.564)"><g transform="translate(-3282.957 -177.564)"><line x2="144" transform="translate(389.957 255.282)" fill="none" stroke="#3f3d56" stroke-miterlimit="10" stroke-width="2"/><ellipse cx="39.5" cy="12.4" rx="39.5" ry="12.4" transform="matrix(0.357, -0.934, 0.934, 0.357, 181.137, 442.251)" fill="#2f2e41"/><path d="M1153.378,543.014c15.666,116.589-5.666,233.3-114.169,278.753S805.9,816.1,760.456,707.6,822.24,534.175,874.624,428.845C981,214.952,1104.728,180.95,1153.378,543.014Z" transform="translate(-42.043 -33.718)" fill="#f2f2f2"/><ellipse cx="170" cy="23.127" rx="170" ry="23.127" transform="translate(746 771.309)" fill="#3f3d56"/><rect width="24" height="43" transform="translate(811.177 758.708) rotate(-105.453)" fill="#2f2e41"/><ellipse cx="7.5" cy="20" rx="7.5" ry="20" transform="translate(789.76 726.238) rotate(-15.453)" fill="#2f2e41"/><ellipse cx="39.5" cy="12.4" rx="39.5" ry="12.4" transform="translate(905.723 691.824) rotate(-82.281)" fill="#2f2e41"/><circle cx="79" cy="79" r="79" transform="translate(836.585 649.299)" fill="#2f2e41"/><rect width="24" height="43" transform="translate(811.177 744.708) rotate(-105.453)" fill="#2f2e41"/><ellipse cx="7.5" cy="20" rx="7.5" ry="20" transform="translate(789.76 712.238) rotate(-15.453)" fill="#2f2e41"/><circle cx="27" cy="27" r="27" transform="translate(909.329 656.043)" fill="#fff"/><circle cx="9" cy="9" r="9" transform="translate(935.963 662.116)" fill="#3f3d56"/><path d="M1048.858,816.306c29.234-1.463,51.625-28.808,50.01-61.076s-26.623-57.241-55.858-55.778-33.822,24.412-32.207,56.681S1019.623,817.769,1048.858,816.306Z" transform="translate(-42.043 -33.718)" fill="#6c63ff"/><path d="M925.341,728.592a18,18,0,1,1-2.9-35.883c9.909-.8,12.611,7.064,13.413,16.973S935.25,727.79,925.341,728.592Z" transform="translate(-42.043 -33.718)" fill="#fff"/><path d="M49.464,361.025H491.957l68.6,33.422L669.866,447.7l71.468-133.812h202.24" fill="none" stroke="#3f3d56" stroke-miterlimit="10" stroke-width="2"/><circle cx="13.685" cy="13.685" r="13.685" transform="translate(209.126 361.34)" fill="#6c63ff"/><circle cx="13.685" cy="13.685" r="13.685" transform="translate(336.856 347.34)" fill="#6c63ff"/><circle cx="13.685" cy="13.685" r="13.685" transform="translate(546.698 380.793)" fill="#6c63ff"/><circle cx="13.685" cy="13.685" r="13.685" transform="translate(841.694 300.202)" fill="#6c63ff"/><circle cx="13.685" cy="13.685" r="13.685" transform="translate(698.758 353.422)" fill="#6c63ff"/><circle cx="14.756" cy="14.756" r="14.756" transform="translate(412.82 566.685)" fill="none" stroke="#3f3d56" stroke-miterlimit="10" stroke-width="2"/><ellipse cx="170" cy="23.127" rx="170" ry="23.127" transform="translate(0 786.309)" fill="#3f3d56"/><circle cx="79" cy="79" r="79" transform="translate(81.805 617.436)" fill="#2f2e41"/><rect width="24" height="43" transform="translate(124.805 758.436)" fill="#2f2e41"/><rect width="24" height="43" transform="translate(172.805 758.436)" fill="#2f2e41"/><ellipse cx="20" cy="7.5" rx="20" ry="7.5" transform="translate(124.805 794.436)" fill="#2f2e41"/><ellipse cx="20" cy="7.5" rx="20" ry="7.5" transform="translate(172.805 793.436)" fill="#2f2e41"/><circle cx="27" cy="27" r="27" transform="translate(135.805 649.436)" fill="#fff"/><circle cx="9" cy="9" r="9" transform="translate(153.805 667.436)" fill="#3f3d56"/><path d="M126.215,656.687c-6.379-28.568,14.012-57.434,45.544-64.475s62.265,10.41,68.644,38.978-14.519,39.1-46.051,46.145S132.594,685.254,126.215,656.687Z" transform="translate(-42.043 -33.718)" fill="#6c63ff"/><circle cx="79" cy="79" r="79" transform="translate(54.805 390.436)" fill="#2f2e41"/><rect width="24" height="43" transform="translate(97.805 531.436)" fill="#2f2e41"/><rect width="24" height="43" transform="translate(145.805 531.436)" fill="#2f2e41"/><ellipse cx="20" cy="7.5" rx="20" ry="7.5" transform="translate(97.805 567.436)" fill="#2f2e41"/><ellipse cx="20" cy="7.5" rx="20" ry="7.5" transform="translate(145.805 566.436)" fill="#2f2e41"/><circle cx="27" cy="27" r="27" transform="translate(108.805 422.436)" fill="#fff"/><circle cx="9" cy="9" r="9" transform="translate(126.805 440.436)" fill="#3f3d56"/><path d="M99.215,429.687c-6.379-28.568,14.012-57.434,45.544-64.475s62.265,10.41,68.644,38.978-14.519,39.1-46.051,46.145S105.594,458.254,99.215,429.687Z" transform="translate(-42.043 -33.718)" fill="#6c63ff"/><ellipse cx="12.4" cy="39.5" rx="12.4" ry="39.5" transform="translate(3.822 427.057) rotate(-64.626)" fill="#2f2e41"/><path d="M137.043,531.655c0,7.732,19.909,23,42,23s42.8-21.768,42.8-29.5-20.713,1.5-42.8,1.5S137.043,523.923,137.043,531.655Z" transform="translate(-42.043 -33.718)" fill="#fff"/><rect width="126.129" height="64.161" transform="translate(835.474 564.71)" fill="#6c63ff"/><rect width="126.129" height="64.161" transform="translate(825.603 575.129)" fill="none" stroke="#3f3d56" stroke-miterlimit="10" stroke-width="2"/><rect width="36" height="36" transform="translate(226.603 199)" fill="#ff6584"/><rect width="36" height="36" transform="translate(217.603 187)" fill="none" stroke="#3f3d56" stroke-miterlimit="10" stroke-width="2"/><circle cx="79" cy="79" r="79" transform="translate(827.052 110.47)" fill="#2f2e41"/><rect width="24" height="43" transform="translate(960.178 286.374) rotate(169.739)" fill="#2f2e41"/><rect width="24" height="43" transform="translate(912.946 294.924) rotate(169.739)" fill="#2f2e41"/><ellipse cx="20" cy="7.5" rx="20" ry="7.5" transform="matrix(0.763, -0.646, 0.646, 0.763, 876.914, 309.589)" fill="#2f2e41"/><ellipse cx="20" cy="7.5" rx="20" ry="7.5" transform="matrix(0.763, -0.646, 0.646, 0.763, 923.162, 301.216)" fill="#2f2e41"/><circle cx="27" cy="27" r="27" transform="translate(873.521 143.146)" fill="#fff"/><circle cx="9" cy="9" r="9" transform="translate(880.424 151.468)" fill="#3f3d56"/><path d="M1010.415,137.245C1011.6,108,986.4,83.225,954.115,81.914s-59.415,21.335-60.6,50.582,21.252,35.892,53.534,37.2S1009.227,166.492,1010.415,137.245Z" transform="translate(-42.043 -33.718)" fill="#6c63ff"/><ellipse cx="12.4" cy="39.5" rx="12.4" ry="39.5" transform="matrix(0.223, -0.975, 0.975, 0.223, 791.833, 178.34)" fill="#2f2e41"/><ellipse cx="12.4" cy="39.5" rx="12.4" ry="39.5" transform="matrix(0.223, -0.975, 0.975, 0.223, 946.906, 204.129)" fill="#2f2e41"/><path d="M969.793,254.321a18,18,0,0,1-35.424,6.413c-1.771-9.782,5.792-13.244,15.575-15.014S968.022,244.539,969.793,254.321Z" transform="translate(-42.043 -33.718)" fill="#fff"/><line x2="91" y2="70" transform="translate(712.603 99)" fill="none" stroke="#3f3d56" stroke-miterlimit="10" stroke-width="2"/><circle cx="68" cy="68" r="68" transform="translate(601.603)" fill="#ff6584"/><ellipse cx="39.5" cy="12.4" rx="39.5" ry="12.4" transform="translate(876.071 710.596) rotate(-82.281)" fill="#2f2e41"/><circle cx="13.685" cy="13.685" r="13.685" transform="translate(55.126 772.34)" fill="#6c63ff"/><rect width="36" height="36" transform="translate(256.603 770)" fill="#ff6584"/><circle cx="13.685" cy="13.685" r="13.685" transform="translate(243.126 780.34)" fill="#6c63ff"/><circle cx="13.685" cy="13.685" r="13.685" transform="translate(448.272 241.34)" fill="#6c63ff"/><circle cx="6.535" cy="6.535" r="6.535" transform="translate(721.185 672.717)" fill="#ff6584"/><line y1="74.411" transform="translate(759.739 713.313)" fill="#3f3d56" stroke="#3f3d56" stroke-miterlimit="10" stroke-width="2"/><circle cx="10.523" cy="10.523" r="10.523" transform="translate(749.216 702.79)" fill="#3f3d56"/><path d="M801.782,792.893s-1.5-32.332-32.32-28.574" transform="translate(-42.043 -33.718)" fill="#3f3d56"/></g><g transform="translate(-3233 974)"><rect width="405.24" height="2" transform="translate(203.7 186.04)" fill="#ccc"/><rect width="2" height="186.036" transform="translate(405 1.002)" fill="#ccc"/><rect width="341.3" height="2" transform="translate(235.35 93.02)" fill="#ccc"/><path d="M666.54,476.833a41.97,41.97,0,0,1-10.39,27.66c-.6.69-1.23,1.35-1.87,2h-59.5c-.64-.65-1.271-1.31-1.87-2a41.846,41.846,0,0,1-8.59-15.45s.01,0,0-.01a42.017,42.017,0,0,1-1.8-12.2,40.8,40.8,0,0,1,.31-5.09,42.013,42.013,0,0,1,83.39-.11A42.47,42.47,0,0,1,666.54,476.833Z" transform="translate(-196 -146.491)" fill="#2f2e41"/><path d="M375.58,360h-5.14l3.99-2,.12-.06.03.06Z" fill="#2f2e41"/><path d="M410.61,360h-5.14l1-2,.03-.06.12.06Z" fill="#2f2e41"/><circle cx="14.359" cy="14.359" r="14.359" transform="translate(411.229 305.708)" fill="#fff"/><ellipse cx="4.766" cy="4.8" rx="4.766" ry="4.8" transform="translate(413.926 322.896) rotate(-45)" fill="#3f3d56"/><path d="M657.671,431.129C658.3,415.576,644.9,402.4,627.73,401.7s-31.6,11.346-32.229,26.9,11.3,19.087,28.47,19.785S657.039,446.683,657.671,431.129Z" transform="translate(-196 -146.491)" fill="#6c63ff"/><path d="M636.068,493.391a9.572,9.572,0,1,1-18.835,3.429l0-.018c-.942-5.2,3.08-7.043,8.283-7.985S635.126,488.189,636.068,493.391Z" transform="translate(-196 -146.491)" fill="#fff"/><path d="M843,504.491H351a18,18,0,0,0,0,36H843a18,18,0,0,0,0-36Z" transform="translate(-196 -146.491)" fill="#ccc"/><path d="M806,350.491v155h-2v-155q0-8.055-.63-15.96c-.05-.67-.1-1.33-.16-2a200.662,200.662,0,0,0-31.2-91.02c-.43-.67-.86-1.33-1.3-2A201.969,201.969,0,0,0,603,148.5c-.33-.01-.67-.01-1-.01s-.67,0-1,.01q-5.685.015-11.28.36a200.6,200.6,0,0,0-66.6,15.67,203.248,203.248,0,0,0-89.83,74.98c-.44.67-.87,1.33-1.3,2a200.661,200.661,0,0,0-31.2,91.02c-.06.67-.11,1.33-.16,2q-.63,7.9-.63,15.96v155h-2v-155q0-9.12.79-18.03a203.862,203.862,0,0,1,191.85-185.65q5.64-.315,11.36-.32a204.228,204.228,0,0,1,203.21,186.02Q805.99,341.391,806,350.491Z" transform="translate(-196 -146.491)" fill="#3f3d56"/><path d="M545.635,648.565c56.612.967,56.6,85.176,0,86.135C489.023,733.733,489.032,649.524,545.635,648.565Z" transform="translate(-196 -146.491)" fill="#2f2e41"/><rect width="13.084" height="23.442" transform="translate(330.01 578.941)" fill="#2f2e41"/><rect width="13.084" height="23.442" transform="translate(356.177 578.941)" fill="#2f2e41"/><path d="M536.913,745.058c14.138-.1,14.138,8.278,0,8.177C522.775,753.335,522.775,744.957,536.913,745.058Z" transform="translate(-196 -146.491)" fill="#2f2e41"/><path d="M563.08,744.513c14.138-.1,14.138,8.278,0,8.177C548.943,752.79,548.943,744.411,563.08,744.513Z" transform="translate(-196 -146.491)" fill="#2f2e41"/><path d="M546.726,666.01c19.25.086,19.248,29.355,0,29.438C527.476,695.362,527.478,666.094,546.726,666.01Z" transform="translate(-196 -146.491)" fill="#fff"/><path d="M546.726,675.823c6.366-.093,6.366,9.907,0,9.813C540.36,685.729,540.36,675.729,546.726,675.823Z" transform="translate(-196 -146.491)" fill="#3f3d56"/><path d="M503.859,651.581c-8.091-36.891,53.888-50.724,62.251-13.9C569.586,653.255,558.194,659,541,662.837S507.336,667.155,503.859,651.581Z" transform="translate(-196 -146.491)" fill="#ccc"/><path d="M564.409,532.946c10.033-26.274,22.679-21.439,12.629,4.828C567.005,564.047,554.359,559.213,564.409,532.946Z" transform="translate(-196 -146.491)" fill="#2f2e41"/><path d="M488.4,560.983c10.023-55.726,93.143-42.229,85.022,13.8C563.4,630.507,480.284,617.009,488.4,560.983Z" transform="translate(-196 -146.491)" fill="#2f2e41"/><rect width="13.084" height="23.442" transform="translate(315.291 455.191)" fill="#2f2e41"/><rect width="13.084" height="23.442" transform="translate(341.458 455.191)" fill="#2f2e41"/><path d="M522.194,621.307c14.138-.1,14.138,8.278,0,8.177C508.056,629.585,508.056,621.206,522.194,621.307Z" transform="translate(-196 -146.491)" fill="#2f2e41"/><path d="M548.361,620.762c14.138-.1,14.138,8.278,0,8.177C534.224,629.04,534.223,620.661,548.361,620.762Z" transform="translate(-196 -146.491)" fill="#2f2e41"/><path d="M489.139,527.831c-8.091-36.891,53.888-50.724,62.251-13.9,3.477,15.572-7.915,21.316-25.105,25.154S492.617,543.4,489.139,527.831Z" transform="translate(-196 -146.491)" fill="#6c63ff"/><path d="M462.952,538.671c3.044-8.19,43.332,10.918,38.912,18.457C498.821,565.317,458.532,546.209,462.952,538.671Z" transform="translate(-196 -146.491)" fill="#2f2e41"/><ellipse cx="6.594" cy="21.006" rx="6.594" ry="21.006" transform="translate(453.519 334.763) rotate(-40.645)" fill="#2f2e41"/><ellipse cx="21.006" cy="6.594" rx="21.006" ry="6.594" transform="translate(366.284 358.045) rotate(-49.355)" fill="#2f2e41"/><path d="M959,282.493H900a10,10,0,0,1,0-20v2a8,8,0,0,0,0,16h59Z" transform="translate(-196 -146.491)" fill="#e6e6e6"/><path d="M898,335.493H839a10,10,0,0,1,0-20v2a8,8,0,0,0,0,16h59Z" transform="translate(-196 -146.491)" fill="#e6e6e6"/><path d="M975,387.493v-2a8,8,0,0,0,0-16H916v-2h59a10,10,0,0,1,0,20Z" transform="translate(-196 -146.491)" fill="#e6e6e6"/><path d="M994,205.493v-2a8,8,0,0,0,0-16H935v-2h59a10,10,0,0,1,0,20Z" transform="translate(-196 -146.491)" fill="#e6e6e6"/><path d="M902,224.493H843a10,10,0,0,1,0-20v2a8,8,0,0,0,0,16h59Z" transform="translate(-196 -146.491)" fill="#e6e6e6"/><path d="M326,414.493H267a10,10,0,1,1,0-20v2a8,8,0,0,0,0,16h59Z" transform="translate(-196 -146.491)" fill="#e6e6e6"/><path d="M357,448.493v-2a8,8,0,0,0,0-16H298v-2h59a10,10,0,0,1,0,20Z" transform="translate(-196 -146.491)" fill="#e6e6e6"/><path d="M265,467.493H206a10,10,0,1,1,0-20v2a8,8,0,0,0,0,16h59Z" transform="translate(-196 -146.491)" fill="#e6e6e6"/><path d="M330,303.493H271a10,10,0,0,1,0-20v2a8,8,0,0,0,0,16h59Z" transform="translate(-196 -146.491)" fill="#e6e6e6"/><path d="M361,337.493v-2a8,8,0,0,0,0-16H302v-2h59a10,10,0,0,1,0,20Z" transform="translate(-196 -146.491)" fill="#e6e6e6"/><path d="M269,356.493H210a10,10,0,0,1,0-20v2a8,8,0,0,0,0,16h59Z" transform="translate(-196 -146.491)" fill="#e6e6e6"/><path d="M755,611.493H696a10,10,0,0,1,0-20v2a8,8,0,0,0,0,16h59Z" transform="translate(-196 -146.491)" fill="#e6e6e6"/><path d="M821,665.493v-2a8,8,0,0,0,0-16H762v-2h59a10,10,0,0,1,0,20Z" transform="translate(-196 -146.491)" fill="#e6e6e6"/><path d="M701,675.493H642a10,10,0,0,1,0-20v2a8,8,0,0,0,0,16h59Z" transform="translate(-196 -146.491)" fill="#e6e6e6"/><path d="M487,670.493v-2a8,8,0,0,0,0-16H428v-2h59a10,10,0,0,1,0,20Z" transform="translate(-196 -146.491)" fill="#e6e6e6"/><path d="M309,695.493H250a10,10,0,0,1,0-20v2a8,8,0,0,0,0,16h59Z" transform="translate(-196 -146.491)" fill="#e6e6e6"/><path d="M706.886,753.493h-381a1,1,0,1,1,0-2h381a1,1,0,0,1,0,2Z" transform="translate(-196 -146.491)" fill="#3f3d56"/><path d="M382.53,752.723c-.771,1.77-3.35.24-2.59-1.51a100.86,100.86,0,0,0,7.17-25.9,109.443,109.443,0,0,0-3.45-45.66c-.16-.53-.32-1.07-.48-1.6-.38-1.22-.78-2.44-1.2-3.64a103.061,103.061,0,0,0-22.68-37.46c-1.33-1.4.79-3.52,2.12-2.12a103.415,103.415,0,0,1,16.34,22.52,108.084,108.084,0,0,1,5.58,12.08c.63,1.61,1.22,3.24,1.78,4.87a114.24,114.24,0,0,1,5.81,30.06A107.161,107.161,0,0,1,382.53,752.723Z" transform="translate(-196 -146.491)" fill="#3f3d56"/><path d="M405.43,599.893q-5,18.285-9.98,36.57-5.175,18.93-10.33,37.84-.735,2.685-1.46,5.35c-.16-.53-.32-1.07-.48-1.6-.38-1.22-.78-2.44-1.2-3.64.45-1.66.9-3.32,1.36-4.98l1.86-6.81q8.67-31.77,17.34-63.53a1.5,1.5,0,0,1,2.89.8Z" transform="translate(-196 -146.491)" fill="#3f3d56"/><path d="M343.743,604.261c-1.748,3.836-3.513,7.722-4.269,11.869s-.412,8.652,1.831,12.222a20.34,20.34,0,0,0,7.421,6.459c4.187,2.388,9.631,4.075,13.635,1.392,4.044-2.71,4.474-8.833,2.208-13.142s-6.475-7.2-10.582-9.813-7.325-4.681-9.988-8.757Z" transform="translate(-196 -146.491)" fill="#6c63ff"/><path d="M415,565.171c-4.006,1.315-8.058,2.652-11.62,4.907s-6.64,5.562-7.744,9.631a20.339,20.339,0,0,0,.282,9.834c1.083,4.7,3.533,9.843,8.22,10.968,4.734,1.136,9.527-2.7,11.158-7.285s.9-9.64.041-14.432-1.524-8.558-.333-13.279Z" transform="translate(-196 -146.491)" fill="#6c63ff"/><path d="M343.116,651.743c1.113,4.067,2.245,8.181,4.319,11.851s5.222,6.911,9.231,8.217a20.338,20.338,0,0,0,9.836.212c4.745-.846,10.007-3.035,11.366-7.66,1.372-4.671-2.217-9.65-6.716-11.509s-9.583-1.385-14.411-.764-8.624,1.093-13.279-.333Z" transform="translate(-196 -146.491)" fill="#6c63ff"/><path d="M355.116,704.743c1.113,4.067,2.245,8.181,4.319,11.851s5.222,6.911,9.231,8.217a20.338,20.338,0,0,0,9.836.211c4.745-.846,10.007-3.035,11.366-7.66,1.372-4.671-2.217-9.65-6.716-11.509s-9.583-1.385-14.411-.764-8.624,1.093-13.279-.333Z" transform="translate(-196 -146.491)" fill="#6c63ff"/><path d="M420.884,669.743c-1.113,4.067-2.245,8.181-4.319,11.851s-5.222,6.911-9.231,8.217a20.338,20.338,0,0,1-9.836.212c-4.745-.846-10.007-3.035-11.366-7.66-1.372-4.671,2.217-9.65,6.716-11.509s9.583-1.385,14.411-.764,8.624,1.093,13.279-.333Z" transform="translate(-196 -146.491)" fill="#6c63ff"/><path d="M432.884,615.743c-1.113,4.067-2.245,8.181-4.319,11.851s-5.222,6.911-9.231,8.217a20.34,20.34,0,0,1-9.836.211c-4.745-.846-10.007-3.035-11.366-7.66-1.372-4.671,2.217-9.65,6.716-11.509s9.583-1.385,14.411-.764,8.624,1.093,13.279-.333Z" transform="translate(-196 -146.491)" fill="#6c63ff"/></g></g></svg>