<svg xmlns="http://www.w3.org/2000/svg" width="745.45" height="398.965" viewBox="0 0 745.45 398.965"><g transform="translate(-97 -1308.628)"><path d="M295.965,16.58C371.313-114.748,563.61,23.273,601,158.5S571.666,365.84,420.4,335.861s-135.57-57.176-239.135-25.536S0,246.037,0,158.5,220.616,147.909,295.965,16.58Z" transform="translate(97 1365)" fill="#66d3e6" opacity="0.508"/><path d="M295.965,16.58C371.313-114.748,563.61,23.273,601,158.5S571.666,365.84,420.4,335.861s-135.57-57.176-239.135-25.536S0,246.037,0,158.5,220.616,147.909,295.965,16.58Z" transform="translate(106 1345)" fill="#66d3e6" opacity="0.226"/><g transform="translate(414.603 1322)"><circle cx="79" cy="79" r="79" transform="translate(44.398 110.47)" fill="#3c3f59"/><rect width="24" height="43" transform="translate(76.932 244.061) rotate(10.261)" fill="#3c3f59"/><rect width="24" height="43" transform="translate(124.164 252.612) rotate(10.261)" fill="#3c3f59"/><ellipse cx="20" cy="7.5" rx="20" ry="7.5" transform="translate(142.842 321.035) rotate(-139.739)" fill="#3c3f59"/><ellipse cx="20" cy="7.5" rx="20" ry="7.5" transform="translate(96.594 312.663) rotate(-139.739)" fill="#3c3f59"/><circle cx="27" cy="27" r="27" transform="translate(101.929 143.146)" fill="#fff"/><circle cx="9" cy="9" r="9" transform="translate(131.026 151.468)" fill="#3f3d56"/><path d="M893.507,137.245c-1.188-29.247,24.019-54.019,56.3-55.331s59.415,21.335,60.6,50.582-21.252,35.892-53.534,37.2S894.7,166.492,893.507,137.245Z" transform="translate(-832.429 -33.718)" fill="#f2d12a"/><ellipse cx="12.4" cy="39.5" rx="12.4" ry="39.5" transform="translate(160.615 195.991) rotate(-102.91)" fill="#3c3f59"/><ellipse cx="12.4" cy="39.5" rx="12.4" ry="39.5" transform="translate(5.541 221.779) rotate(-102.91)" fill="#3c3f59"/><path d="M934.4,254.321a18,18,0,0,0,35.424,6.413c1.771-9.782-5.792-13.244-15.575-15.014S936.172,244.539,934.4,254.321Z" transform="translate(-832.7 -33.718)" fill="#fff"/><line x1="91" y2="70" transform="translate(225.847 99)" fill="none" stroke="#3f3d56" stroke-miterlimit="10" stroke-width="2"/><circle cx="68" cy="68" r="68" transform="translate(291.847)" fill="#f2d12a"/></g></g></svg>