<svg xmlns="http://www.w3.org/2000/svg" xmlns:xlink="http://www.w3.org/1999/xlink" width="782.42" height="129.722" viewBox="0 0 782.42 129.722"><defs><clipPath id="a"><path d="M302.928,752.365a13.055,13.055,0,1,0-21.407,14.058,12.627,12.627,0,0,0,2.408,1.943,12.987,12.987,0,0,0,14.985-.8,10.006,10.006,0,0,0,.851-.726,5.445,5.445,0,0,0,.416-.416,13,13,0,0,0,3.722-9.108A12.979,12.979,0,0,0,302.928,752.365Zm-6.275,7.359a6.275,6.275,0,1,1,.484-2.408A6.274,6.274,0,0,1,296.653,759.724Z" transform="translate(-277.799 -744.263)" fill="#fff"/></clipPath><clipPath id="b"><path d="M347.948,744.263a13.1,13.1,0,0,0-12.066,8.063,13.038,13.038,0,0,0,2.736,14.1,11.952,11.952,0,0,0,1.276,1.151,13.222,13.222,0,0,0,3.036,1.789,13.017,13.017,0,0,0,11.844-.929c.039-.019.077-.048.116-.067a13.124,13.124,0,0,0,4.718-5.192,13.046,13.046,0,0,0-11.659-18.912Zm5.134,16.669a6.278,6.278,0,1,1,1.15-3.617A6.216,6.216,0,0,1,353.081,760.932Z" transform="translate(-334.895 -744.263)" fill="#fff"/></clipPath><clipPath id="c"><path d="M319.725,727.667a14.035,14.035,0,0,0-14.02,14.018,14.021,14.021,0,0,0,20.072,12.647,14.134,14.134,0,0,0,6-5.511,13.865,13.865,0,0,0,1.963-7.137A14.04,14.04,0,0,0,319.725,727.667Zm4.6,19.617a7.221,7.221,0,0,1-9.195,0h-.01a7.252,7.252,0,1,1,9.2,0Z" transform="translate(-305.705 -727.667)" fill="#fff"/></clipPath><clipPath id="d"><path d="M402.467,797.329a27.73,27.73,0,0,1-14.649,25.35,27.425,27.425,0,0,1-9.388,3.026,19.665,19.665,0,0,1-6.071-.183l-1.142-.213-.145-.028-.2-.039-.359-.069c-1.4-.367-2.775-.832-4.137-1.325a2.343,2.343,0,0,1-.243-.1,50.542,50.542,0,0,1-9.311-4.573,50.028,50.028,0,0,1-5.8-4.226l-.106-.086-2.891-2.456-25.467-21.58-6.767-5.734-1.142-.976a.564.564,0,0,0-.1-.077,45.075,45.075,0,0,0-5.53-3.945q-1.464-.885-3.016-1.654c-.107-.058-.213-.116-.319-.164l-3.433-.56-1.575-.252c-.164-.019-.329-.028-.493-.039a1.693,1.693,0,0,0-.213-.009,4.57,4.57,0,0,0-.638-.039,18.886,18.886,0,0,0-2.1,0c-.291.009-.58.028-.87.058-.145.009-.3.028-.444.048-.319.028-.629.078-.948.125h-.01c-.289.049-.58.107-.86.166-.213.048-.425.106-.629.154-.5.136-1.006.291-1.5.454-.088.039-.174.058-.262.1q-.711.248-1.392.551l-.261.116c-.463.213-.918.435-1.363.677-.028.019-.058.03-.086.049-.155.086-.31.173-.465.27s-.289.174-.435.271H287.7c-.116.067-.232.145-.349.222-.067.039-.145.088-.212.125-.407.282-.8.562-1.2.862-.078.067-.155.125-.232.183-.386.31-.773.638-1.14.967l-.116.116c-.349.328-.687.667-1.015,1.015-.049.049-.1.1-.146.155-.328.358-.647.735-.957,1.122-.067.076-.125.153-.183.231-.31.4-.6.793-.87,1.208l-.116.174c-.261.407-.513.812-.745,1.238l-.086.145c-.241.435-.465.889-.677,1.344-.039.086-.077.183-.116.27-.2.454-.387.919-.56,1.393-.03.077-.049.153-.078.241-.165.463-.31.948-.445,1.431a.381.381,0,0,0-.019.1c-.136.5-.241,1.015-.338,1.527-.019.1-.028.194-.048.291q-.132.753-.2,1.536a2.648,2.648,0,0,1-.019.28c-.037.542-.067,1.083-.067,1.635A20.973,20.973,0,0,0,298.7,819.179H315.8a21,21,0,0,0,1.228,6.767c.2.562.426,1.113.677,1.654.077.164.155.319.232.483a20.252,20.252,0,0,0,1.663,2.794c.125.194.271.387.416.571.319.435.668.862,1.025,1.267.28.319.571.619.86.909.183.194.368.367.551.541a3.185,3.185,0,0,0,.28.252c.185.164.368.329.56.493a20.7,20.7,0,0,0,1.934,1.441c.271.183.551.358.823.511.3.185.6.359.908.513.01.011.019.011.03.019a.092.092,0,0,1,.048.03c.31.155.639.319.958.463l.009.01c.329.145.657.289.986.416.368.154.745.289,1.131.416.164.058.329.106.493.154s.329.1.493.146c.416.116.832.222,1.256.309.31.068.62.136.939.185a.379.379,0,0,1,.106.02c.329.048.657.1.986.134h.028c.28.03.562.058.842.069.183.019.377.028.571.039.3.009.6.019.909.019s.6-.01.888-.019c.2-.011.407-.019.6-.039s.4-.03.589-.049a2.155,2.155,0,0,0,.262-.02c.328-.037.657-.086.985-.134.069-.01.136-.03.213-.039.252-.039.493-.088.745-.146a.233.233,0,0,0,.077-.009c.153-.039.308-.068.463-.116a5.178,5.178,0,0,0,.56-.136,5.491,5.491,0,0,0,.571-.164c.2-.049.407-.116.6-.183s.368-.116.542-.185c.483-.173.948-.358,1.411-.569.232-.1.455-.2.677-.32s.446-.222.668-.338c.28-.145.56-.3.832-.474.28-.154.56-.328.831-.511a.5.5,0,0,1,.1-.068c.25-.164.493-.338.744-.522.019-.019.049-.03.069-.049.125-.1.241-.183.367-.28.213-.155.416-.319.618-.493.262-.222.513-.444.764-.676q.407-.362.784-.754c.183-.183.358-.377.53-.571a1.186,1.186,0,0,0,.116-.116.843.843,0,0,0,.1-.106c.338-.386.668-.784.967-1.2a5.425,5.425,0,0,0,.338-.455l.058-.088c.067-.086.136-.174.194-.261.028-.039.058-.078.087-.125.116-.174.232-.349.349-.532.145-.233.289-.465.425-.706s.271-.483.407-.735c.25-.493.493-1,.715-1.508a3.954,3.954,0,0,0,.174-.407q.159-.375.289-.754a4.731,4.731,0,0,1,4.41,2.988h.009a4.629,4.629,0,0,1,.338,1.741,1.766,1.766,0,0,1-.009.222,4.5,4.5,0,0,1-.484,1.818c-.048.1-.106.2-.164.3a27.685,27.685,0,0,1-47.791-.3,27.317,27.317,0,0,1-2.815-6.768h-7.3l-.377-1.034v1.034H298.7a27.718,27.718,0,0,1-1.237-55.41,19.2,19.2,0,0,1,2.465.078l2.32.271.223.028.25.03a24.149,24.149,0,0,1,9.5,3.191c.077.039.144.078.222.125a52.674,52.674,0,0,1,4.438,3.016c.726.551,1.441,1.1,2.137,1.682l3.529,2.988,2.466,2.1,25.892,21.948,4.477,3.8q1.117.941,2.292,1.8c.377.28.763.55,1.159.821a43.916,43.916,0,0,0,5.608,3.277c1.258.62,2.553,1.171,3.858,1.673.957.358,1.934.687,2.91.987.329.1.668.192,1.006.28.009,0,.028.009.039.009l.5.058.657.058a21.793,21.793,0,0,0,7.1-.657v-.009a20.244,20.244,0,0,0,10.692-6.9c.03-.028.049-.058.069-.077.3-.386.59-.782.87-1.2l.009-.01.03-.058c.261-.377.493-.763.724-1.151.049-.1.1-.183.146-.271.231-.406.444-.821.647-1.247.039-.067.068-.145.107-.222q.262-.579.493-1.189a1.967,1.967,0,0,0,.086-.213c.174-.444.319-.9.455-1.353.028-.1.058-.2.086-.3.127-.463.252-.928.349-1.392,0-.019,0-.03.009-.039.1-.484.174-.977.232-1.46.019-.116.03-.222.049-.329.058-.483.1-.976.115-1.469a1.59,1.59,0,0,0,.01-.222c.009-.222.019-.455.019-.687v-.067c0-.2-.01-.416-.019-.618a1.265,1.265,0,0,0,0-.185v-.086c-.03-.648-.086-1.286-.174-1.924a.06.06,0,0,0-.009-.039.279.279,0,0,0-.01-.1,15.822,15.822,0,0,0-.319-1.672,1.235,1.235,0,0,0-.039-.194V793.4c0-.009,0-.009-.009-.019-.069-.289-.146-.569-.224-.86-.019-.048-.028-.1-.048-.155-.058-.213-.125-.416-.2-.629a.535.535,0,0,0-.039-.106.255.255,0,0,0-.019-.077c-.01-.039-.03-.078-.039-.116a3.364,3.364,0,0,0-.127-.338,3.02,3.02,0,0,0-.1-.289l-.116-.29c-.107-.3-.232-.6-.368-.89s-.27-.58-.425-.87a20.241,20.241,0,0,0-2-3.2c-.127-.174-.261-.349-.4-.512-.107-.127-.2-.252-.31-.368-.174-.213-.358-.425-.551-.629s-.377-.4-.56-.589a22.346,22.346,0,0,0-1.963-1.741c-.164-.127-.329-.252-.5-.377-.444-.329-.908-.638-1.381-.939-.387-.241-.784-.472-1.2-.685-.2-.108-.405-.213-.618-.319-.416-.2-.832-.4-1.267-.571-.222-.088-.435-.174-.657-.252s-.435-.164-.657-.232-.446-.154-.678-.212c-.444-.136-.908-.261-1.372-.358s-.928-.194-1.4-.262c-.241-.037-.474-.076-.715-.1a17.988,17.988,0,0,0-2.185-.135,1.988,1.988,0,0,0-.252-.011H357.682a20.935,20.935,0,0,0-1.18-6.767,20.634,20.634,0,0,0-3.945-6.769,20.9,20.9,0,0,0-9.147-6.14,20.92,20.92,0,0,0-13.342,0,21.093,21.093,0,0,0-12.454,11.3c-.067.145-.125.289-.194.444-.155.377-.308.764-.444,1.161a4.672,4.672,0,0,1-1.344-.194,4.777,4.777,0,0,1-3.384-3.878,4.109,4.109,0,0,1-.058-.687,4.222,4.222,0,0,1,.194-1.285,4.355,4.355,0,0,1,.28-.726,2.823,2.823,0,0,1,.174-.319,27.976,27.976,0,0,1,7.928-8.606v-.009c.368-.252.745-.5,1.122-.745a27.662,27.662,0,0,1,29.692,0c.377.233.744.474,1.1.735a27.73,27.73,0,0,1,8.132,8.944,27.114,27.114,0,0,1,2.755,6.769h10.683a28.554,28.554,0,0,1,18.621,6.961h.01a27.472,27.472,0,0,1,8.837,14.358v.009h.01a25.351,25.351,0,0,1,.483,2.572A26.53,26.53,0,0,1,402.467,797.329Z" transform="translate(-270.993 -749.739)" fill="#fff"/></clipPath></defs><g transform="translate(-6693.074 -590.456)"><g transform="translate(6693.074 590.456)"><g transform="translate(10.142 24.731)"><path d="M302.928,752.365a13.055,13.055,0,1,0-21.407,14.058,12.627,12.627,0,0,0,2.408,1.943,12.987,12.987,0,0,0,14.985-.8,10.006,10.006,0,0,0,.851-.726,5.445,5.445,0,0,0,.416-.416,13,13,0,0,0,3.722-9.108A12.979,12.979,0,0,0,302.928,752.365Zm-6.275,7.359a6.275,6.275,0,1,1,.484-2.408A6.274,6.274,0,0,1,296.653,759.724Z" transform="translate(-277.799 -744.263)" fill="#fff"/><g clip-path="url(#a)"><rect width="379.156" height="213.275" transform="translate(-133.976 -66.508)" fill="#fff"/></g></g><g transform="translate(95.227 24.731)"><path d="M347.948,744.263a13.1,13.1,0,0,0-12.066,8.063,13.038,13.038,0,0,0,2.736,14.1,11.952,11.952,0,0,0,1.276,1.151,13.222,13.222,0,0,0,3.036,1.789,13.017,13.017,0,0,0,11.844-.929c.039-.019.077-.048.116-.067a13.124,13.124,0,0,0,4.718-5.192,13.046,13.046,0,0,0-11.659-18.912Zm5.134,16.669a6.278,6.278,0,1,1,1.15-3.617A6.216,6.216,0,0,1,353.081,760.932Z" transform="translate(-334.895 -744.263)" fill="#fff"/><g clip-path="url(#b)"><rect width="379.156" height="213.275" transform="translate(-219.06 -66.508)" fill="#fff"/></g></g><g transform="translate(51.728 0)"><path d="M319.725,727.667a14.035,14.035,0,0,0-14.02,14.018,14.021,14.021,0,0,0,20.072,12.647,14.134,14.134,0,0,0,6-5.511,13.865,13.865,0,0,0,1.963-7.137A14.04,14.04,0,0,0,319.725,727.667Zm4.6,19.617a7.221,7.221,0,0,1-9.195,0h-.01a7.252,7.252,0,1,1,9.2,0Z" transform="translate(-305.705 -727.667)" fill="#fff"/><g clip-path="url(#c)"><rect width="379.156" height="213.275" transform="translate(-175.561 -41.777)" fill="#fff"/></g></g><g transform="translate(0 32.892)"><path d="M402.467,797.329a27.73,27.73,0,0,1-14.649,25.35,27.425,27.425,0,0,1-9.388,3.026,19.665,19.665,0,0,1-6.071-.183l-1.142-.213-.145-.028-.2-.039-.359-.069c-1.4-.367-2.775-.832-4.137-1.325a2.343,2.343,0,0,1-.243-.1,50.542,50.542,0,0,1-9.311-4.573,50.028,50.028,0,0,1-5.8-4.226l-.106-.086-2.891-2.456-25.467-21.58-6.767-5.734-1.142-.976a.564.564,0,0,0-.1-.077,45.075,45.075,0,0,0-5.53-3.945q-1.464-.885-3.016-1.654c-.107-.058-.213-.116-.319-.164l-3.433-.56-1.575-.252c-.164-.019-.329-.028-.493-.039a1.693,1.693,0,0,0-.213-.009,4.57,4.57,0,0,0-.638-.039,18.886,18.886,0,0,0-2.1,0c-.291.009-.58.028-.87.058-.145.009-.3.028-.444.048-.319.028-.629.078-.948.125h-.01c-.289.049-.58.107-.86.166-.213.048-.425.106-.629.154-.5.136-1.006.291-1.5.454-.088.039-.174.058-.262.1q-.711.248-1.392.551l-.261.116c-.463.213-.918.435-1.363.677-.028.019-.058.03-.086.049-.155.086-.31.173-.465.27s-.289.174-.435.271H287.7c-.116.067-.232.145-.349.222-.067.039-.145.088-.212.125-.407.282-.8.562-1.2.862-.078.067-.155.125-.232.183-.386.31-.773.638-1.14.967l-.116.116c-.349.328-.687.667-1.015,1.015-.049.049-.1.1-.146.155-.328.358-.647.735-.957,1.122-.067.076-.125.153-.183.231-.31.4-.6.793-.87,1.208l-.116.174c-.261.407-.513.812-.745,1.238l-.086.145c-.241.435-.465.889-.677,1.344-.039.086-.077.183-.116.27-.2.454-.387.919-.56,1.393-.03.077-.049.153-.078.241-.165.463-.31.948-.445,1.431a.381.381,0,0,0-.019.1c-.136.5-.241,1.015-.338,1.527-.019.1-.028.194-.048.291q-.132.753-.2,1.536a2.648,2.648,0,0,1-.019.28c-.037.542-.067,1.083-.067,1.635A20.973,20.973,0,0,0,298.7,819.179H315.8a21,21,0,0,0,1.228,6.767c.2.562.426,1.113.677,1.654.077.164.155.319.232.483a20.252,20.252,0,0,0,1.663,2.794c.125.194.271.387.416.571.319.435.668.862,1.025,1.267.28.319.571.619.86.909.183.194.368.367.551.541a3.185,3.185,0,0,0,.28.252c.185.164.368.329.56.493a20.7,20.7,0,0,0,1.934,1.441c.271.183.551.358.823.511.3.185.6.359.908.513.01.011.019.011.03.019a.092.092,0,0,1,.048.03c.31.155.639.319.958.463l.009.01c.329.145.657.289.986.416.368.154.745.289,1.131.416.164.058.329.106.493.154s.329.1.493.146c.416.116.832.222,1.256.309.31.068.62.136.939.185a.379.379,0,0,1,.106.02c.329.048.657.1.986.134h.028c.28.03.562.058.842.069.183.019.377.028.571.039.3.009.6.019.909.019s.6-.01.888-.019c.2-.011.407-.019.6-.039s.4-.03.589-.049a2.155,2.155,0,0,0,.262-.02c.328-.037.657-.086.985-.134.069-.01.136-.03.213-.039.252-.039.493-.088.745-.146a.233.233,0,0,0,.077-.009c.153-.039.308-.068.463-.116a5.178,5.178,0,0,0,.56-.136,5.491,5.491,0,0,0,.571-.164c.2-.049.407-.116.6-.183s.368-.116.542-.185c.483-.173.948-.358,1.411-.569.232-.1.455-.2.677-.32s.446-.222.668-.338c.28-.145.56-.3.832-.474.28-.154.56-.328.831-.511a.5.5,0,0,1,.1-.068c.25-.164.493-.338.744-.522.019-.019.049-.03.069-.049.125-.1.241-.183.367-.28.213-.155.416-.319.618-.493.262-.222.513-.444.764-.676q.407-.362.784-.754c.183-.183.358-.377.53-.571a1.186,1.186,0,0,0,.116-.116.843.843,0,0,0,.1-.106c.338-.386.668-.784.967-1.2a5.425,5.425,0,0,0,.338-.455l.058-.088c.067-.086.136-.174.194-.261.028-.039.058-.078.087-.125.116-.174.232-.349.349-.532.145-.233.289-.465.425-.706s.271-.483.407-.735c.25-.493.493-1,.715-1.508a3.954,3.954,0,0,0,.174-.407q.159-.375.289-.754a4.731,4.731,0,0,1,4.41,2.988h.009a4.629,4.629,0,0,1,.338,1.741,1.766,1.766,0,0,1-.009.222,4.5,4.5,0,0,1-.484,1.818c-.048.1-.106.2-.164.3a27.685,27.685,0,0,1-47.791-.3,27.317,27.317,0,0,1-2.815-6.768h-7.3l-.377-1.034v1.034H298.7a27.718,27.718,0,0,1-1.237-55.41,19.2,19.2,0,0,1,2.465.078l2.32.271.223.028.25.03a24.149,24.149,0,0,1,9.5,3.191c.077.039.144.078.222.125a52.674,52.674,0,0,1,4.438,3.016c.726.551,1.441,1.1,2.137,1.682l3.529,2.988,2.466,2.1,25.892,21.948,4.477,3.8q1.117.941,2.292,1.8c.377.28.763.55,1.159.821a43.916,43.916,0,0,0,5.608,3.277c1.258.62,2.553,1.171,3.858,1.673.957.358,1.934.687,2.91.987.329.1.668.192,1.006.28.009,0,.028.009.039.009l.5.058.657.058a21.793,21.793,0,0,0,7.1-.657v-.009a20.244,20.244,0,0,0,10.692-6.9c.03-.028.049-.058.069-.077.3-.386.59-.782.87-1.2l.009-.01.03-.058c.261-.377.493-.763.724-1.151.049-.1.1-.183.146-.271.231-.406.444-.821.647-1.247.039-.067.068-.145.107-.222q.262-.579.493-1.189a1.967,1.967,0,0,0,.086-.213c.174-.444.319-.9.455-1.353.028-.1.058-.2.086-.3.127-.463.252-.928.349-1.392,0-.019,0-.03.009-.039.1-.484.174-.977.232-1.46.019-.116.03-.222.049-.329.058-.483.1-.976.115-1.469a1.59,1.59,0,0,0,.01-.222c.009-.222.019-.455.019-.687v-.067c0-.2-.01-.416-.019-.618a1.265,1.265,0,0,0,0-.185v-.086c-.03-.648-.086-1.286-.174-1.924a.06.06,0,0,0-.009-.039.279.279,0,0,0-.01-.1,15.822,15.822,0,0,0-.319-1.672,1.235,1.235,0,0,0-.039-.194V793.4c0-.009,0-.009-.009-.019-.069-.289-.146-.569-.224-.86-.019-.048-.028-.1-.048-.155-.058-.213-.125-.416-.2-.629a.535.535,0,0,0-.039-.106.255.255,0,0,0-.019-.077c-.01-.039-.03-.078-.039-.116a3.364,3.364,0,0,0-.127-.338,3.02,3.02,0,0,0-.1-.289l-.116-.29c-.107-.3-.232-.6-.368-.89s-.27-.58-.425-.87a20.241,20.241,0,0,0-2-3.2c-.127-.174-.261-.349-.4-.512-.107-.127-.2-.252-.31-.368-.174-.213-.358-.425-.551-.629s-.377-.4-.56-.589a22.346,22.346,0,0,0-1.963-1.741c-.164-.127-.329-.252-.5-.377-.444-.329-.908-.638-1.381-.939-.387-.241-.784-.472-1.2-.685-.2-.108-.405-.213-.618-.319-.416-.2-.832-.4-1.267-.571-.222-.088-.435-.174-.657-.252s-.435-.164-.657-.232-.446-.154-.678-.212c-.444-.136-.908-.261-1.372-.358s-.928-.194-1.4-.262c-.241-.037-.474-.076-.715-.1a17.988,17.988,0,0,0-2.185-.135,1.988,1.988,0,0,0-.252-.011H357.682a20.935,20.935,0,0,0-1.18-6.767,20.634,20.634,0,0,0-3.945-6.769,20.9,20.9,0,0,0-9.147-6.14,20.92,20.92,0,0,0-13.342,0,21.093,21.093,0,0,0-12.454,11.3c-.067.145-.125.289-.194.444-.155.377-.308.764-.444,1.161a4.672,4.672,0,0,1-1.344-.194,4.777,4.777,0,0,1-3.384-3.878,4.109,4.109,0,0,1-.058-.687,4.222,4.222,0,0,1,.194-1.285,4.355,4.355,0,0,1,.28-.726,2.823,2.823,0,0,1,.174-.319,27.976,27.976,0,0,1,7.928-8.606v-.009c.368-.252.745-.5,1.122-.745a27.662,27.662,0,0,1,29.692,0c.377.233.744.474,1.1.735a27.73,27.73,0,0,1,8.132,8.944,27.114,27.114,0,0,1,2.755,6.769h10.683a28.554,28.554,0,0,1,18.621,6.961h.01a27.472,27.472,0,0,1,8.837,14.358v.009h.01a25.351,25.351,0,0,1,.483,2.572A26.53,26.53,0,0,1,402.467,797.329Z" transform="translate(-270.993 -749.739)" fill="#fff"/><g clip-path="url(#d)"><rect width="379.156" height="213.275" transform="translate(-123.833 -74.668)" fill="#fff"/></g></g></g><g transform="translate(6834.339 614.181)"><path d="M462.228,768.177a5.3,5.3,0,0,1,.541-4.193c1.711-1.885,3.471-2.666,5.181-2.414,1.043.161,2.842,1.1,5.471,2.781a17.752,17.752,0,0,0,6.728,3.046c7.084,1.056,12.111-1.988,13.6-7.4l.009-.012c.039-.205,1.305-6.02-.58-8.284l-7.733-.068a5.224,5.224,0,0,1-.5,4.217c-1.2,1.964-2.65,2.791-4.369,2.527-1.045-.149-3.064-1.127-6.061-2.873a22.722,22.722,0,0,0-7.482-3.079c-6.794-1.022-11.6,2.057-13.154,7.469,0,0-1.316,5.986.618,8.284Z" transform="translate(-322.823 -739.645)" fill="#fff"/><path d="M487.866,772.11c-3.925-4.307-9.187-6.508-15.695-6.508a21.367,21.367,0,0,0-16.269,6.8q-6.315,6.889-6.314,17.8c0,7.272,2.1,13.2,6.314,17.7a21.114,21.114,0,0,0,16.269,6.891c6.411,0,11.674-2.2,15.695-6.6l.955,5.645h13.014V766.56H488.822Zm-4.021,26.7a10.742,10.742,0,0,1-8.133,3.35,10.392,10.392,0,0,1-8.038-3.35,13.324,13.324,0,0,1,0-17.225,10.391,10.391,0,0,1,8.038-3.349,10.667,10.667,0,0,1,8.133,3.253A12.178,12.178,0,0,1,487,790.2,11.94,11.94,0,0,1,483.846,798.808Z" transform="translate(-324.71 -732.797)" fill="#fff"/><path d="M598.263,743.588v56.145l-.012-.012a23.416,23.416,0,0,1-4.629,13.972,28,28,0,0,1-19.8,11.1c-9.44.989-17.514-1.8-24.023-8.195-.268-.256-.525-.514-.77-.782-1.293-1.307-2.527-2.663-3.846-4.043,2.381-2.527,4.739-5.019,7.12-7.536.684-.72,1.368-1.441,2.052-2.173,1.881,1.965,3.653,3.872,5.46,5.752a15.189,15.189,0,0,0,16.61,3.334c5.521-2.222,8.953-7.84,8.036-13.19a13.282,13.282,0,0,0-12.129-10.895,14.718,14.718,0,0,0-12.75,4.629c-1.587,1.674-3.164,3.359-4.751,5.044-4.947,5.277-9.893,10.566-14.926,15.78-.012,0-.012.013-.012.013.012-.025.024-.11.061-.232l-3.834,3.994-1.612,1.685c-7.23,6.57-16.257,8.77-26.333,6.339-6.594-1.577-11.65-4.678-15.193-9.124a27.142,27.142,0,0,1-4.948-9.979c-.305-1.124-.452-2.271-.671-3.408v-4.176c.379-1.673.61-3.4,1.136-5.032a24.489,24.489,0,0,1,4.483-8.22,29.655,29.655,0,0,1,43.1-1.636c.83.83,1.636,1.685,2.455,2.553.684.708,1.356,1.441,2.064,2.174-1.611,1.7-3.211,3.394-4.824,5.1q-2.144,2.273-4.323,4.581c-.306-.294-.574-.538-.818-.794-1.661-1.746-3.249-3.566-5-5.24a14.452,14.452,0,0,0-14.057-3.712c-5.3,1.246-8.683,4.469-9.99,9.367-2.223,8.3,5.423,16.28,14.717,15.462a14.952,14.952,0,0,0,9.99-4.788c2.235-2.369,4.457-4.75,6.693-7.132.135-.148.27-.305.416-.453l.074-.073,18.307-18.943h.024c.221-.183.44-.367.66-.537,7.059-5.728,15.669-7.451,25.184-5.131,1.112.27,2.161.6,3.188.942V743.588Z" transform="translate(-306.193 -743.588)" fill="#fff"/><path d="M591.331,802.858c-6.794,0-11.386-3.255-12.248-8.133H613.82c1.435-8.709-.1-15.79-4.594-21.149s-11.2-8.038-20-8.038c-7.558,0-13.683,2.3-18.373,6.794-4.688,4.594-7.08,10.622-7.08,17.991,0,7.56,2.392,13.588,7.177,17.99,4.785,4.5,11.291,6.7,19.617,6.7q12.918,0,21.243-7.751l-7.847-8.421A19.58,19.58,0,0,1,591.331,802.858ZM589.7,777.4c6.125,0,9.953,3.253,10.336,8.707H579.179C579.657,780.657,583.676,777.4,589.7,777.4Z" transform="translate(-268.737 -732.828)" fill="#fff"/><path d="M620.161,784.261c-4.307-.478-6.508-1.531-6.508-3.35,0-2.3,2.393-3.444,7.274-3.444a25.551,25.551,0,0,1,12.727,3.063l5.837-10.048c-5.166-3.348-11.579-5.071-19.234-5.071-13.014,0-21.243,5.932-21.243,15.406,0,8.709,7.655,14.354,19.617,15.024q7.464.429,7.463,3.731c0,2.2-2.1,3.35-6.22,3.35a32.051,32.051,0,0,1-17.033-4.4l-5.74,10.334a37.978,37.978,0,0,0,21.816,6.316c13.78,0,22.009-5.932,22.009-15.6a16.36,16.36,0,0,0-.1-1.772,26.424,26.424,0,0,1-.589-2.778C638.192,788.748,631.522,785.122,620.161,784.261Z" transform="translate(-252.401 -732.891)" fill="#fff"/><path d="M651.736,765.538c-7.943,0-14.161,2.3-18.851,6.794s-7.082,10.527-7.082,17.9a30.455,30.455,0,0,0,.364,4.731,26.432,26.432,0,0,0,.589,2.778,22.23,22.23,0,0,0,6.129,10.385c4.69,4.5,10.908,6.794,18.851,6.794s14.258-2.3,18.948-6.794,7.08-10.527,7.08-17.894-2.391-13.4-7.08-17.9S659.679,765.538,651.736,765.538Zm0,36.65c-6.506,0-11.005-4.976-11.005-11.96s4.5-11.962,11.005-11.962c6.6,0,11.1,4.976,11.1,11.962S658.34,802.188,651.736,802.188Z" transform="translate(-238.33 -732.828)" fill="#fff"/><path d="M691.784,765.538q-9.616,0-15.214,6.6l-.958-5.549H662.6v47.271h15.024V788.983c0-6.412,3.924-10.717,9.761-10.717,5.359,0,8.612,3.636,8.612,9.761v25.836H711.02v-26.7C711.02,773.671,703.556,765.538,691.784,765.538Z" transform="translate(-220.293 -732.828)" fill="#fff"/><path d="M727.9,771.676c-6.029,0-10.813,2.106-14.449,6.22v-24.88H698.431V820h15.024V795.122c0-6.412,4.019-10.718,9.856-10.718,5.359,0,8.516,3.636,8.516,9.761V820H746.85V793.3C746.85,780,739.483,771.676,727.9,771.676Z" transform="translate(-202.728 -738.966)" fill="#fff"/><path d="M777.344,772.332c-4.69-4.5-11.005-6.794-18.948-6.794s-14.161,2.3-18.851,6.794-7.08,10.527-7.08,17.9,2.392,13.4,7.08,17.894,10.91,6.794,18.851,6.794,14.258-2.3,18.948-6.794,7.081-10.527,7.081-17.894S782.034,776.831,777.344,772.332ZM758.4,802.188c-6.506,0-11-4.976-11-11.96s4.5-11.962,11-11.962c6.6,0,11.1,4.976,11.1,11.962S765,802.188,758.4,802.188Z" transform="translate(-186.045 -732.828)" fill="#fff"/><path d="M789.689,784.261c-4.307-.478-6.506-1.531-6.506-3.35,0-2.3,2.392-3.444,7.272-3.444a25.55,25.55,0,0,1,12.726,3.063l5.839-10.048c-5.168-3.348-11.58-5.071-19.235-5.071-13.014,0-21.243,5.932-21.243,15.406,0,8.709,7.655,14.354,19.617,15.024q7.464.429,7.463,3.731c0,2.2-2.1,3.35-6.218,3.35a32.053,32.053,0,0,1-17.035-4.4l-5.74,10.334a37.982,37.982,0,0,0,21.816,6.316c13.78,0,22.009-5.932,22.009-15.6C810.453,790.481,803.564,785.313,789.689,784.261Z" transform="translate(-169.298 -732.891)" fill="#fff"/><rect width="15.024" height="47.272" transform="translate(106.984 33.763)" fill="#fff"/><path d="M430.935,765.538q-9.616,0-15.215,6.6l-.957-5.549H401.749v47.271h15.023V788.983c0-6.411,3.925-10.717,9.762-10.717,5.359,0,8.612,3.636,8.612,9.761v25.836h15.023v-26.7C450.169,773.673,442.706,765.538,430.935,765.538Z" transform="translate(-348.161 -732.828)" fill="#fff"/><path d="M398.8,791.028c0,6.411-3.828,10.814-9.57,10.814-5.263,0-8.421-3.638-8.421-9.762V766.245H365.789v26.7c0,13.492,7.463,21.625,19.042,21.625,6.22,0,11.291-2.2,15.024-6.508l.957,5.454h13.014V766.245H398.8Z" transform="translate(-365.789 -732.482)" fill="#fff"/><path d="M445.55,752.118c-5.071,0-8.8,3.348-8.8,8.229a7.657,7.657,0,0,0,2.489,5.837,8.836,8.836,0,0,0,6.315,2.3,9.073,9.073,0,0,0,6.411-2.3,7.579,7.579,0,0,0,2.392-5.837C454.353,755.466,450.621,752.118,445.55,752.118Z" transform="translate(-331.006 -739.407)" fill="#fff"/></g></g></svg>