<svg xmlns="http://www.w3.org/2000/svg" xmlns:xlink="http://www.w3.org/1999/xlink" width="187.623" height="185.104" viewBox="0 0 187.623 185.104"><defs><clipPath id="a"><path d="M496.518,322.353A18.626,18.626,0,1,0,462.5,337.487a18.426,18.426,0,0,0,3.477,4.926,18.066,18.066,0,0,0,3.435,2.773,18.534,18.534,0,0,0,21.384-1.145,14.529,14.529,0,0,0,1.214-1.035,8.094,8.094,0,0,0,.593-.593,18.141,18.141,0,0,0,4.043-6.25,18.327,18.327,0,0,0,1.269-6.747A18.543,18.543,0,0,0,496.518,322.353Zm-8.954,10.5a8.956,8.956,0,1,1,.69-3.436A8.954,8.954,0,0,1,487.564,332.852Z" fill="#fff"/></clipPath><clipPath id="b"><path d="M600.693,310.791A18.69,18.69,0,0,0,583.476,322.3a18.6,18.6,0,0,0,3.9,20.115,17.2,17.2,0,0,0,1.821,1.641,18.964,18.964,0,0,0,4.332,2.553,18.582,18.582,0,0,0,16.9-1.325c.055-.027.11-.069.165-.1a18.743,18.743,0,0,0,6.733-7.409,18.619,18.619,0,0,0-16.639-26.986Zm7.326,23.785a8.958,8.958,0,1,1,1.642-5.16A8.867,8.867,0,0,1,608.019,334.576Z" fill="#fff"/></clipPath><clipPath id="c"><path d="M540,275.5a20.028,20.028,0,0,0-20.005,20,19.794,19.794,0,0,0,2.814,10.209,19.974,19.974,0,0,0,34.4-.027,19.785,19.785,0,0,0,2.8-10.182A20.036,20.036,0,0,0,540,275.5Zm6.567,27.992a10.3,10.3,0,0,1-13.121,0h-.013a10.347,10.347,0,1,1,13.134,0Z" fill="#fff"/></clipPath><clipPath id="d"><path d="M633.791,390.341a39.565,39.565,0,0,1-34.3,40.492,28.108,28.108,0,0,1-8.664-.262l-1.628-.3-.207-.041-.29-.055-.51-.1c-2-.524-3.96-1.186-5.9-1.89a3.641,3.641,0,0,1-.345-.138,71.913,71.913,0,0,1-13.286-6.526,71.159,71.159,0,0,1-8.277-6.029l-.152-.124-4.125-3.5-36.34-30.793-9.657-8.182-1.628-1.393a.95.95,0,0,0-.138-.11,64.43,64.43,0,0,0-7.891-5.629q-2.091-1.263-4.305-2.359c-.152-.083-.3-.166-.455-.235l-4.9-.8L488.543,362c-.234-.027-.469-.041-.7-.055a2.209,2.209,0,0,0-.3-.014,6.78,6.78,0,0,0-.91-.055,27.188,27.188,0,0,0-2.994,0q-.621.021-1.242.083c-.207.014-.427.041-.634.069-.456.041-.9.11-1.352.179h-.014c-.414.069-.828.152-1.228.235-.3.069-.607.152-.9.22-.717.194-1.435.414-2.138.649-.124.055-.248.083-.373.138q-1.014.351-1.986.786l-.373.166c-.662.3-1.31.621-1.945.966-.042.027-.083.041-.124.069-.221.124-.442.248-.662.386s-.414.248-.621.386h-.014c-.166.1-.331.207-.5.317-.1.056-.207.125-.3.18-.58.4-1.146.8-1.711,1.228-.111.1-.221.179-.331.262-.552.441-1.1.91-1.628,1.379l-.166.166q-.744.7-1.448,1.449c-.069.069-.138.137-.207.22-.469.511-.925,1.049-1.366,1.6-.1.11-.18.22-.262.331-.442.565-.856,1.131-1.242,1.724l-.165.249c-.373.579-.732,1.159-1.063,1.766l-.124.206c-.345.621-.662,1.27-.966,1.918-.055.124-.11.262-.165.387-.29.648-.552,1.31-.8,1.986-.042.111-.069.221-.111.345-.234.662-.441,1.352-.634,2.042a.484.484,0,0,0-.028.138c-.193.717-.345,1.448-.483,2.18-.027.138-.041.276-.069.414q-.186,1.075-.29,2.193c0,.124-.013.262-.027.4-.055.773-.1,1.545-.1,2.332a29.925,29.925,0,0,0,29.883,29.9h24.392a29.936,29.936,0,0,0,1.752,9.658c.29.8.607,1.586.966,2.359.11.234.22.455.331.69a28.983,28.983,0,0,0,2.373,3.987c.179.276.386.552.593.814.455.621.952,1.228,1.462,1.807.4.455.814.883,1.228,1.3.262.276.524.524.787.773a4.865,4.865,0,0,0,.4.358c.262.235.524.469.8.7a29.277,29.277,0,0,0,2.759,2.056c.386.262.787.51,1.173.731.428.262.855.51,1.3.731.013.014.027.014.041.028a.123.123,0,0,1,.069.041c.442.221.911.455,1.366.662l.014.014c.469.207.938.414,1.407.593.524.221,1.062.414,1.614.593.235.083.469.152.7.221s.469.138.7.207c.593.166,1.187.317,1.794.442.441.1.883.193,1.338.262a.623.623,0,0,1,.152.027c.469.069.938.138,1.407.193h.041c.4.042.8.083,1.2.1.262.028.538.041.814.055.427.014.855.028,1.3.028.427,0,.855-.014,1.269-.028.289-.014.579-.027.855-.055s.566-.041.842-.069a3.323,3.323,0,0,0,.372-.028c.469-.055.938-.124,1.407-.193.1-.013.194-.041.3-.055.359-.055.7-.124,1.062-.207a.3.3,0,0,0,.111-.014c.22-.055.441-.1.662-.165a7.645,7.645,0,0,0,.8-.193,7.777,7.777,0,0,0,.814-.235,8.745,8.745,0,0,0,.856-.262c.262-.083.524-.166.772-.262.69-.248,1.352-.511,2.014-.814.331-.138.649-.29.966-.455s.635-.318.952-.483c.4-.207.8-.428,1.187-.676.4-.221.8-.469,1.186-.731a.829.829,0,0,1,.138-.1c.359-.235.7-.483,1.062-.745.028-.028.069-.041.1-.069.179-.138.345-.262.524-.4.3-.221.593-.455.883-.7.372-.317.731-.634,1.09-.965q.579-.518,1.117-1.077c.262-.262.511-.538.759-.814a1.988,1.988,0,0,0,.166-.165,1.747,1.747,0,0,0,.138-.152c.482-.552.952-1.117,1.379-1.711a7.071,7.071,0,0,0,.483-.648l.083-.124c.1-.124.193-.249.276-.373a1.98,1.98,0,0,0,.124-.179c.165-.248.331-.5.5-.759.207-.331.413-.662.607-1.007s.386-.69.579-1.049c.359-.7.7-1.42,1.021-2.152a4.967,4.967,0,0,0,.248-.579q.228-.539.414-1.076a6.746,6.746,0,0,1,6.291,4.263h.014a6.617,6.617,0,0,1,.483,2.483,2.285,2.285,0,0,1-.014.317,6.422,6.422,0,0,1-.69,2.594c-.068.138-.151.29-.234.428a39.505,39.505,0,0,1-68.195-.428,38.942,38.942,0,0,1-4.015-9.657H485.729a39.553,39.553,0,0,1-1.766-79.067,27.214,27.214,0,0,1,3.518.111l3.311.386.318.041.358.042a34.5,34.5,0,0,1,13.562,4.553,3.627,3.627,0,0,1,.317.179,75.116,75.116,0,0,1,6.333,4.3c1.035.787,2.055,1.573,3.049,2.4l5.035,4.263,3.518,2.994L560.229,402.7l6.387,5.422q1.594,1.346,3.27,2.566c.538.4,1.09.787,1.656,1.173a62.769,62.769,0,0,0,8,4.677c1.793.883,3.642,1.669,5.5,2.387,1.366.51,2.76.979,4.153,1.407.469.138.952.276,1.435.4.014,0,.041.014.055.014l.718.083.938.082a31.04,31.04,0,0,0,10.126-.938v-.014a28.887,28.887,0,0,0,15.259-9.85c.041-.042.069-.083.1-.111.428-.551.842-1.117,1.242-1.71l.014-.014.041-.083c.373-.538.7-1.09,1.035-1.642.069-.138.138-.262.207-.386.331-.579.634-1.173.924-1.78.055-.1.1-.207.152-.317q.372-.828.7-1.7a2.774,2.774,0,0,0,.125-.3c.248-.635.455-1.283.648-1.932.041-.138.083-.29.124-.428.18-.662.359-1.324.5-1.986,0-.028,0-.042.014-.055.138-.69.248-1.394.331-2.084.028-.165.041-.317.069-.469.083-.689.138-1.393.165-2.1a2.406,2.406,0,0,0,.014-.317c.014-.317.028-.648.028-.98v-.1c0-.29-.014-.593-.028-.883a1.64,1.64,0,0,0,0-.262v-.124c-.041-.925-.124-1.835-.248-2.746a.081.081,0,0,0-.014-.055.42.42,0,0,0-.014-.138,22.746,22.746,0,0,0-.455-2.387,2.1,2.1,0,0,0-.055-.276v-.013c0-.014,0-.014-.014-.028-.1-.414-.207-.814-.317-1.228-.028-.069-.042-.138-.069-.221-.083-.3-.18-.593-.29-.9a.692.692,0,0,0-.055-.152.323.323,0,0,0-.028-.111c-.014-.055-.041-.11-.055-.165a4.926,4.926,0,0,0-.179-.483c-.042-.138-.083-.276-.138-.414s-.111-.276-.166-.414c-.152-.427-.331-.855-.524-1.269s-.386-.828-.607-1.242a28.812,28.812,0,0,0-2.856-4.566c-.179-.249-.372-.5-.566-.731-.151-.18-.289-.359-.441-.525-.248-.3-.511-.607-.786-.9s-.539-.566-.8-.842a32.1,32.1,0,0,0-2.8-2.483c-.235-.18-.469-.359-.718-.538-.634-.47-1.3-.911-1.973-1.339-.552-.345-1.117-.676-1.71-.979-.29-.152-.58-.3-.883-.455-.594-.29-1.187-.566-1.808-.814-.317-.125-.62-.249-.938-.359s-.621-.235-.938-.331-.635-.221-.966-.3c-.634-.193-1.3-.372-1.959-.51s-1.324-.276-2-.373c-.345-.055-.676-.11-1.021-.138a25.96,25.96,0,0,0-3.118-.193,3.076,3.076,0,0,0-.359-.014H569.886a29.885,29.885,0,0,0-1.683-9.657,29.454,29.454,0,0,0-5.629-9.657,29.806,29.806,0,0,0-13.051-8.761,29.843,29.843,0,0,0-19.039,0,30.1,30.1,0,0,0-17.769,16.128c-.1.207-.18.414-.276.634-.221.538-.442,1.09-.635,1.656a6.655,6.655,0,0,1-1.918-.276,6.813,6.813,0,0,1-4.828-5.532,5.788,5.788,0,0,1-.083-.98,6.049,6.049,0,0,1,.276-1.835,6.248,6.248,0,0,1,.4-1.034,3.793,3.793,0,0,1,.248-.456,39.944,39.944,0,0,1,11.313-12.278v-.014c.524-.359,1.062-.718,1.6-1.063a39.475,39.475,0,0,1,42.369,0c.538.332,1.062.677,1.573,1.049a39.543,39.543,0,0,1,11.6,12.762,38.663,38.663,0,0,1,3.932,9.657h15.245A40.753,40.753,0,0,1,620.1,362h.015a39.205,39.205,0,0,1,12.609,20.488v.014h.014a35.925,35.925,0,0,1,.69,3.669A37.9,37.9,0,0,1,633.791,390.341Z" fill="#fff"/></clipPath></defs><g transform="translate(-446.189 -275.501)"><path d="M496.518,322.353A18.626,18.626,0,1,0,462.5,337.487a18.426,18.426,0,0,0,3.477,4.926,18.066,18.066,0,0,0,3.435,2.773,18.534,18.534,0,0,0,21.384-1.145,14.529,14.529,0,0,0,1.214-1.035,8.094,8.094,0,0,0,.593-.593,18.141,18.141,0,0,0,4.043-6.25,18.327,18.327,0,0,0,1.269-6.747A18.543,18.543,0,0,0,496.518,322.353Zm-8.954,10.5a8.956,8.956,0,1,1,.69-3.436A8.954,8.954,0,0,1,487.564,332.852Z" fill="#fff"/><g clip-path="url(#a)"><rect width="541.025" height="304.327" transform="translate(269.488 215.89)" fill="#fff"/></g><path d="M600.693,310.791A18.69,18.69,0,0,0,583.476,322.3a18.6,18.6,0,0,0,3.9,20.115,17.2,17.2,0,0,0,1.821,1.641,18.964,18.964,0,0,0,4.332,2.553,18.582,18.582,0,0,0,16.9-1.325c.055-.027.11-.069.165-.1a18.743,18.743,0,0,0,6.733-7.409,18.619,18.619,0,0,0-16.639-26.986Zm7.326,23.785a8.958,8.958,0,1,1,1.642-5.16A8.867,8.867,0,0,1,608.019,334.576Z" fill="#fff"/><g clip-path="url(#b)"><rect width="541.025" height="304.327" transform="translate(269.488 215.89)" fill="#fff"/></g><path d="M540,275.5a20.028,20.028,0,0,0-20.005,20,19.794,19.794,0,0,0,2.814,10.209,19.974,19.974,0,0,0,34.4-.027,19.785,19.785,0,0,0,2.8-10.182A20.036,20.036,0,0,0,540,275.5Zm6.567,27.992a10.3,10.3,0,0,1-13.121,0h-.013a10.347,10.347,0,1,1,13.134,0Z" fill="#fff"/><g clip-path="url(#c)"><rect width="541.025" height="304.327" transform="translate(269.488 215.89)" fill="#fff"/></g><path d="M633.791,390.341a39.565,39.565,0,0,1-34.3,40.492,28.108,28.108,0,0,1-8.664-.262l-1.628-.3-.207-.041-.29-.055-.51-.1c-2-.524-3.96-1.186-5.9-1.89a3.641,3.641,0,0,1-.345-.138,71.913,71.913,0,0,1-13.286-6.526,71.159,71.159,0,0,1-8.277-6.029l-.152-.124-4.125-3.5-36.34-30.793-9.657-8.182-1.628-1.393a.95.95,0,0,0-.138-.11,64.43,64.43,0,0,0-7.891-5.629q-2.091-1.263-4.305-2.359c-.152-.083-.3-.166-.455-.235l-4.9-.8L488.543,362c-.234-.027-.469-.041-.7-.055a2.209,2.209,0,0,0-.3-.014,6.78,6.78,0,0,0-.91-.055,27.188,27.188,0,0,0-2.994,0q-.621.021-1.242.083c-.207.014-.427.041-.634.069-.456.041-.9.11-1.352.179h-.014c-.414.069-.828.152-1.228.235-.3.069-.607.152-.9.22-.717.194-1.435.414-2.138.649-.124.055-.248.083-.373.138q-1.014.351-1.986.786l-.373.166c-.662.3-1.31.621-1.945.966-.042.027-.083.041-.124.069-.221.124-.442.248-.662.386s-.414.248-.621.386h-.014c-.166.1-.331.207-.5.317-.1.056-.207.125-.3.18-.58.4-1.146.8-1.711,1.228-.111.1-.221.179-.331.262-.552.441-1.1.91-1.628,1.379l-.166.166q-.744.7-1.448,1.449c-.069.069-.138.137-.207.22-.469.511-.925,1.049-1.366,1.6-.1.11-.18.22-.262.331-.442.565-.856,1.131-1.242,1.724l-.165.249c-.373.579-.732,1.159-1.063,1.766l-.124.206c-.345.621-.662,1.27-.966,1.918-.055.124-.11.262-.165.387-.29.648-.552,1.31-.8,1.986-.042.111-.069.221-.111.345-.234.662-.441,1.352-.634,2.042a.484.484,0,0,0-.028.138c-.193.717-.345,1.448-.483,2.18-.027.138-.041.276-.069.414q-.186,1.075-.29,2.193c0,.124-.013.262-.027.4-.055.773-.1,1.545-.1,2.332a29.925,29.925,0,0,0,29.883,29.9h24.392a29.936,29.936,0,0,0,1.752,9.658c.29.8.607,1.586.966,2.359.11.234.22.455.331.69a28.983,28.983,0,0,0,2.373,3.987c.179.276.386.552.593.814.455.621.952,1.228,1.462,1.807.4.455.814.883,1.228,1.3.262.276.524.524.787.773a4.865,4.865,0,0,0,.4.358c.262.235.524.469.8.7a29.277,29.277,0,0,0,2.759,2.056c.386.262.787.51,1.173.731.428.262.855.51,1.3.731.013.014.027.014.041.028a.123.123,0,0,1,.069.041c.442.221.911.455,1.366.662l.014.014c.469.207.938.414,1.407.593.524.221,1.062.414,1.614.593.235.083.469.152.7.221s.469.138.7.207c.593.166,1.187.317,1.794.442.441.1.883.193,1.338.262a.623.623,0,0,1,.152.027c.469.069.938.138,1.407.193h.041c.4.042.8.083,1.2.1.262.028.538.041.814.055.427.014.855.028,1.3.028.427,0,.855-.014,1.269-.028.289-.014.579-.027.855-.055s.566-.041.842-.069a3.323,3.323,0,0,0,.372-.028c.469-.055.938-.124,1.407-.193.1-.013.194-.041.3-.055.359-.055.7-.124,1.062-.207a.3.3,0,0,0,.111-.014c.22-.055.441-.1.662-.165a7.645,7.645,0,0,0,.8-.193,7.777,7.777,0,0,0,.814-.235,8.745,8.745,0,0,0,.856-.262c.262-.083.524-.166.772-.262.69-.248,1.352-.511,2.014-.814.331-.138.649-.29.966-.455s.635-.318.952-.483c.4-.207.8-.428,1.187-.676.4-.221.8-.469,1.186-.731a.829.829,0,0,1,.138-.1c.359-.235.7-.483,1.062-.745.028-.028.069-.041.1-.069.179-.138.345-.262.524-.4.3-.221.593-.455.883-.7.372-.317.731-.634,1.09-.965q.579-.518,1.117-1.077c.262-.262.511-.538.759-.814a1.988,1.988,0,0,0,.166-.165,1.747,1.747,0,0,0,.138-.152c.482-.552.952-1.117,1.379-1.711a7.071,7.071,0,0,0,.483-.648l.083-.124c.1-.124.193-.249.276-.373a1.98,1.98,0,0,0,.124-.179c.165-.248.331-.5.5-.759.207-.331.413-.662.607-1.007s.386-.69.579-1.049c.359-.7.7-1.42,1.021-2.152a4.967,4.967,0,0,0,.248-.579q.228-.539.414-1.076a6.746,6.746,0,0,1,6.291,4.263h.014a6.617,6.617,0,0,1,.483,2.483,2.285,2.285,0,0,1-.014.317,6.422,6.422,0,0,1-.69,2.594c-.068.138-.151.29-.234.428a39.505,39.505,0,0,1-68.195-.428,38.942,38.942,0,0,1-4.015-9.657H485.729a39.553,39.553,0,0,1-1.766-79.067,27.214,27.214,0,0,1,3.518.111l3.311.386.318.041.358.042a34.5,34.5,0,0,1,13.562,4.553,3.627,3.627,0,0,1,.317.179,75.116,75.116,0,0,1,6.333,4.3c1.035.787,2.055,1.573,3.049,2.4l5.035,4.263,3.518,2.994L560.229,402.7l6.387,5.422q1.594,1.346,3.27,2.566c.538.4,1.09.787,1.656,1.173a62.769,62.769,0,0,0,8,4.677c1.793.883,3.642,1.669,5.5,2.387,1.366.51,2.76.979,4.153,1.407.469.138.952.276,1.435.4.014,0,.041.014.055.014l.718.083.938.082a31.04,31.04,0,0,0,10.126-.938v-.014a28.887,28.887,0,0,0,15.259-9.85c.041-.042.069-.083.1-.111.428-.551.842-1.117,1.242-1.71l.014-.014.041-.083c.373-.538.7-1.09,1.035-1.642.069-.138.138-.262.207-.386.331-.579.634-1.173.924-1.78.055-.1.1-.207.152-.317q.372-.828.7-1.7a2.774,2.774,0,0,0,.125-.3c.248-.635.455-1.283.648-1.932.041-.138.083-.29.124-.428.18-.662.359-1.324.5-1.986,0-.028,0-.042.014-.055.138-.69.248-1.394.331-2.084.028-.165.041-.317.069-.469.083-.689.138-1.393.165-2.1a2.406,2.406,0,0,0,.014-.317c.014-.317.028-.648.028-.98v-.1c0-.29-.014-.593-.028-.883a1.64,1.64,0,0,0,0-.262v-.124c-.041-.925-.124-1.835-.248-2.746a.081.081,0,0,0-.014-.055.42.42,0,0,0-.014-.138,22.746,22.746,0,0,0-.455-2.387,2.1,2.1,0,0,0-.055-.276v-.013c0-.014,0-.014-.014-.028-.1-.414-.207-.814-.317-1.228-.028-.069-.042-.138-.069-.221-.083-.3-.18-.593-.29-.9a.692.692,0,0,0-.055-.152.323.323,0,0,0-.028-.111c-.014-.055-.041-.11-.055-.165a4.926,4.926,0,0,0-.179-.483c-.042-.138-.083-.276-.138-.414s-.111-.276-.166-.414c-.152-.427-.331-.855-.524-1.269s-.386-.828-.607-1.242a28.812,28.812,0,0,0-2.856-4.566c-.179-.249-.372-.5-.566-.731-.151-.18-.289-.359-.441-.525-.248-.3-.511-.607-.786-.9s-.539-.566-.8-.842a32.1,32.1,0,0,0-2.8-2.483c-.235-.18-.469-.359-.718-.538-.634-.47-1.3-.911-1.973-1.339-.552-.345-1.117-.676-1.71-.979-.29-.152-.58-.3-.883-.455-.594-.29-1.187-.566-1.808-.814-.317-.125-.62-.249-.938-.359s-.621-.235-.938-.331-.635-.221-.966-.3c-.634-.193-1.3-.372-1.959-.51s-1.324-.276-2-.373c-.345-.055-.676-.11-1.021-.138a25.96,25.96,0,0,0-3.118-.193,3.076,3.076,0,0,0-.359-.014H569.886a29.885,29.885,0,0,0-1.683-9.657,29.454,29.454,0,0,0-5.629-9.657,29.806,29.806,0,0,0-13.051-8.761,29.843,29.843,0,0,0-19.039,0,30.1,30.1,0,0,0-17.769,16.128c-.1.207-.18.414-.276.634-.221.538-.442,1.09-.635,1.656a6.655,6.655,0,0,1-1.918-.276,6.813,6.813,0,0,1-4.828-5.532,5.788,5.788,0,0,1-.083-.98,6.049,6.049,0,0,1,.276-1.835,6.248,6.248,0,0,1,.4-1.034,3.793,3.793,0,0,1,.248-.456,39.944,39.944,0,0,1,11.313-12.278v-.014c.524-.359,1.062-.718,1.6-1.063a39.475,39.475,0,0,1,42.369,0c.538.332,1.062.677,1.573,1.049a39.543,39.543,0,0,1,11.6,12.762,38.663,38.663,0,0,1,3.932,9.657h15.245A40.753,40.753,0,0,1,620.1,362h.015a39.205,39.205,0,0,1,12.609,20.488v.014h.014a35.925,35.925,0,0,1,.69,3.669A37.9,37.9,0,0,1,633.791,390.341Z" fill="#fff"/><g clip-path="url(#d)"><rect width="541.025" height="304.327" transform="translate(269.488 215.89)" fill="#fff"/></g></g></svg>