<svg width="335" height="332" viewBox="0 0 335 332" fill="none" xmlns="http://www.w3.org/2000/svg">
<path d="M250.85 167.168C339.889 168.689 339.875 301.133 250.85 302.641C161.811 301.12 161.825 168.676 250.85 167.168Z" fill="#3C3F59"/>
<path d="M240.561 288.065H219.983V324.934H240.561V288.065Z" fill="#3C3F59"/>
<path d="M281.717 288.065H261.139V324.934H281.717V288.065Z" fill="#3C3F59"/>
<path d="M237.13 318.932C259.366 318.774 259.366 331.952 237.13 331.793C214.895 331.952 214.895 318.774 237.13 318.932Z" fill="#3C3F59"/>
<path d="M278.287 318.074C300.523 317.916 300.523 331.094 278.287 330.935C256.051 331.093 256.051 317.915 278.287 318.074Z" fill="#3C3F59"/>
<path d="M252.569 194.606C282.845 194.742 282.842 240.775 252.569 240.906C222.288 240.771 222.291 194.738 252.569 194.606Z" fill="white"/>
<path d="M252.565 210.039C262.577 209.893 262.577 225.62 252.565 225.473C242.552 225.616 242.552 209.892 252.565 210.039Z" fill="#3F3D56"/>
<path d="M185.143 171.912C172.417 113.889 269.898 92.133 283.051 150.053C288.52 174.544 270.602 183.579 243.566 189.616C216.53 195.653 190.612 196.406 185.143 171.912Z" fill="#F2D12A"/>
<path d="M83.2861 329.982C82.0741 332.766 78.0171 330.359 79.2121 327.607C84.7715 314.592 88.5642 300.891 90.4891 286.869C93.7644 262.816 91.9153 238.343 85.0631 215.055C84.8111 214.221 84.5631 213.372 84.3081 212.539C83.7081 210.62 83.0811 208.701 82.4201 206.814C74.8875 184.846 62.7226 164.754 46.7491 147.897C44.6581 145.697 47.9911 142.361 50.0831 144.563C60.2061 155.158 68.851 167.072 75.7831 179.982C79.0959 186.129 82.0268 192.474 84.5591 198.982C85.5501 201.514 86.4781 204.082 87.3591 206.642C92.5126 221.92 95.5862 237.822 96.4971 253.92C98.0376 279.955 93.5153 305.992 83.2861 329.982Z" fill="#F2D12A"/>
<path d="M119.302 89.61C114.065 108.783 108.831 127.955 103.602 147.127C98.1753 166.976 92.7597 186.814 87.355 206.642C86.5837 209.457 85.817 212.262 85.055 215.057C84.803 214.223 84.555 213.374 84.3 212.541C83.7 210.622 83.073 208.703 82.412 206.816C83.12 204.205 83.827 201.594 84.551 198.983L87.477 188.272C96.5677 154.96 105.658 121.653 114.749 88.352C114.933 87.7695 115.336 87.2812 115.873 86.9898C116.41 86.6984 117.04 86.6266 117.628 86.7896C118.217 86.9525 118.72 87.3375 119.031 87.8636C119.342 88.3896 119.436 89.0156 119.295 89.61H119.302Z" fill="#F2D12A"/>
<path d="M22.285 96.481C19.535 102.515 16.76 108.626 15.57 115.149C14.38 121.672 14.922 128.757 18.45 134.371C21.4507 138.661 25.4586 142.15 30.122 144.53C36.707 148.285 45.27 150.939 51.567 146.719C57.928 142.457 58.604 132.827 55.04 126.05C51.476 119.273 44.855 114.728 38.397 110.616C31.939 106.504 26.876 103.253 22.688 96.844L22.285 96.481Z" fill="#F2D12A"/>
<path d="M134.348 35C128.048 37.068 121.675 39.171 116.072 42.718C110.469 46.265 105.628 51.466 103.892 57.866C102.772 62.9805 102.924 68.2919 104.335 73.334C106.035 80.721 109.892 88.814 117.263 90.584C124.708 92.371 132.246 86.34 134.813 79.126C137.38 71.912 136.233 63.964 134.878 56.426C133.523 48.888 132.478 42.965 134.355 35.541L134.348 35Z" fill="#F2D12A"/>
<path d="M21.295 171.16C23.045 177.56 24.826 184.027 28.087 189.8C31.348 195.573 36.301 200.669 42.605 202.724C47.6571 204.1 52.9695 204.214 58.076 203.057C65.5391 201.726 73.8151 198.283 75.9521 191.01C78.1101 183.664 72.464 175.833 65.389 172.91C58.314 169.987 50.3171 170.732 42.7231 171.71C35.1291 172.688 29.159 173.429 21.838 171.186L21.295 171.16Z" fill="#F2D12A"/>
<path d="M40.1689 254.519C41.9189 260.919 43.6999 267.386 46.9609 273.159C50.2219 278.932 55.1749 284.028 61.4789 286.082C66.531 287.458 71.8434 287.572 76.95 286.415C84.413 285.084 92.689 281.641 94.826 274.368C96.984 267.022 91.3379 259.191 84.2629 256.268C77.1879 253.345 69.191 254.09 61.597 255.068C54.003 256.046 48.0329 256.787 40.7119 254.544L40.1689 254.519Z" fill="#F2D12A"/>
<path d="M143.609 199.471C141.859 205.871 140.078 212.337 136.817 218.111C133.556 223.885 128.603 228.98 122.299 231.035C117.247 232.411 111.934 232.525 106.828 231.368C99.365 230.037 91.089 226.594 88.952 219.321C86.794 211.975 92.44 204.144 99.515 201.221C106.59 198.298 114.587 199.043 122.181 200.021C129.775 200.999 135.745 201.74 143.066 199.497L143.609 199.471Z" fill="#F2D12A"/>
<path d="M162.483 114.539C160.733 120.939 158.952 127.406 155.691 133.179C152.43 138.952 147.477 144.048 141.173 146.102C136.121 147.477 130.809 147.592 125.703 146.435C118.24 145.104 109.963 141.661 107.827 134.388C105.669 127.042 111.315 119.211 118.39 116.288C125.465 113.365 133.462 114.11 141.056 115.088C148.65 116.066 154.62 116.807 161.941 114.564L162.483 114.539Z" fill="#F2D12A"/>
</svg>
