<svg xmlns="http://www.w3.org/2000/svg" width="340" height="502.63" viewBox="0 0 340 502.63"><ellipse cx="39.5" cy="12.4" rx="39.5" ry="12.4" transform="translate(135.697 121.172) rotate(-110.918)" fill="#3c3f59"/><circle cx="13.685" cy="13.685" r="13.685" transform="translate(103.503 31.406)" fill="#f2d12a"/><ellipse cx="170" cy="23.127" rx="170" ry="23.127" transform="translate(0 456.375)" fill="#d9bb1f"/><circle cx="79" cy="79" r="79" transform="translate(100.195 287.503)" fill="#3c3f59"/><rect width="24" height="43" transform="translate(191.195 428.503)" fill="#3c3f59"/><rect width="24" height="43" transform="translate(143.195 428.503)" fill="#3c3f59"/><ellipse cx="20" cy="7.5" rx="20" ry="7.5" transform="translate(175.195 464.503)" fill="#3c3f59"/><ellipse cx="20" cy="7.5" rx="20" ry="7.5" transform="translate(127.195 463.503)" fill="#3c3f59"/><circle cx="27" cy="27" r="27" transform="translate(150.195 319.503)" fill="#fff"/><circle cx="9" cy="9" r="9" transform="translate(168.195 337.503)" fill="#3f3d56"/><path d="M240.382,656.687c6.379-28.568-14.012-57.434-45.544-64.475s-62.265,10.41-68.644,38.978,14.519,39.1,46.051,46.145S234,685.254,240.382,656.687Z" transform="translate(15.446 -363.652)" fill="#f2d12a"/><circle cx="79" cy="79" r="79" transform="translate(127.195 60.503)" fill="#3c3f59"/><rect width="24" height="43" transform="translate(218.195 201.503)" fill="#3c3f59"/><rect width="24" height="43" transform="translate(170.195 201.503)" fill="#3c3f59"/><ellipse cx="20" cy="7.5" rx="20" ry="7.5" transform="translate(202.195 237.503)" fill="#3c3f59"/><ellipse cx="20" cy="7.5" rx="20" ry="7.5" transform="translate(154.195 236.503)" fill="#3c3f59"/><circle cx="27" cy="27" r="27" transform="translate(177.195 92.503)" fill="#fff"/><circle cx="9" cy="9" r="9" transform="translate(195.195 110.503)" fill="#3f3d56"/><path d="M213.382,429.687c6.379-28.568-14.012-57.434-45.544-64.475s-62.265,10.41-68.644,38.978,14.519,39.1,46.051,46.145S207,458.254,213.382,429.687Z" transform="translate(69.446 -363.652)" fill="#f2d12a"/><ellipse cx="12.4" cy="39.5" rx="12.4" ry="39.5" transform="translate(264.799 130.978) rotate(-115.374)" fill="#3c3f59"/><path d="M221.848,531.655c0,7.732-19.909,23-42,23s-42.8-21.768-42.8-29.5,20.713,1.5,42.8,1.5S221.848,523.923,221.848,531.655Z" transform="translate(23.152 -363.652)" fill="#fff"/><circle cx="13.685" cy="13.685" r="13.685" transform="translate(257.503 442.406)" fill="#f2d12a"/><rect width="36" height="36" transform="translate(47.397 440.066)" fill="#14c9dd"/><circle cx="13.685" cy="13.685" r="13.685" transform="translate(69.503 450.406)" fill="#f2d12a"/></svg>