<svg xmlns="http://www.w3.org/2000/svg" width="147.486" height="296.218" viewBox="0 0 147.486 296.218"><g transform="translate(-78.26 -4707.801)"><path d="M396.078,820.513c-1.212,2.784-5.269.377-4.074-2.375A158.635,158.635,0,0,0,403.281,777.4a172.132,172.132,0,0,0-5.426-71.814c-.252-.834-.5-1.683-.755-2.516-.6-1.919-1.227-3.838-1.888-5.725a162.094,162.094,0,0,0-35.671-58.917c-2.091-2.2,1.242-5.536,3.334-3.334a162.651,162.651,0,0,1,25.7,35.419,169.993,169.993,0,0,1,8.776,19c.991,2.532,1.919,5.1,2.8,7.66a179.677,179.677,0,0,1,9.138,47.278A168.543,168.543,0,0,1,396.078,820.513Z" transform="translate(-249.529 4182.269)" fill="#f2d12a"/><path d="M418.862,600.954q-7.856,28.759-15.7,57.517-8.14,29.773-16.247,59.515-1.157,4.223-2.3,8.415c-.252-.834-.5-1.683-.755-2.516-.6-1.919-1.227-3.838-1.888-5.725.708-2.611,1.415-5.222,2.139-7.833l2.926-10.711q13.636-49.968,27.272-99.92a2.36,2.36,0,0,1,4.546,1.258Z" transform="translate(-236.297 4161.456)" fill="#f2d12a"/><path d="M346.4,604.261c-2.75,6.034-5.525,12.145-6.715,18.668s-.648,13.608,2.88,19.222a31.99,31.99,0,0,0,11.672,10.159c6.585,3.755,15.148,6.409,21.445,2.189,6.361-4.262,7.037-13.892,3.473-20.669s-10.185-11.322-16.643-15.434-11.521-7.363-15.709-13.772Z" transform="translate(-260.852 4165.02)" fill="#f2d12a"/><path d="M426.357,565.171c-6.3,2.068-12.673,4.171-18.276,7.718s-10.444,8.748-12.18,15.148a31.988,31.988,0,0,0,.443,15.468c1.7,7.387,5.557,15.48,12.928,17.25,7.445,1.787,14.983-4.244,17.55-11.458s1.42-15.162.065-22.7-2.4-13.461-.523-20.885Z" transform="translate(-228.746 4142.629)" fill="#f2d12a"/><path d="M343.116,651.86c1.75,6.4,3.531,12.867,6.792,18.64s8.214,10.869,14.518,12.924a31.989,31.989,0,0,0,15.471.333c7.463-1.331,15.739-4.774,17.876-12.047,2.158-7.346-3.488-15.177-10.563-18.1s-15.072-2.178-22.666-1.2-13.564,1.719-20.885-.524Z" transform="translate(-258.558 4192.1)" fill="#f2d12a"/><path d="M355.116,704.86c1.75,6.4,3.531,12.867,6.792,18.64s8.214,10.869,14.518,12.923a31.988,31.988,0,0,0,15.471.333c7.463-1.331,15.739-4.774,17.876-12.047,2.158-7.346-3.488-15.177-10.563-18.1s-15.072-2.178-22.666-1.2-13.564,1.719-20.885-.524Z" transform="translate(-251.684 4222.459)" fill="#f2d12a"/><path d="M440.96,669.86c-1.75,6.4-3.531,12.866-6.792,18.64s-8.214,10.869-14.518,12.924a31.989,31.989,0,0,1-15.471.333c-7.463-1.331-15.739-4.774-17.876-12.047-2.158-7.346,3.488-15.177,10.563-18.1s15.072-2.178,22.666-1.2,13.564,1.719,20.885-.524Z" transform="translate(-234.088 4202.411)" fill="#f2d12a"/><path d="M452.96,615.86c-1.75,6.4-3.531,12.867-6.792,18.64s-8.214,10.869-14.518,12.923a31.99,31.99,0,0,1-15.47.333c-7.463-1.331-15.74-4.774-17.876-12.047-2.158-7.346,3.488-15.177,10.563-18.1s15.072-2.178,22.666-1.2,13.564,1.719,20.885-.524Z" transform="translate(-227.214 4171.479)" fill="#f2d12a"/></g></svg>