<svg xmlns="http://www.w3.org/2000/svg" width="656.703" height="702.181" viewBox="0 0 656.703 702.181"><circle cx="305.19" cy="305.19" r="305.19" transform="translate(46.038)" fill="#f0f1f2" opacity="0.299"/><g transform="translate(21.108 566.376)"><path d="M885.988,707.4c0,6.266-142.222,40.223-317.661,40.223S250.665,713.669,250.665,707.4s142.222,4.125,317.661,4.125S885.988,701.137,885.988,707.4Z" transform="translate(-250.665 -696.058)" fill="#f2d12a"/><path d="M885.988,707.4c0,6.266-142.222,40.223-317.661,40.223S250.665,713.669,250.665,707.4s142.222,4.125,317.661,4.125S885.988,701.137,885.988,707.4Z" transform="translate(-250.665 -696.058)" fill="#504b2e" opacity="0.439"/><ellipse cx="317.661" cy="11.345" rx="317.661" ry="11.345" fill="#f2d12a"/></g><line y1="102.105" transform="translate(642.264 472.522)" fill="#3f3d56" stroke="#3f3d56" stroke-miterlimit="10" stroke-width="2"/><circle cx="14.439" cy="14.439" r="14.439" transform="translate(627.825 458.082)" fill="#f2d12a"/><path d="M950.842,654.189s-2.063-44.365-44.349-39.208" transform="translate(-308.578 -118.738)" fill="#f2d12a"/><line y1="335.976" transform="translate(58.788 246.263)" fill="#3f3d56" stroke="#3f3d56" stroke-miterlimit="10" stroke-width="2"/><circle cx="14.439" cy="14.439" r="14.439" transform="translate(44.349 231.662)" fill="#f2d12a"/><circle cx="14.439" cy="14.439" r="14.439" transform="translate(0 478.071)" fill="#f2d12a"/><path d="M287.432,409.06s-2.063-44.365-44.349-39.208" transform="translate(-228.644 -89.202)" fill="#f2d12a"/><path d="M287.432,552.06s-2.063-44.365-44.349-39.208" transform="translate(-228.644 -106.432)" fill="#f2d12a"/><path d="M287.432,696.553s9.282-81.634-44.349-85.76" transform="translate(-228.644 -118.283)" fill="none" stroke="#3f3d56" stroke-miterlimit="10" stroke-width="2"/><circle cx="14.439" cy="14.439" r="14.439" transform="translate(88.704 478.071)" fill="#f2d12a"/><path d="M293.43,696.553s-9.282-81.634,44.349-85.76" transform="translate(-234.636 -118.283)" fill="none" stroke="#3f3d56" stroke-miterlimit="10" stroke-width="2"/><circle cx="14.439" cy="14.439" r="14.439" transform="translate(89.583 342.626)" fill="#f2d12a"/><path d="M294.43,542.553s-9.282-81.635,44.349-85.76" transform="translate(-234.756 -99.728)" fill="none" stroke="#3f3d56" stroke-miterlimit="10" stroke-width="2"/><line y1="204.211" transform="translate(531.205 368.353)" fill="#3f3d56" stroke="#3f3d56" stroke-miterlimit="10" stroke-width="2"/><circle cx="14.439" cy="14.439" r="14.439" transform="translate(516.766 353.914)" fill="#f2d12a"/><path d="M830.644,531.06s2.063-44.365,44.349-39.208" transform="translate(-299.439 -103.902)" fill="#f2d12a"/><path d="M830.56,685.553s-9.282-81.635,44.349-85.76" transform="translate(-299.355 -116.958)" fill="none" stroke="#3f3d56" stroke-miterlimit="10" stroke-width="2"/><circle cx="14.439" cy="14.439" r="14.439" transform="translate(561.115 468.396)" fill="#f2d12a"/><circle cx="56.289" cy="56.289" r="56.289" transform="translate(457.649 100.264)" fill="#f2d12a"/><circle cx="69.481" cy="69.481" r="69.481" transform="translate(351.577 408.916)" fill="#3c3f59"/><rect width="21.108" height="37.819" transform="translate(452.721 570.746) rotate(180)" fill="#3c3f59"/><rect width="21.108" height="37.819" transform="translate(410.504 570.746) rotate(180)" fill="#3c3f59"/><ellipse cx="17.59" cy="6.596" rx="17.59" ry="6.596" transform="translate(377.024 577.789) rotate(-30)" fill="#3c3f59"/><ellipse cx="17.59" cy="6.596" rx="17.59" ry="6.596" transform="translate(418.361 577.789) rotate(-30)" fill="#3c3f59"/><circle cx="23.747" cy="23.747" r="23.747" transform="translate(395.553 437.061)" fill="#fff"/><circle cx="7.916" cy="7.916" r="7.916" transform="translate(403.296 442.777)" fill="#3f3d56"/><path d="M768.143,513.323c5.61-25.125-12.323-50.514-40.056-56.706s-54.763,9.156-60.373,34.281,12.769,34.392,40.5,40.585S762.533,538.449,768.143,513.323Z" transform="translate(-279.686 -99.542)" fill="#f2d12a"/><ellipse cx="10.906" cy="34.741" rx="10.906" ry="34.741" transform="translate(323.952 450.872) rotate(-66.829)" fill="#3c3f59"/><ellipse cx="10.906" cy="34.741" rx="10.906" ry="34.741" transform="translate(454.12 497.487) rotate(-66.829)" fill="#3c3f59"/><path d="M716.874,627.8a15.831,15.831,0,1,1-31.662,0c0-8.743,7.088-10.554,15.831-10.554S716.874,619.059,716.874,627.8Z" transform="translate(-281.916 -119.061)" fill="#fff"/><line y1="102.105" transform="translate(338.244 355.547)" fill="none" stroke="#f2d12a" stroke-miterlimit="10" stroke-width="2"/><circle cx="14.439" cy="14.439" r="14.439" transform="translate(323.805 341.108)" fill="#f2d12a"/><path d="M605.173,521.189s-2.063-44.365-44.349-39.208" transform="translate(-266.928 -102.713)" fill="#f2d12a"/><path d="M449.307,483.479l5.6,13.193h4.957l-7.036-33.421c0-21.452-10.354-39.578-31.806-39.578h0A27.121,27.121,0,0,0,393.9,450.794v32.778a13.1,13.1,0,0,0,13.1,13.1h38.46Z" transform="translate(-246.815 -95.737)" fill="#2f2e41"/><path d="M473.754,642.188s73-8.8,81.794,7.036,2.639,29.024-8.8,36.939-74.758,43.976-74.758,43.976l-5.277,8.8-11.434-1.759L443.85,726.621l5.277-9.675s43.976-26.385,44.855-33.421c0,0-40.457,18.47-44.855,14.952s-53.65-20.229-45.735-29.9,28.144-23.747,28.144-23.747Z" transform="translate(-247.856 -121.773)" fill="#2f2e41"/><path d="M473.754,642.188s73-8.8,81.794,7.036,2.639,29.024-8.8,36.939-74.758,43.976-74.758,43.976l-5.277,8.8-11.434-1.759L443.85,726.621l5.277-9.675s43.976-26.385,44.855-33.421c0,0-40.457,18.47-44.855,14.952s-53.65-20.229-45.735-29.9,28.144-23.747,28.144-23.747Z" transform="translate(-247.856 -121.773)" fill="#3c3f59" opacity="0.363"/><path d="M466.72,740.987s13.193-2.639,10.554,6.157-4.4,26.385,0,30.783,18.47,23.747,4.4,25.506S452.647,787.6,452.647,787.6s-9.675-28.144-16.711-30.783-14.072-13.193-10.554-15.831,24.626-19.349,26.385-18.47.879,10.554.879,10.554S459.684,744.505,466.72,740.987Z" transform="translate(-250.496 -131.741)" fill="#3c3f59"/><path d="M473.047,522.909l32.542,22.867s24.626-25.506,24.626-40.458,13.193-43.1,19.349-31.662-7.036,38.7-7.036,38.7L517.9,570.4s-14.072,2.639-21.988-3.518-29.9-18.47-29.9-18.47Z" transform="translate(-255.504 -101.439)" fill="#ffb9b9"/><circle cx="24.626" cy="24.626" r="24.626" transform="translate(160.814 333.959)" fill="#ffb9b9"/><path d="M444.816,477.54s-8.8,22.867-5.277,28.144,7.916,5.277,11.434,7.036c1.759.88,20.229,7.916,20.229,13.193a20.988,20.988,0,0,1-2.639,9.675l-2.638,14.952-21.988,14.072-29.024-3.518L392.925,548.78s-3.518-32.542,6.157-37.819,21.108-17.59,20.229-21.988-1.759-14.952-1.759-14.952Z" transform="translate(-246.623 -101.804)" fill="#ffb9b9"/><path d="M482.564,538.817s-13.193,13.193-13.193,14.952,8.8,9.675,2.639,20.229-6.157,36.939-6.157,36.939l-21.108,4.4-39.578-3.518-6.157-60.686s15.831,2.639,19.349,5.277,13.193-3.518,20.229-3.518,27.265-3.518,27.265-3.518l-1.759-7.036,7.036-12.313Z" transform="translate(-247.431 -108.551)" fill="#f2d12a"/><path d="M497.511,646.522" transform="translate(-259.3 -122.588)" fill="none" stroke="#ffb9b9" stroke-miterlimit="10" stroke-width="1"/><path d="M432.27,643.421s88.831-39.578,95.867-14.072,7.916,87.072,7.916,87.072,4.4,42.217,9.675,46.614,0,17.59,0,17.59l-13.193,4.4-12.313-5.277-5.277-14.072s-1.759-31.662-8.8-47.494-7.036-52.771-6.157-54.53c0,0-34.3,42.216-67.722,39.578s-38.259-10.114-38.259-10.114S410.282,643.421,432.27,643.421Z" transform="translate(-246.829 -119.487)" fill="#3c3f59"/><path d="M556.146,786.652s3.518-12.313,11.434-2.638,43.975,24.626,44.855,26.385,16.711,11.434-1.759,24.626-43.1,0-43.1,0-21.108-7.036-26.385-6.157-15.831-4.4-16.711-8.8,1.2-43.057,5.876-39.119,9.955,14.492,9.955,14.492S557.905,799.845,556.146,786.652Z" transform="translate(-262.526 -138.708)" fill="#3c3f59"/><path d="M460.689,618.222s4.837-.44,3.958,10.994c0,0-30.343,9.235-35.62,17.15s-28.144,31.662-31.662,48.373c0,0-25.506-6.157-11.434-50.132l16.545-35.871S412.316,628.776,460.689,618.222Z" transform="translate(-245.345 -118.036)" fill="#3c3f59"/><path d="M441.66,628.427l-29.87-13.02s-14.072-29.024-14.072-43.1a216.9,216.9,0,0,0-1.869-24.206,31.247,31.247,0,0,1,10.173-27.391c3.106-2.716,6.593-4.692,10.166-4.692,0,0,10.554,19.349,8.8,36.939s2.639,43.975,2.639,43.975l39.742,21.27" transform="translate(-247.018 -106.864)" fill="#ffb9b9"/><path d="M441.953,633.652l-29.87-13.02s-14.072-29.024-14.072-43.1c0-7.33,30.783-29.024,29.024-11.434s.879,36.06.879,36.06l39.742,21.27" transform="translate(-247.311 -112.09)" opacity="0.1"/><path d="M426.83,563.7l-2.8,11.874-15.666,7.476H395.167L389.011,554.9s10.87-2.3,16.429.609,18.613,3.6,18.613,3.6Z" transform="translate(-246.226 -111.445)" fill="#f2d12a"/><path d="M440.444,424.849c-4.772-1.21-16.086-1.176-17.741-1.176a30.371,30.371,0,0,0-30.371,30.371L380.9,496.672h22.255l4.13-15.831,5.863,15.831h11.2l.963-9.513,3.792,9.513h12.479c-9.346-21.147-14.318-40.423-2.039-52.32,8.292,1.129,15.285-1.091,16.424-5.587C457.283,433.586,450.331,427.355,440.444,424.849Z" transform="translate(-245.249 -95.737)" fill="#2f2e41"/></svg>