<svg xmlns="http://www.w3.org/2000/svg" width="331.429" height="333.748" viewBox="0 0 331.429 333.748"><g transform="translate(-1360.45 -3663.393)"><path d="M1077.207,424.521c12.711,66.192-4.6,132.456-92.637,158.26s-189.3-3.217-226.182-64.818S808.521,419.5,851.025,359.7C937.339,238.268,1037.733,218.963,1077.207,424.521Z" transform="translate(610.957 3394.503)" fill="#fff" opacity="0.119"/><ellipse cx="137.317" cy="18.681" rx="137.317" ry="18.681" transform="translate(1391.589 3959.779)" fill="#fff" opacity="0.22"/><rect width="19.386" height="34.733" transform="translate(1444.235 3949.601) rotate(-105.453)" fill="#3c3f59"/><ellipse cx="6.058" cy="16.155" rx="6.058" ry="16.155" transform="translate(1426.935 3923.373) rotate(-15.453)" fill="#3c3f59"/><ellipse cx="31.906" cy="10.016" rx="31.906" ry="10.016" transform="translate(1520.604 3895.576) rotate(-82.281)" fill="#3c3f59"/><ellipse cx="63.812" cy="63.812" rx="63.812" ry="63.812" transform="translate(1464.758 3861.227)" fill="#3c3f59"/><rect width="19.386" height="34.733" transform="translate(1444.235 3938.293) rotate(-105.453)" fill="#3c3f59"/><ellipse cx="6.058" cy="16.155" rx="6.058" ry="16.155" transform="translate(1426.935 3912.065) rotate(-15.453)" fill="#3c3f59"/><ellipse cx="21.809" cy="21.809" rx="21.809" ry="21.809" transform="translate(1523.517 3866.674)" fill="#fff"/><ellipse cx="7.27" cy="7.27" rx="7.27" ry="7.27" transform="translate(1545.031 3871.579)" fill="#3f3d56"/><path d="M1041.487,793.828c23.614-1.182,41.7-23.269,40.4-49.334s-21.505-46.236-45.119-45.054-27.32,19.719-26.015,45.784S1017.873,795.01,1041.487,793.828Z" transform="translate(560.773 3175.061)" fill="#f2d12a"/><path d="M921.6,721.683a14.539,14.539,0,1,1-2.346-28.984c8-.648,10.186,5.706,10.834,13.71S929.6,721.035,921.6,721.683Z" transform="translate(580.889 3176.356)" fill="#fff"/><rect width="101.88" height="51.826" transform="translate(1463.861 3792.9)" fill="#f2d12a"/><rect width="101.88" height="51.826" transform="translate(1455.888 3801.315)" fill="none" stroke="#fff" stroke-miterlimit="10" stroke-width="2"/><ellipse cx="31.906" cy="10.016" rx="31.906" ry="10.016" transform="translate(1496.653 3910.738) rotate(-82.281)" fill="#3c3f59"/><ellipse cx="5.279" cy="5.279" rx="5.279" ry="5.279" transform="translate(1371.545 3880.142)" fill="#f2d12a"/><line y1="60.105" transform="translate(1402.687 3912.934)" fill="#3f3d56" stroke="#f2d12a" stroke-miterlimit="10" stroke-width="2"/><ellipse cx="8.5" cy="8.5" rx="8.5" ry="8.5" transform="translate(1394.187 3904.434)" fill="#f2d12a"/><path d="M795.569,787.341s-1.214-26.116-26.106-23.08" transform="translate(607.118 3162.637)" fill="#f2d12a"/></g></svg>