<svg xmlns="http://www.w3.org/2000/svg" xmlns:xlink="http://www.w3.org/1999/xlink" width="731.9" height="142.085" viewBox="0 0 731.9 142.085"><defs><linearGradient id="a" x1="-3.115" y1="2.281" x2="4.877" y2="-1.657" gradientUnits="objectBoundingBox"><stop offset="0.044" stop-color="#3bd0d3"/><stop offset="0.478" stop-color="#29b6d8"/><stop offset="0.926" stop-color="#1482dd"/></linearGradient><linearGradient id="b" x1="-5.737" y1="3.574" x2="2.255" y2="-0.365" xlink:href="#a"/><linearGradient id="c" x1="-4.422" y1="2.926" x2="3.018" y2="-0.741" xlink:href="#a"/><linearGradient id="d" x1="-0.347" y1="1.067" x2="1.24" y2="0.005" xlink:href="#a"/><clipPath id="f"><path d="M1341.013,751.607a11.832,11.832,0,1,0-21.611,9.614,11.707,11.707,0,0,0,2.208,3.128,11.484,11.484,0,0,0,2.181,1.761,11.773,11.773,0,0,0,13.584-.727,9.509,9.509,0,0,0,.771-.658,5.2,5.2,0,0,0,.377-.377,11.527,11.527,0,0,0,2.568-3.97,11.647,11.647,0,0,0,.807-4.286A11.791,11.791,0,0,0,1341.013,751.607Zm-5.688,6.67a5.69,5.69,0,1,1,.438-2.183A5.69,5.69,0,0,1,1335.325,758.276Z" transform="translate(-1318.236 -744.263)" fill="url(#a)"/></clipPath><clipPath id="h"><path d="M1387.162,744.263a11.818,11.818,0,0,0-11.831,11.831,11.739,11.739,0,0,0,3.374,8.255,10.879,10.879,0,0,0,1.158,1.043,11.983,11.983,0,0,0,2.751,1.621,11.8,11.8,0,0,0,10.735-.842c.035-.018.07-.043.105-.061a11.906,11.906,0,0,0,4.276-4.706,11.827,11.827,0,0,0-10.569-17.142Zm4.653,15.109a5.691,5.691,0,1,1,1.043-3.278A5.69,5.69,0,0,1,1391.815,759.372Z" transform="translate(-1375.331 -744.263)" fill="url(#b)"/></clipPath><clipPath id="j"><path d="M1358.848,727.667a12.722,12.722,0,0,0-12.707,12.706,12.57,12.57,0,0,0,1.788,6.486,12.688,12.688,0,0,0,21.848-.018,12.566,12.566,0,0,0,1.779-6.469A12.727,12.727,0,0,0,1358.848,727.667Zm4.171,17.781a6.545,6.545,0,0,1-8.334,0h-.008a6.573,6.573,0,1,1,8.342,0Z" transform="translate(-1346.141 -727.667)" fill="url(#c)"/></clipPath><clipPath id="l"><path d="M1430.6,792.874a25.13,25.13,0,0,1-13.276,22.977,24.863,24.863,0,0,1-8.509,2.743,17.828,17.828,0,0,1-5.5-.166l-1.033-.193-.132-.026-.184-.035-.324-.062c-1.271-.332-2.515-.754-3.751-1.2a2.1,2.1,0,0,1-.219-.086,45.8,45.8,0,0,1-8.439-4.145,45.23,45.23,0,0,1-5.258-3.831l-.1-.078-2.62-2.226-23.083-19.559-6.135-5.2L1351,780.9a.655.655,0,0,0-.088-.07,40.956,40.956,0,0,0-5.012-3.575q-1.329-.8-2.735-1.5c-.1-.053-.192-.105-.289-.149l-3.111-.508-1.429-.228c-.149-.018-.3-.026-.446-.035a1.556,1.556,0,0,0-.193-.008,4.151,4.151,0,0,0-.578-.035,17.161,17.161,0,0,0-1.9,0q-.395.012-.789.053c-.132.008-.271.026-.4.043-.289.026-.57.07-.859.114h-.008c-.264.045-.526.1-.781.15-.192.043-.385.1-.569.139-.457.123-.912.263-1.359.412-.078.035-.158.053-.236.088q-.644.225-1.261.5l-.238.105c-.42.193-.832.394-1.234.613-.027.018-.053.027-.08.045-.14.078-.28.157-.42.244s-.263.158-.394.246h-.009c-.105.061-.209.131-.315.2-.062.035-.131.08-.193.114-.367.255-.728.509-1.086.781-.07.061-.141.113-.211.166-.351.281-.7.578-1.035.877l-.105.105c-.315.3-.621.605-.92.92-.043.044-.088.088-.131.14-.3.324-.588.666-.868,1.017-.061.069-.114.139-.166.209-.28.359-.543.719-.789,1.1l-.105.158c-.236.369-.463.736-.674,1.122l-.08.131c-.219.394-.42.806-.613,1.218-.035.078-.07.166-.105.245-.184.412-.35.833-.508,1.263-.026.07-.043.139-.07.219-.149.42-.28.859-.4,1.3a.3.3,0,0,0-.017.088c-.123.455-.219.92-.307,1.384-.018.088-.027.176-.045.263-.078.455-.141.92-.184,1.393a2.39,2.39,0,0,1-.018.254c-.035.492-.061.982-.061,1.482a19.009,19.009,0,0,0,18.981,18.991h15.494a19,19,0,0,0,1.113,6.134c.184.509.385,1.009.613,1.5.07.149.14.289.211.438a18.207,18.207,0,0,0,1.507,2.533c.113.176.245.351.377.517.289.394.6.781.928,1.148.254.289.517.561.781.824.166.175.332.332.5.49a2.912,2.912,0,0,0,.254.228c.166.149.332.3.508.447a18.554,18.554,0,0,0,1.753,1.306c.245.166.5.324.744.463.271.168.543.326.824.465.009.009.017.009.027.017a.085.085,0,0,1,.043.027c.281.141.578.289.867.42l.009.009c.3.131.6.262.894.377.332.139.674.262,1.025.377.149.053.3.1.447.139s.3.088.446.132c.377.105.754.2,1.14.28.281.062.561.123.85.167a.355.355,0,0,1,.1.018c.3.043.6.088.893.122h.027c.254.027.508.053.762.062.168.018.342.026.517.035.272.008.543.018.824.018s.543-.01.806-.018c.184-.01.367-.018.543-.035s.359-.027.535-.045a1.977,1.977,0,0,0,.236-.018c.3-.034.6-.078.894-.122.061-.009.123-.027.193-.035.227-.035.447-.08.674-.132a.2.2,0,0,0,.07-.008c.141-.035.281-.062.422-.105a4.82,4.82,0,0,0,.508-.123,5.055,5.055,0,0,0,.517-.149c.184-.044.367-.105.543-.166s.332-.105.49-.167c.439-.157.859-.324,1.281-.516.209-.088.412-.185.613-.291s.4-.2.6-.307c.255-.131.509-.271.754-.43.254-.139.509-.3.754-.463a.565.565,0,0,1,.088-.062c.228-.149.447-.307.675-.473.018-.018.043-.027.061-.045l.334-.254c.193-.141.377-.289.56-.447.236-.2.465-.4.693-.613q.367-.328.709-.683c.166-.166.324-.342.482-.517a1.279,1.279,0,0,0,.105-.105,1.037,1.037,0,0,0,.088-.1c.307-.35.6-.71.877-1.086.113-.132.209-.273.307-.412l.051-.08c.062-.078.123-.158.176-.236a1.385,1.385,0,0,0,.08-.114c.1-.158.209-.316.315-.482.132-.211.263-.422.386-.64s.245-.438.367-.666c.228-.447.447-.9.648-1.367a3.089,3.089,0,0,0,.158-.369q.144-.34.263-.683a4.287,4.287,0,0,1,4,2.708h.01a4.223,4.223,0,0,1,.307,1.578,1.378,1.378,0,0,1-.009.2,4.081,4.081,0,0,1-.438,1.648c-.043.088-.1.184-.149.271a25.095,25.095,0,0,1-43.318-.271,24.714,24.714,0,0,1-2.55-6.135h-6.616l-.343-.937v.937h-3.224a25.124,25.124,0,0,1-1.123-50.223,17.427,17.427,0,0,1,2.235.07l2.1.246.2.026.228.027a21.9,21.9,0,0,1,8.615,2.892c.07.035.131.07.2.113a47.991,47.991,0,0,1,4.022,2.734c.658.5,1.306,1,1.937,1.525l3.2,2.708,2.234,1.9,23.47,19.893,4.056,3.444q1.013.853,2.077,1.63c.342.254.693.5,1.052.744a39.71,39.71,0,0,0,5.083,2.97c1.139.562,2.314,1.062,3.5,1.517.867.324,1.752.623,2.638.894.3.088.6.174.91.254.009,0,.027.008.035.008l.457.053.6.053a19.742,19.742,0,0,0,6.432-.6v-.008a18.357,18.357,0,0,0,9.693-6.258c.026-.026.043-.053.061-.07.273-.35.535-.709.789-1.086l.009-.01.026-.053c.236-.342.447-.692.658-1.043.043-.088.088-.166.131-.246.211-.367.4-.744.588-1.13.035-.061.061-.131.1-.2q.237-.525.447-1.078a1.6,1.6,0,0,0,.08-.193c.157-.4.289-.814.411-1.226.027-.088.053-.184.08-.271.114-.42.228-.842.316-1.261,0-.018,0-.027.008-.035.088-.439.158-.886.211-1.324.018-.105.026-.2.043-.3.053-.438.088-.885.105-1.332a1.682,1.682,0,0,0,.008-.2c.009-.2.018-.412.018-.623v-.061c0-.184-.008-.377-.018-.561a1,1,0,0,0,0-.167v-.078c-.026-.588-.078-1.166-.157-1.744,0-.009,0-.027-.009-.035a.3.3,0,0,0-.008-.088A14.765,14.765,0,0,0,1424,789.5a1.326,1.326,0,0,0-.035-.176v-.01c0-.008,0-.008-.009-.018-.061-.262-.131-.516-.2-.779-.018-.043-.027-.088-.045-.14-.053-.193-.114-.377-.184-.57a.41.41,0,0,0-.035-.1.2.2,0,0,0-.018-.07c-.008-.035-.026-.07-.035-.105-.035-.105-.07-.209-.114-.307a2.717,2.717,0,0,0-.088-.262l-.105-.263c-.1-.271-.209-.543-.332-.807s-.246-.525-.386-.789a18.15,18.15,0,0,0-1.814-2.9c-.114-.158-.236-.316-.359-.465-.1-.115-.184-.228-.28-.334-.158-.193-.324-.385-.5-.57s-.342-.359-.509-.534a20.268,20.268,0,0,0-1.779-1.578c-.149-.115-.3-.228-.455-.342-.4-.3-.824-.578-1.254-.851-.35-.219-.709-.428-1.086-.621-.185-.1-.369-.193-.562-.289-.377-.185-.754-.359-1.147-.517-.2-.08-.394-.158-.6-.228s-.394-.149-.6-.211-.4-.139-.613-.192c-.4-.123-.824-.236-1.244-.324s-.842-.176-1.271-.238c-.219-.034-.429-.069-.648-.086a16.307,16.307,0,0,0-1.982-.123,1.809,1.809,0,0,0-.227-.01H1390a19.009,19.009,0,0,0-1.068-6.133,18.751,18.751,0,0,0-3.575-6.135,18.954,18.954,0,0,0-8.291-5.565,18.963,18.963,0,0,0-12.094,0,19.108,19.108,0,0,0-11.286,10.245c-.062.131-.115.262-.175.4-.141.342-.281.693-.4,1.052a4.233,4.233,0,0,1-1.218-.176,4.329,4.329,0,0,1-3.066-3.515,3.735,3.735,0,0,1-.052-.623,3.865,3.865,0,0,1,.174-1.164,4.082,4.082,0,0,1,.255-.658,2.341,2.341,0,0,1,.157-.289,25.368,25.368,0,0,1,7.187-7.8v-.008c.332-.228.674-.455,1.016-.675a25.072,25.072,0,0,1,26.913,0c.342.211.675.43,1,.666a25.132,25.132,0,0,1,7.369,8.107,24.631,24.631,0,0,1,2.5,6.135h9.683a25.885,25.885,0,0,1,16.878,6.309h.009a24.909,24.909,0,0,1,8.01,13.014v.008h.008a22.561,22.561,0,0,1,.438,2.331A23.731,23.731,0,0,1,1430.6,792.874Z" transform="translate(-1311.43 -749.739)" fill="url(#d)"/></clipPath><linearGradient id="m" y1="0.5" x2="13.347" y2="0.5" gradientUnits="objectBoundingBox"><stop offset="0.463" stop-color="#386cb0"/><stop offset="0.524" stop-color="#4488be"/><stop offset="0.606" stop-color="#51a7ce"/><stop offset="0.692" stop-color="#5bbfda"/><stop offset="0.783" stop-color="#63d0e3"/><stop offset="0.881" stop-color="#67dae8"/><stop offset="1" stop-color="#69deea"/></linearGradient><linearGradient id="n" x1="-1.107" y1="0.5" x2="12.135" y2="0.5" xlink:href="#m"/><linearGradient id="o" x1="-7.121" y1="0.5" x2="35.555" y2="0.5" xlink:href="#m"/><linearGradient id="p" x1="-6.005" y1="0.5" x2="30.407" y2="0.5" xlink:href="#m"/><linearGradient id="q" x1="-2.39" y1="0.5" x2="9.881" y2="0.5" xlink:href="#m"/><linearGradient id="r" x1="-3.204" y1="0.5" x2="12.522" y2="0.5" xlink:href="#m"/><linearGradient id="s" x1="-5.834" y1="0.5" x2="6.845" y2="0.5" xlink:href="#m"/><linearGradient id="t" x1="-7.865" y1="0.5" x2="6.764" y2="0.5" xlink:href="#m"/><linearGradient id="u" x1="-7.457" y1="0.5" x2="4.882" y2="0.5" xlink:href="#m"/><linearGradient id="v" x1="-9.135" y1="0.5" x2="4.107" y2="0.5" xlink:href="#m"/><linearGradient id="w" x1="-10.237" y1="0.5" x2="3.004" y2="0.5" xlink:href="#m"/><linearGradient id="x" x1="-10.516" y1="0.5" x2="1.823" y2="0.5" xlink:href="#m"/><linearGradient id="y" x1="-13.629" y1="0.5" x2="1" y2="0.5" xlink:href="#m"/><linearGradient id="z" x1="-2.811" y1="0.5" x2="7.138" y2="0.5" xlink:href="#m"/><linearGradient id="aa" x1="-2.812" y1="0.5" x2="7.139" y2="0.5" xlink:href="#m"/><linearGradient id="ab" x1="-2.976" y1="0.5" x2="7.246" y2="0.5" gradientUnits="objectBoundingBox"><stop offset="0.005" stop-color="#2c5385"/><stop offset="0.037" stop-color="#305c8c"/><stop offset="0.14" stop-color="#3b749e"/><stop offset="0.248" stop-color="#4285ab"/><stop offset="0.365" stop-color="#478fb3"/><stop offset="0.507" stop-color="#4993b6"/><stop offset="0.539" stop-color="#4d9cbd"/><stop offset="0.64" stop-color="#58b4cf"/><stop offset="0.746" stop-color="#5fc5db"/><stop offset="0.86" stop-color="#64cfe3"/><stop offset="1" stop-color="#66d3e6"/></linearGradient><linearGradient id="ac" x1="-2.976" y1="0.5" x2="7.247" y2="0.5" xlink:href="#ab"/><linearGradient id="ad" x1="-3.083" y1="1.351" x2="12.086" y2="-2.252" xlink:href="#a"/><linearGradient id="ae" x1="-2.227" y1="0.79" x2="9.61" y2="-0.422" xlink:href="#a"/><linearGradient id="af" x1="-1.562" y1="0.808" x2="4.015" y2="0.078" xlink:href="#a"/><linearGradient id="ag" x1="-5.636" y1="1.106" x2="6.594" y2="-0.098" xlink:href="#a"/><linearGradient id="ah" x1="-7.626" y1="1.191" x2="6.485" y2="-0.007" xlink:href="#a"/><linearGradient id="ai" x1="-7.247" y1="1.286" x2="4.655" y2="0.079" xlink:href="#a"/><linearGradient id="aj" x1="-8.9" y1="1.419" x2="3.873" y2="0.185" xlink:href="#a"/><linearGradient id="ak" x1="-10.011" y1="1.232" x2="2.76" y2="0.343" xlink:href="#a"/><linearGradient id="al" x1="-10.278" y1="1.593" x2="1.624" y2="0.386" xlink:href="#a"/><linearGradient id="am" x1="-13.337" y1="1.676" x2="0.774" y2="0.478" xlink:href="#a"/><linearGradient id="an" x1="-6.579" y1="0.717" x2="34.585" y2="-0.544" xlink:href="#a"/><linearGradient id="ao" x1="-0.945" y1="0.65" x2="11.827" y2="-0.583" xlink:href="#a"/><linearGradient id="ap" x1="0.152" y1="0.522" x2="13.026" y2="-0.711" xlink:href="#a"/><linearGradient id="aq" x1="-5.74" y1="1.147" x2="29.381" y2="-2.496" xlink:href="#a"/></defs><g transform="translate(-712 -7350.41)"><g transform="translate(712 7350.411)"><g transform="translate(0 0)"><path d="M1396.3,805.91c.92-.6,1.8-1.234,2.655-1.918Z" transform="translate(-1269.409 -688.646)" fill="#fff"/><path d="M1332.757,801.115h-.342v-.937Z" transform="translate(-1291.814 -689.984)" fill="#fff"/><path d="M1363.471,774.694l-5.634-4.775-5.651-4.792a6.816,6.816,0,0,1,4.54-1.761,6.6,6.6,0,0,1,2.313.42,6.694,6.694,0,0,1,4.013,4.057,6.477,6.477,0,0,1,.377,2.076.464.464,0,0,1,.008.105Z" transform="translate(-1284.881 -702.894)" fill="#fff"/><path d="M1358.463,763.786h-4.636a6.6,6.6,0,0,1,4.636,0Z" transform="translate(-1284.305 -702.894)" fill="#fff"/><path d="M1332.757,801.115h-.342v-.937Z" transform="translate(-1291.814 -689.984)" fill="#fff"/><path d="M1446.027,803.4a37.051,37.051,0,0,0-12.4-26.31,23.856,23.856,0,0,0,3.208-11.986,24.077,24.077,0,0,0-37.736-19.844c.051-.56.069-1.121.069-1.691a24.97,24.97,0,1,0-49.939,0c0,.57.018,1.139.069,1.7a24.075,24.075,0,0,0-34.668,31.6,37.414,37.414,0,0,0,25.1,65.124h2.086a37.382,37.382,0,0,0,64.493.429c.131-.228.254-.447.377-.675a28.923,28.923,0,0,0,3.136.167,29.257,29.257,0,0,0,3.759-.246,37.331,37.331,0,0,0,15.666-5.809c.92-.6,1.8-1.234,2.655-1.918A37.281,37.281,0,0,0,1446.027,803.4Zm-44.219-42.817a11.83,11.83,0,0,1,22.762,4.521,11.733,11.733,0,0,1-1.261,5.31,11.891,11.891,0,0,1-4.275,4.7c-.035.018-.07.045-.105.062a11.8,11.8,0,0,1-10.733.841,12.068,12.068,0,0,1-2.751-1.621,10.9,10.9,0,0,1-1.156-1.043,11.814,11.814,0,0,1-2.48-12.775ZM1374.2,730.861a12.725,12.725,0,0,1,12.7,12.7,12.557,12.557,0,0,1-1.779,6.466,12.807,12.807,0,0,1-5.44,4.995,12.7,12.7,0,1,1-5.484-24.165Zm-38.56,22.412a11.832,11.832,0,0,1,11.828,11.828,11.78,11.78,0,0,1-3.374,8.254,5.036,5.036,0,0,1-.377.377,9.26,9.26,0,0,1-.77.656,11.769,11.769,0,0,1-13.582.727,11.435,11.435,0,0,1-2.181-1.76,11.816,11.816,0,0,1,8.455-20.082Zm84.845,73.492a24.864,24.864,0,0,1-8.507,2.743,17.869,17.869,0,0,1-5.5-.167l-1.033-.192-.131-.027-.185-.035-.324-.061c-1.27-.334-2.513-.754-3.75-1.2a2.124,2.124,0,0,1-.219-.088,46.029,46.029,0,0,1-13.695-7.973l-.1-.078-2.621-2.226L1361.348,797.9l-6.134-5.195-1.035-.886a.662.662,0,0,0-.086-.069,40.872,40.872,0,0,0-5.012-3.575q-1.327-.8-2.734-1.5c-.1-.053-.192-.105-.289-.149l-3.109-.509-1.429-.227c-.149-.018-.3-.027-.447-.035a1.312,1.312,0,0,0-.192-.009c-.193-.018-.386-.026-.578-.035a17.156,17.156,0,0,0-1.9,0c-.263.01-.526.027-.789.053-.131.009-.272.027-.4.045-.289.026-.57.07-.859.113h-.008c-.263.043-.527.1-.781.149-.192.045-.385.1-.569.141-.457.123-.912.263-1.359.412-.078.035-.156.053-.236.088q-.644.223-1.261.5l-.236.1c-.42.193-.832.394-1.236.613-.025.018-.052.027-.078.045-.141.078-.281.158-.42.244s-.263.158-.395.246h-.009c-.105.062-.209.131-.315.2-.062.035-.133.08-.193.115-.367.254-.727.508-1.086.779-.07.061-.14.113-.21.166-.351.281-.7.578-1.033.877l-.105.105q-.474.446-.92.92a1.9,1.9,0,0,0-.132.14c-.3.324-.586.666-.867,1.016-.061.07-.113.141-.166.211-.281.359-.543.719-.789,1.1l-.105.157c-.236.369-.465.736-.674,1.122l-.08.131c-.219.395-.42.806-.613,1.218-.035.078-.07.166-.105.245-.184.412-.35.832-.508,1.261-.026.07-.043.141-.07.219-.148.421-.28.859-.4,1.3a.3.3,0,0,0-.018.088c-.123.457-.219.92-.307,1.384-.017.088-.027.176-.043.263-.08.455-.14.92-.185,1.393a2.417,2.417,0,0,1-.018.254c-.035.492-.061.982-.061,1.482a19,19,0,0,0,18.977,18.985h15.49a19.041,19.041,0,0,0,1.113,6.134c.184.508.386,1.008.614,1.5.07.149.14.289.211.438a18.254,18.254,0,0,0,1.507,2.533c.113.176.244.35.377.517.289.394.6.779.928,1.147.254.289.517.562.779.824.167.176.334.334.5.49a3.119,3.119,0,0,0,.254.228c.167.149.334.3.508.447a18.523,18.523,0,0,0,1.753,1.3c.244.158.49.316.744.465.271.158.543.316.824.465.008.008.018.008.026.018a.077.077,0,0,1,.045.026c.28.141.578.289.867.421l.01.008c.3.132.6.263.893.377.333.14.675.263,1.025.377.149.053.3.1.447.141s.3.088.447.131c.377.105.754.2,1.139.281.281.061.56.123.85.166a.354.354,0,0,1,.1.017c.3.043.6.088.893.123h.027c.254.026.508.053.762.061.166.018.342.027.518.035.271.009.543.018.824.018s.543-.008.8-.018c.184-.008.369-.018.543-.035s.359-.026.535-.043a2.272,2.272,0,0,0,.236-.018c.3-.035.6-.08.894-.123.061-.009.123-.026.193-.035.227-.035.446-.078.674-.131a.177.177,0,0,0,.07-.01c.141-.035.28-.061.42-.105.176-.035.342-.078.509-.122a5.037,5.037,0,0,0,.516-.15,5.484,5.484,0,0,0,.543-.166c.168-.053.334-.105.492-.166.438-.158.858-.324,1.279-.517.209-.088.412-.184.613-.289s.4-.2.6-.307c.255-.131.509-.281.754-.429s.508-.307.754-.465a.619.619,0,0,1,.088-.061c.228-.149.447-.307.674-.473.018-.018.045-.027.062-.045.114-.088.219-.166.333-.254.193-.141.377-.289.56-.447.238-.2.465-.4.693-.613q.369-.328.709-.684c.167-.166.324-.342.482-.516a1.13,1.13,0,0,0,.105-.105c.026-.027.061-.062.088-.1.306-.35.6-.709.876-1.086a4.494,4.494,0,0,0,.305-.412l.052-.078c.062-.08.123-.158.176-.236a1.157,1.157,0,0,0,.08-.115c.1-.157.209-.315.315-.481.131-.211.263-.422.386-.64s.245-.438.367-.666c.228-.447.447-.9.648-1.367a3.607,3.607,0,0,0,.158-.367c.1-.228.184-.457.262-.683a4.286,4.286,0,0,1,4,2.707h.01a4.224,4.224,0,0,1,.307,1.578,1.359,1.359,0,0,1-.01.2,4.074,4.074,0,0,1-.438,1.646c-.044.088-.1.185-.148.271a25.088,25.088,0,0,1-43.309-.271,24.745,24.745,0,0,1-2.55-6.132h-10.18a25.118,25.118,0,0,1-1.121-50.212,17.131,17.131,0,0,1,2.234.07l2.1.244.2.027.227.026a21.939,21.939,0,0,1,8.614,2.892c.07.035.131.07.2.114a47.647,47.647,0,0,1,4.021,2.734c.658.5,1.306,1,1.937,1.525l3.2,2.707,2.234,1.9,23.463,19.888,4.056,3.444q1.013.853,2.078,1.629c.342.254.691.5,1.051.744a39.692,39.692,0,0,0,5.081,2.97c1.14.562,2.314,1.06,3.5,1.517.868.324,1.753.621,2.638.893.3.088.6.176.912.254.008,0,.026.01.034.01l.456.053.6.053a19.767,19.767,0,0,0,6.431-.6V822.6a18.34,18.34,0,0,0,9.69-6.255c.027-.027.045-.053.062-.07.272-.351.534-.71.788-1.087l.01-.008.026-.053c.238-.342.447-.692.658-1.043.043-.088.088-.166.131-.246.211-.367.4-.744.587-1.129.035-.062.061-.132.1-.2q.237-.525.447-1.077a1.7,1.7,0,0,0,.078-.193c.158-.4.289-.815.412-1.226.027-.088.052-.184.08-.271.114-.422.227-.842.315-1.262,0-.017,0-.027.01-.035.086-.439.157-.885.209-1.324.018-.105.027-.2.044-.3.053-.439.088-.886.105-1.332a1.653,1.653,0,0,0,.008-.2c.01-.2.018-.411.018-.621v-.061c0-.185-.008-.377-.018-.562a.968.968,0,0,0,0-.166V803.8c-.026-.588-.078-1.166-.158-1.744a.053.053,0,0,0-.008-.035.258.258,0,0,0-.009-.088c-.079-.517-.166-1.025-.289-1.516a1.181,1.181,0,0,0-.035-.176v-.008c0-.01,0-.01-.008-.018-.062-.263-.131-.525-.211-.789-.07-.236-.14-.465-.219-.7a.382.382,0,0,0-.035-.1c-.052-.167-.105-.324-.166-.482-.027-.088-.053-.176-.088-.263l-.105-.262c-.105-.271-.219-.535-.332-.806s-.246-.525-.386-.789a18.258,18.258,0,0,0-1.813-2.9c-.115-.158-.238-.316-.359-.465-.1-.113-.185-.227-.281-.332-.158-.193-.324-.386-.5-.57s-.342-.359-.508-.535a20.419,20.419,0,0,0-1.779-1.576c-.149-.115-.3-.228-.455-.342-.4-.3-.824-.578-1.254-.849-.35-.22-.709-.43-1.086-.623-.184-.1-.367-.193-.561-.289-.377-.184-.754-.359-1.148-.517-.2-.078-.395-.157-.6-.227s-.395-.15-.6-.211-.412-.131-.613-.193c-.4-.123-.824-.236-1.244-.324s-.842-.166-1.271-.236c-.211-.035-.429-.061-.648-.088a16.563,16.563,0,0,0-1.98-.123.206.206,0,0,0,.07.009c-.254-.009-.508-.017-.762-.017h-15.017a18.981,18.981,0,0,0-1.07-6.134,18.728,18.728,0,0,0-3.574-6.132,18.929,18.929,0,0,0-8.289-5.564,18.949,18.949,0,0,0-12.09,0,19.115,19.115,0,0,0-11.285,10.241c-.062.132-.114.263-.175.4-.141.342-.28.692-.4,1.051a4.234,4.234,0,0,1-1.218-.174,4.329,4.329,0,0,1-3.066-3.515,3.719,3.719,0,0,1-.052-.621,3.83,3.83,0,0,1,.176-1.166,3.991,3.991,0,0,1,.254-.656,2.242,2.242,0,0,1,.157-.289,25.37,25.37,0,0,1,7.186-7.8v-.008c.332-.228.674-.455,1.016-.675a25.068,25.068,0,0,1,26.906,0c.343.211.675.43,1,.666a25.122,25.122,0,0,1,7.368,8.106,24.565,24.565,0,0,1,2.5,6.132h9.682a25.882,25.882,0,0,1,16.874,6.309h.01a24.893,24.893,0,0,1,8.007,13.01v.01h.01a22.865,22.865,0,0,1,.438,2.33,24.061,24.061,0,0,1,.228,2.646A25.128,25.128,0,0,1,1420.487,826.764Zm-42.038,1.718a6.637,6.637,0,0,1-2.33,1.244,6.544,6.544,0,0,1-3.847,0,6.71,6.71,0,0,1-4.4-4.144,6.866,6.866,0,0,1-.385-1.99,1.423,1.423,0,0,1-.01-.2l-.07-4.267,5.274,4.468Zm-20.239-17.155h-18.478a6.72,6.72,0,0,1-6.711-6.72c0-.158.01-.308.018-.465.009-.1.017-.2.027-.316l.025-.219c.018-.088.035-.184.053-.271a2.139,2.139,0,0,1,.07-.324l.078-.307c.017-.053.14-.42.15-.455.043-.1.086-.2.131-.316l.088-.184a1.508,1.508,0,0,1,.088-.184l.184-.324a2.7,2.7,0,0,1,.166-.271l.114-.176c.062-.088.123-.166.185-.246l.078-.105c.105-.131.2-.245.307-.367l.026-.017c.14-.149.281-.289.429-.43l.035-.043c.088-.07.167-.141.254-.211.062-.043.115-.088.176-.131s.105-.08.149-.115l.394-.254c.052-.035.1-.061.15-.1l.473-.236.061-.035c.01-.01.211-.1.211-.1a1.47,1.47,0,0,1,.271-.1l.385-.132c.1-.035.2-.061.3-.1l.149-.035a6.132,6.132,0,0,1,1.113-.088c.211,0,.429.009.658.018l2.1.342.631.369c.07.043.14.078.2.122a28.024,28.024,0,0,1,3.294,2.375l1.033.885,1.8,1.525,6.134,5.2Zm11.451-30.5a6.816,6.816,0,0,1,4.54-1.761,6.6,6.6,0,0,1,2.313.42,6.694,6.694,0,0,1,4.013,4.057,6.477,6.477,0,0,1,.377,2.076.464.464,0,0,1,.008.105l.035,4.669-5.634-4.775Zm35.783,28.931c-.254-.105-.5-.22-.746-.342a27.853,27.853,0,0,1-4.3-2.62c-.369-.271-.736-.551-1.087-.841a3.451,3.451,0,0,1-.28-.227l-5.853-4.96-3.4-2.882H1408.2a7.383,7.383,0,0,1,.981.07,7.089,7.089,0,0,1,6,5.091l.008.018.008.043.018.07c.009.035.017.07.027.115v.324l-.2,2.549-.027.289-.026.394-.088.211c-.035.105-.078.209-.123.315l-.026.053c-.053.105-.105.219-.167.324,0,0-.139.263-.174.316a.542.542,0,0,1-.044.07l-.289.428-.105.132c-.139.176-.3.342-.455.508-.061.053-.123.1-.176.149-.113.1-.227.2-.35.3-.07.053-.148.105-.228.158-.114.078-.227.157-.342.227-.088.053-.184.1-.271.141a2.622,2.622,0,0,1-.35.184c-.1.044-.2.08-.3.123-.123.053-.246.1-.367.14-.105.035-.21.061-.316.1-.131.035-.254.07-.385.1-.115.026-.219.043-.334.061-.131.026-.262.043-.394.061-.018,0-.035.01-.053.01h-.034c-.088.008-.176.008-.263.018l-.316.026c-.008,0-.018-.008-.035-.008-.209-.035-.42-.062-.631-.1a.36.36,0,0,1-.043-.008c-.289-.088-.578-.2-.859-.307-.166-.061-.342-.114-.508-.176C1406.452,810.2,1405.944,809.986,1405.444,809.759Z" transform="translate(-1302.356 -718.595)" fill="#fff"/><path d="M1350.248,790.722h-18.478a6.72,6.72,0,0,1-6.711-6.72c0-.158.01-.308.018-.465.009-.1.017-.2.027-.316l.025-.219c.018-.088.035-.184.053-.271a2.139,2.139,0,0,1,.07-.324l.078-.307c.017-.053.14-.42.15-.455.043-.1.086-.2.131-.316l.088-.184a1.508,1.508,0,0,1,.088-.184l.184-.324a2.7,2.7,0,0,1,.166-.271l.114-.176c.062-.088.123-.166.185-.246l.078-.105c.105-.131.2-.245.307-.367l.026-.017c.14-.149.281-.289.429-.43l.035-.043c.088-.07.167-.141.254-.211.062-.043.115-.088.176-.131s.105-.08.149-.115l.394-.254c.052-.035.1-.061.15-.1l.473-.236.061-.035c.01-.01.211-.1.211-.1a1.47,1.47,0,0,1,.271-.1l.385-.132c.1-.035.2-.061.3-.1l.149-.035a6.132,6.132,0,0,1,1.113-.088c.211,0,.429.009.658.018l2.1.342.631.369c.07.043.14.078.2.122a28.024,28.024,0,0,1,3.294,2.375l1.033.885,1.8,1.525,6.134,5.2Z" transform="translate(-1294.394 -697.989)" fill="#fff"/><path d="M1341.119,782.985v7.737h-9.348a6.72,6.72,0,0,1-6.711-6.72c0-.158.01-.308.018-.465.009-.1.017-.2.027-.316l.025-.219c.018-.088.035-.184.053-.271a2.139,2.139,0,0,1,.07-.324l.078-.307c.017-.053.14-.42.15-.455.043-.1.086-.2.131-.316l.088-.184a1.508,1.508,0,0,1,.088-.184l.184-.324a2.7,2.7,0,0,1,.166-.271l.114-.176c.062-.088.123-.166.185-.246l.078-.105c.105-.131.2-.245.307-.367l.026-.017c.14-.149.281-.289.429-.43l.035-.043c.088-.07.167-.141.254-.211.062-.043.115-.088.176-.131s.105-.08.149-.115l.394-.254c.052-.035.1-.061.15-.1l.473-.236.061-.035c.01-.01.211-.1.211-.1a1.47,1.47,0,0,1,.271-.1l.385-.132c.1-.035.2-.061.3-.1l.149-.035a6.132,6.132,0,0,1,1.113-.088c.211,0,.429.009.658.018l2.1.342.631.369c.07.043.14.078.2.122a28.024,28.024,0,0,1,3.294,2.375l1.033.885Z" transform="translate(-1294.394 -697.989)" fill="#fff"/><path d="M1392.541,782.706v.324l-.2,2.549-.027.289-.026.394-.088.211c-.035.105-.078.209-.123.315l-.026.053c-.053.105-.105.219-.167.324,0,0-.139.263-.174.316a.494.494,0,0,1-.044.07l-.289.428-.105.132c-.139.176-.3.342-.455.508-.061.053-.123.1-.176.149-.114.1-.227.2-.35.3-.07.053-.149.105-.228.158-.114.078-.227.157-.342.227-.088.053-.184.1-.271.141a2.607,2.607,0,0,1-.35.184c-.1.044-.2.08-.3.123-.123.053-.246.1-.367.14-.105.035-.211.061-.316.1-.131.035-.254.07-.385.1-.115.026-.219.043-.334.061-.131.026-.262.043-.395.061-.017,0-.035.01-.052.01h-.034c-.088.008-.176.008-.263.018l-.316.026c-.008,0-.018-.008-.035-.008-.209-.035-.42-.062-.631-.1a.36.36,0,0,1-.043-.008c-.289-.088-.578-.2-.859-.307-.166-.061-.342-.114-.508-.176-.508-.2-1.016-.412-1.516-.639-.254-.105-.5-.22-.746-.342a27.876,27.876,0,0,1-4.3-2.62c-.369-.271-.736-.551-1.087-.841a3.538,3.538,0,0,1-.28-.227l-5.853-4.96-3.4-2.882H1385.5a7.386,7.386,0,0,1,.981.07,7.089,7.089,0,0,1,6,5.091l.008.018.008.043.018.07C1392.523,782.626,1392.531,782.661,1392.541,782.706Z" transform="translate(-1279.657 -698.008)" fill="#fff"/><path d="M1381.477,768.236c-.254-.009-.508-.017-.762-.017h.463a2.152,2.152,0,0,1,.228.008A.206.206,0,0,0,1381.477,768.236Z" transform="translate(-1274.876 -701.192)" fill="#fff"/><path d="M1394.425,777.976c-.053-.167-.105-.324-.166-.482.043.1.078.2.113.307.009.035.027.07.035.105A.186.186,0,0,1,1394.425,777.976Z" transform="translate(-1270.126 -697.939)" fill="#fff"/><path d="M1394.837,779.412c-.062-.263-.131-.525-.211-.789-.07-.236-.141-.465-.219-.7.07.193.131.377.184.57.018.053.027.1.045.139C1394.707,778.895,1394.775,779.149,1394.837,779.412Z" transform="translate(-1270.073 -697.789)" fill="#fff"/><path d="M1390.066,782.706v.324l-.2,2.549-.027.289-.026.394-.088.211c-.035.105-.078.209-.123.315l-.026.053c-.053.105-.105.219-.167.324,0,0-.139.263-.174.316a.517.517,0,0,1-.044.07l-.289.428-.105.132c-.139.176-.3.342-.455.508-.061.053-.123.1-.176.149-.113.1-.227.2-.35.3-.07.053-.149.105-.228.158-.114.078-.227.157-.342.227-.088.053-.184.1-.271.141a2.614,2.614,0,0,1-.35.184c-.1.044-.2.08-.3.123-.123.053-.246.1-.367.14-.105.035-.211.061-.316.1-.131.035-.254.07-.385.1-.115.026-.219.043-.334.061-.131.026-.262.043-.394.061-.017,0-.035.01-.053.01h-.034c-.088.008-.176.008-.263.018l-.316.026c-.008,0-.018-.008-.035-.008-.209-.035-.42-.062-.631-.1a.36.36,0,0,1-.043-.008c-.289-.088-.578-.2-.859-.307-.166-.061-.342-.114-.508-.176-.508-.2-1.016-.412-1.516-.639-.254-.105-.5-.22-.746-.342a27.865,27.865,0,0,1-4.3-2.62c-.369-.271-.736-.551-1.087-.841V777.3h8.885a7.384,7.384,0,0,1,.981.07,7.089,7.089,0,0,1,6,5.091l.008.018.008.043.018.07C1390.048,782.626,1390.056,782.661,1390.066,782.706Z" transform="translate(-1277.182 -698.008)" fill="#fff"/><path d="M1362,772.993l-5.634-4.775h5.591a.464.464,0,0,1,.008.105Z" transform="translate(-1283.413 -701.192)" fill="#fff"/><path d="M1370.479,777.3v2.882l-3.4-2.882Z" transform="translate(-1279.657 -698.008)" fill="#fff"/><path d="M1332.757,801.115h-.342v-.937Z" transform="translate(-1291.814 -689.984)" fill="#fff"/><path d="M1361.558,802.381a6.637,6.637,0,0,1-2.33,1.244,6.544,6.544,0,0,1-3.847,0,6.71,6.71,0,0,1-4.4-4.144,6.87,6.87,0,0,1-.385-1.99,1.442,1.442,0,0,1-.009-.2l-.07-4.267,5.274,4.468Z" transform="translate(-1285.465 -692.493)" fill="#fff"/><path d="M1347.671,790.5h-15.261V777.98a28.016,28.016,0,0,1,3.294,2.375l1.033.885,1.8,1.525,6.134,5.2Z" transform="translate(-1291.816 -697.769)" fill="#fff"/><path d="M1344.486,787.909h-3v-2.541Z" transform="translate(-1288.632 -695.178)" fill="#fff"/><path d="M1355.793,797.491H1350.6a1.442,1.442,0,0,1-.009-.2l-.07-4.267Z" transform="translate(-1285.465 -692.493)" fill="#fff"/><path d="M1361.558,802.381a6.637,6.637,0,0,1-2.33,1.244,6.544,6.544,0,0,1-3.847,0,6.71,6.71,0,0,1-4.4-4.144,6.87,6.87,0,0,1-.385-1.99,1.442,1.442,0,0,1-.009-.2l-.07-4.267,5.274,4.468Z" transform="translate(-1285.465 -692.493)" fill="#fff"/><path d="M1357.966,800.872a6.544,6.544,0,0,1-3.847,0Z" transform="translate(-1284.203 -689.74)" fill="#fff"/><path d="M1394.589,778.483a.008.008,0,0,1-.01-.008c-.008-.045-.026-.088-.035-.131C1394.562,778.4,1394.571,778.44,1394.589,778.483Z" transform="translate(-1270.026 -697.641)" fill="#fff"/><path d="M1381.477,768.236c-.254-.009-.508-.017-.762-.017h.463a2.152,2.152,0,0,1,.228.008A.206.206,0,0,0,1381.477,768.236Z" transform="translate(-1274.876 -701.192)" fill="#fff"/><path d="M1394.425,777.976c-.053-.167-.105-.324-.166-.482.043.1.078.2.113.307.009.035.027.07.035.105A.186.186,0,0,1,1394.425,777.976Z" transform="translate(-1270.126 -697.939)" fill="#fff"/><path d="M1394.837,779.412c-.062-.263-.131-.525-.211-.789-.07-.236-.141-.465-.219-.7.07.193.131.377.184.57.018.053.027.1.045.139C1394.707,778.895,1394.775,779.149,1394.837,779.412Z" transform="translate(-1270.073 -697.789)" fill="#fff"/><path d="M1395.047,780.69a14.475,14.475,0,0,0-.289-1.516C1394.881,779.664,1394.969,780.172,1395.047,780.69Z" transform="translate(-1269.951 -697.35)" fill="#fff"/><path d="M1334.171,754.5a5.7,5.7,0,1,1-5.7-5.694A5.657,5.657,0,0,1,1334.171,754.5Z" transform="translate(-1295.193 -707.999)" fill="#fff"/><path d="M1391.252,754.5a5.627,5.627,0,0,1-1.043,3.277,5.688,5.688,0,1,1,1.043-3.277Z" transform="translate(-1275.174 -707.999)" fill="#fff"/><path d="M1381.407,768.226a2.152,2.152,0,0,0-.228-.008h-.463c.254,0,.508.008.762.017A.206.206,0,0,1,1381.407,768.226Z" transform="translate(-1274.876 -701.192)" fill="#fff"/><path d="M1363.821,738.788a6.56,6.56,0,0,1-10.733,5.073h-.009a6.57,6.57,0,1,1,10.742-5.073Z" transform="translate(-1285.409 -713.818)" fill="#fff"/><path d="M1350.248,790.722h-18.478a6.72,6.72,0,0,1-6.711-6.72c0-.158.01-.308.018-.465.009-.1.017-.2.027-.316l.025-.219c.018-.088.035-.184.053-.271a2.139,2.139,0,0,1,.07-.324l.078-.307c.017-.053.14-.42.15-.455.043-.1.086-.2.131-.316l.088-.184a1.508,1.508,0,0,1,.088-.184l.184-.324a2.7,2.7,0,0,1,.166-.271l.114-.176c.062-.088.123-.166.185-.246l.078-.105c.105-.131.2-.245.307-.367l.026-.017c.14-.149.281-.289.429-.43l.035-.043c.088-.07.167-.141.254-.211.062-.043.115-.088.176-.131s.105-.08.149-.115l.394-.254c.052-.035.1-.061.15-.1l.473-.236.061-.035c.01-.01.211-.1.211-.1a1.47,1.47,0,0,1,.271-.1l.385-.132c.1-.035.2-.061.3-.1l.149-.035a6.132,6.132,0,0,1,1.113-.088c.211,0,.429.009.658.018l2.1.342.631.369c.07.043.14.078.2.122a28.024,28.024,0,0,1,3.294,2.375l1.033.885,1.8,1.525,6.134,5.2Z" transform="translate(-1294.394 -697.989)" fill="#fff"/><path d="M1382.41,777.369a6.469,6.469,0,0,0-3.732,1.718V777.3h2.751A7.384,7.384,0,0,1,1382.41,777.369Z" transform="translate(-1275.59 -698.008)" fill="#fff"/><path d="M1382.849,787.424c-.088.008-.176.008-.263.018-.113.008-.228.018-.351.018-.209-.035-.42-.062-.631-.1-.3-.1-.6-.2-.9-.315-.166-.061-.342-.114-.508-.176-.508-.2-1.016-.412-1.516-.639v-.552A6.481,6.481,0,0,0,1382.849,787.424Z" transform="translate(-1275.59 -695.068)" fill="#fff"/><path d="M1361.558,802.381a6.637,6.637,0,0,1-2.33,1.244,6.544,6.544,0,0,1-3.847,0,6.71,6.71,0,0,1-4.4-4.144,6.87,6.87,0,0,1-.385-1.99,1.442,1.442,0,0,1-.009-.2l-.07-4.267,5.274,4.468Z" transform="translate(-1285.465 -692.493)" fill="#fff"/><path d="M1382.745,779.087a6.489,6.489,0,0,0,0,9.532v.552c-.254-.105-.5-.22-.746-.342a27.876,27.876,0,0,1-4.3-2.62c-.369-.271-.736-.551-1.087-.841a3.538,3.538,0,0,1-.28-.227l-5.853-4.96-3.4-2.882h15.665Z" transform="translate(-1279.657 -698.008)" fill="#fff"/><path d="M1363.471,774.694l-5.634-4.775-5.651-4.792a6.816,6.816,0,0,1,4.54-1.761,6.6,6.6,0,0,1,2.313.42,6.694,6.694,0,0,1,4.013,4.057,6.477,6.477,0,0,1,.377,2.076.464.464,0,0,1,.008.105Z" transform="translate(-1284.881 -702.894)" fill="#fff"/><path d="M1332.415,800.178v.937h.342Z" transform="translate(-1291.814 -689.984)" fill="#fff"/><path d="M1381.407,768.226c-.228-.008-.465-.008-.692-.008h.463A2.152,2.152,0,0,1,1381.407,768.226Z" transform="translate(-1274.876 -701.192)" fill="#fff"/><path d="M1394.425,777.976c-.053-.167-.105-.324-.166-.482.043.1.078.2.113.307.009.035.027.07.035.105A.186.186,0,0,1,1394.425,777.976Z" transform="translate(-1270.126 -697.939)" fill="#fff"/><path d="M1394.79,779.264c-.062-.263-.131-.525-.211-.789-.008-.045-.026-.088-.035-.131.018.053.027.1.045.139C1394.659,778.746,1394.728,779,1394.79,779.264Z" transform="translate(-1270.026 -697.641)" fill="#fff"/><path d="M1394.627,778.623c-.07-.236-.141-.465-.219-.7.07.193.131.377.184.57C1394.6,778.535,1394.619,778.578,1394.627,778.623Z" transform="translate(-1270.073 -697.789)" fill="#fff"/><path d="M1381.477,768.236c-.254-.009-.508-.017-.762-.017.227,0,.463,0,.692.008A.206.206,0,0,0,1381.477,768.236Z" transform="translate(-1274.876 -701.192)" fill="#fff"/></g><g transform="translate(12.256 12.254)"><g transform="translate(9.193 22.416)"><path d="M1341.013,751.607a11.832,11.832,0,1,0-21.611,9.614,11.707,11.707,0,0,0,2.208,3.128,11.484,11.484,0,0,0,2.181,1.761,11.773,11.773,0,0,0,13.584-.727,9.509,9.509,0,0,0,.771-.658,5.2,5.2,0,0,0,.377-.377,11.527,11.527,0,0,0,2.568-3.97,11.647,11.647,0,0,0,.807-4.286A11.791,11.791,0,0,0,1341.013,751.607Zm-5.688,6.67a5.69,5.69,0,1,1,.438-2.183A5.69,5.69,0,0,1,1335.325,758.276Z" transform="translate(-1318.236 -744.263)" fill="url(#a)"/><g clip-path="url(#f)"><rect width="343.662" height="193.31" transform="translate(-121.435 -60.282)" fill="none"/></g></g><g transform="translate(86.311 22.416)"><path d="M1387.162,744.263a11.818,11.818,0,0,0-11.831,11.831,11.739,11.739,0,0,0,3.374,8.255,10.879,10.879,0,0,0,1.158,1.043,11.983,11.983,0,0,0,2.751,1.621,11.8,11.8,0,0,0,10.735-.842c.035-.018.07-.043.105-.061a11.906,11.906,0,0,0,4.276-4.706,11.827,11.827,0,0,0-10.569-17.142Zm4.653,15.109a5.691,5.691,0,1,1,1.043-3.278A5.69,5.69,0,0,1,1391.815,759.372Z" transform="translate(-1375.331 -744.263)" fill="url(#b)"/><g clip-path="url(#h)"><rect width="343.662" height="193.31" transform="translate(-198.553 -60.282)" fill="none"/></g></g><g transform="translate(46.884)"><path d="M1358.848,727.667a12.722,12.722,0,0,0-12.707,12.706,12.57,12.57,0,0,0,1.788,6.486,12.688,12.688,0,0,0,21.848-.018,12.566,12.566,0,0,0,1.779-6.469A12.727,12.727,0,0,0,1358.848,727.667Zm4.171,17.781a6.545,6.545,0,0,1-8.334,0h-.008a6.573,6.573,0,1,1,8.342,0Z" transform="translate(-1346.141 -727.667)" fill="url(#c)"/><g clip-path="url(#j)"><rect width="343.662" height="193.31" transform="translate(-159.126 -37.866)" fill="none"/></g></g><g transform="translate(0 29.813)"><path d="M1430.6,792.874a25.13,25.13,0,0,1-13.276,22.977,24.863,24.863,0,0,1-8.509,2.743,17.828,17.828,0,0,1-5.5-.166l-1.033-.193-.132-.026-.184-.035-.324-.062c-1.271-.332-2.515-.754-3.751-1.2a2.1,2.1,0,0,1-.219-.086,45.8,45.8,0,0,1-8.439-4.145,45.23,45.23,0,0,1-5.258-3.831l-.1-.078-2.62-2.226-23.083-19.559-6.135-5.2L1351,780.9a.655.655,0,0,0-.088-.07,40.956,40.956,0,0,0-5.012-3.575q-1.329-.8-2.735-1.5c-.1-.053-.192-.105-.289-.149l-3.111-.508-1.429-.228c-.149-.018-.3-.026-.446-.035a1.556,1.556,0,0,0-.193-.008,4.151,4.151,0,0,0-.578-.035,17.161,17.161,0,0,0-1.9,0q-.395.012-.789.053c-.132.008-.271.026-.4.043-.289.026-.57.07-.859.114h-.008c-.264.045-.526.1-.781.15-.192.043-.385.1-.569.139-.457.123-.912.263-1.359.412-.078.035-.158.053-.236.088q-.644.225-1.261.5l-.238.105c-.42.193-.832.394-1.234.613-.027.018-.053.027-.08.045-.14.078-.28.157-.42.244s-.263.158-.394.246h-.009c-.105.061-.209.131-.315.2-.062.035-.131.08-.193.114-.367.255-.728.509-1.086.781-.07.061-.141.113-.211.166-.351.281-.7.578-1.035.877l-.105.105c-.315.3-.621.605-.92.92-.043.044-.088.088-.131.14-.3.324-.588.666-.868,1.017-.061.069-.114.139-.166.209-.28.359-.543.719-.789,1.1l-.105.158c-.236.369-.463.736-.674,1.122l-.08.131c-.219.394-.42.806-.613,1.218-.035.078-.07.166-.105.245-.184.412-.35.833-.508,1.263-.026.07-.043.139-.07.219-.149.42-.28.859-.4,1.3a.3.3,0,0,0-.017.088c-.123.455-.219.92-.307,1.384-.018.088-.027.176-.045.263-.078.455-.141.92-.184,1.393a2.39,2.39,0,0,1-.018.254c-.035.492-.061.982-.061,1.482a19.009,19.009,0,0,0,18.981,18.991h15.494a19,19,0,0,0,1.113,6.134c.184.509.385,1.009.613,1.5.07.149.14.289.211.438a18.207,18.207,0,0,0,1.507,2.533c.113.176.245.351.377.517.289.394.6.781.928,1.148.254.289.517.561.781.824.166.175.332.332.5.49a2.912,2.912,0,0,0,.254.228c.166.149.332.3.508.447a18.554,18.554,0,0,0,1.753,1.306c.245.166.5.324.744.463.271.168.543.326.824.465.009.009.017.009.027.017a.085.085,0,0,1,.043.027c.281.141.578.289.867.42l.009.009c.3.131.6.262.894.377.332.139.674.262,1.025.377.149.053.3.1.447.139s.3.088.446.132c.377.105.754.2,1.14.28.281.062.561.123.85.167a.355.355,0,0,1,.1.018c.3.043.6.088.893.122h.027c.254.027.508.053.762.062.168.018.342.026.517.035.272.008.543.018.824.018s.543-.01.806-.018c.184-.01.367-.018.543-.035s.359-.027.535-.045a1.977,1.977,0,0,0,.236-.018c.3-.034.6-.078.894-.122.061-.009.123-.027.193-.035.227-.035.447-.08.674-.132a.2.2,0,0,0,.07-.008c.141-.035.281-.062.422-.105a4.82,4.82,0,0,0,.508-.123,5.055,5.055,0,0,0,.517-.149c.184-.044.367-.105.543-.166s.332-.105.49-.167c.439-.157.859-.324,1.281-.516.209-.088.412-.185.613-.291s.4-.2.6-.307c.255-.131.509-.271.754-.43.254-.139.509-.3.754-.463a.565.565,0,0,1,.088-.062c.228-.149.447-.307.675-.473.018-.018.043-.027.061-.045l.334-.254c.193-.141.377-.289.56-.447.236-.2.465-.4.693-.613q.367-.328.709-.683c.166-.166.324-.342.482-.517a1.279,1.279,0,0,0,.105-.105,1.037,1.037,0,0,0,.088-.1c.307-.35.6-.71.877-1.086.113-.132.209-.273.307-.412l.051-.08c.062-.078.123-.158.176-.236a1.385,1.385,0,0,0,.08-.114c.1-.158.209-.316.315-.482.132-.211.263-.422.386-.64s.245-.438.367-.666c.228-.447.447-.9.648-1.367a3.089,3.089,0,0,0,.158-.369q.144-.34.263-.683a4.287,4.287,0,0,1,4,2.708h.01a4.223,4.223,0,0,1,.307,1.578,1.378,1.378,0,0,1-.009.2,4.081,4.081,0,0,1-.438,1.648c-.043.088-.1.184-.149.271a25.095,25.095,0,0,1-43.318-.271,24.714,24.714,0,0,1-2.55-6.135h-6.616l-.343-.937v.937h-3.224a25.124,25.124,0,0,1-1.123-50.223,17.427,17.427,0,0,1,2.235.07l2.1.246.2.026.228.027a21.9,21.9,0,0,1,8.615,2.892c.07.035.131.07.2.113a47.991,47.991,0,0,1,4.022,2.734c.658.5,1.306,1,1.937,1.525l3.2,2.708,2.234,1.9,23.47,19.893,4.056,3.444q1.013.853,2.077,1.63c.342.254.693.5,1.052.744a39.71,39.71,0,0,0,5.083,2.97c1.139.562,2.314,1.062,3.5,1.517.867.324,1.752.623,2.638.894.3.088.6.174.91.254.009,0,.027.008.035.008l.457.053.6.053a19.742,19.742,0,0,0,6.432-.6v-.008a18.357,18.357,0,0,0,9.693-6.258c.026-.026.043-.053.061-.07.273-.35.535-.709.789-1.086l.009-.01.026-.053c.236-.342.447-.692.658-1.043.043-.088.088-.166.131-.246.211-.367.4-.744.588-1.13.035-.061.061-.131.1-.2q.237-.525.447-1.078a1.6,1.6,0,0,0,.08-.193c.157-.4.289-.814.411-1.226.027-.088.053-.184.08-.271.114-.42.228-.842.316-1.261,0-.018,0-.027.008-.035.088-.439.158-.886.211-1.324.018-.105.026-.2.043-.3.053-.438.088-.885.105-1.332a1.682,1.682,0,0,0,.008-.2c.009-.2.018-.412.018-.623v-.061c0-.184-.008-.377-.018-.561a1,1,0,0,0,0-.167v-.078c-.026-.588-.078-1.166-.157-1.744,0-.009,0-.027-.009-.035a.3.3,0,0,0-.008-.088A14.765,14.765,0,0,0,1424,789.5a1.326,1.326,0,0,0-.035-.176v-.01c0-.008,0-.008-.009-.018-.061-.262-.131-.516-.2-.779-.018-.043-.027-.088-.045-.14-.053-.193-.114-.377-.184-.57a.41.41,0,0,0-.035-.1.2.2,0,0,0-.018-.07c-.008-.035-.026-.07-.035-.105-.035-.105-.07-.209-.114-.307a2.717,2.717,0,0,0-.088-.262l-.105-.263c-.1-.271-.209-.543-.332-.807s-.246-.525-.386-.789a18.15,18.15,0,0,0-1.814-2.9c-.114-.158-.236-.316-.359-.465-.1-.115-.184-.228-.28-.334-.158-.193-.324-.385-.5-.57s-.342-.359-.509-.534a20.268,20.268,0,0,0-1.779-1.578c-.149-.115-.3-.228-.455-.342-.4-.3-.824-.578-1.254-.851-.35-.219-.709-.428-1.086-.621-.185-.1-.369-.193-.562-.289-.377-.185-.754-.359-1.147-.517-.2-.08-.394-.158-.6-.228s-.394-.149-.6-.211-.4-.139-.613-.192c-.4-.123-.824-.236-1.244-.324s-.842-.176-1.271-.238c-.219-.034-.429-.069-.648-.086a16.307,16.307,0,0,0-1.982-.123,1.809,1.809,0,0,0-.227-.01H1390a19.009,19.009,0,0,0-1.068-6.133,18.751,18.751,0,0,0-3.575-6.135,18.954,18.954,0,0,0-8.291-5.565,18.963,18.963,0,0,0-12.094,0,19.108,19.108,0,0,0-11.286,10.245c-.062.131-.115.262-.175.4-.141.342-.281.693-.4,1.052a4.233,4.233,0,0,1-1.218-.176,4.329,4.329,0,0,1-3.066-3.515,3.735,3.735,0,0,1-.052-.623,3.865,3.865,0,0,1,.174-1.164,4.082,4.082,0,0,1,.255-.658,2.341,2.341,0,0,1,.157-.289,25.368,25.368,0,0,1,7.187-7.8v-.008c.332-.228.674-.455,1.016-.675a25.072,25.072,0,0,1,26.913,0c.342.211.675.43,1,.666a25.132,25.132,0,0,1,7.369,8.107,24.631,24.631,0,0,1,2.5,6.135h9.683a25.885,25.885,0,0,1,16.878,6.309h.009a24.909,24.909,0,0,1,8.01,13.014v.008h.008a22.561,22.561,0,0,1,.438,2.331A23.731,23.731,0,0,1,1430.6,792.874Z" transform="translate(-1311.43 -749.739)" fill="url(#d)"/><g clip-path="url(#l)"><rect width="343.662" height="193.31" transform="translate(-112.242 -67.678)" fill="none"/></g></g></g></g><path d="M1805.8,772.86a17.838,17.838,0,0,0-3.54,2.505Z" transform="translate(-415.04 6650.846)"/><path d="M1622.618,773.146l-1.769,1.734-.244-.254A17.438,17.438,0,0,0,1622.618,773.146Z" transform="translate(-478.747 6650.946)" opacity="0.3"/><g transform="translate(843.535 7375.401)"><path d="M1425.76,821.081c-15.564,0-26.021-11.4-26.021-28.362V759.758H1460.8v60.37h-27.51A29.171,29.171,0,0,1,1425.76,821.081Z" transform="translate(-1399.739 -729.15)" fill="#fff"/><path d="M1435.7,820.375v-60.37h27.608a29.672,29.672,0,0,1,7.607-.954c15.668,0,26.194,11.4,26.194,28.363v32.96Z" transform="translate(-1387.128 -729.397)" fill="#fff"/><path d="M1487.438,777.986a16.752,16.752,0,0,1-11.731-4.464,15.655,15.655,0,0,1-5.011-11.67c0-9.247,7.2-16.221,16.742-16.221s16.739,6.974,16.739,16.221a15.614,15.614,0,0,1-4.923,11.67A16.865,16.865,0,0,1,1487.438,777.986Z" transform="translate(-1374.854 -734.104)" fill="#fff"/><path d="M1493.035,777.692l-2.626-3.121c-3.941-4.686-3.2-11.427-2.412-15.028l.06-.273.077-.269c2.357-8.195,9.279-13.286,18.067-13.286a24.274,24.274,0,0,1,3.581.273,20.033,20.033,0,0,1,3.672.931l-.646-1.857,23.5.211,2.6,3.119c3.574,4.292,3.277,10.4,2.394,14.783l-.431,2.3-.478.547c-2.831,6.847-9.5,11.154-17.575,11.154a25.446,25.446,0,0,1-3.745-.285,18.289,18.289,0,0,1-3.37-.865l.552,1.668Z" transform="translate(-1369.007 -734.304)" fill="#fff"/><path d="M1661.929,806.068l-4.594,4.263-1.827,1.7a33.514,33.514,0,0,1-5.844,4.383,37.17,37.17,0,0,1-19.373,4.994c-9.8,0-17.789-2.823-23.756-8.414a27.334,27.334,0,0,1-2.845-3.055,28.319,28.319,0,0,1-4.584-8.236,21.234,21.234,0,0,0,4.2-12.664l.011.011V771.109a29.741,29.741,0,0,1,2.977-3.4l.068-.068a29.982,29.982,0,0,1,5.712-4.306,33.194,33.194,0,0,1,17-4.284c10.261,0,17.092,3.366,21.508,7.086a27.529,27.529,0,0,1,3.332,3.332,28.657,28.657,0,0,1,2.4,3.32c3.487,5.635,4.86,12.355,4.063,20.048-.089.941-.221,1.894-.377,2.857l-.586,3.6-.577,3.466Z" transform="translate(-1329.822 -729.397)" fill="#fff"/><path d="M1660.312,821.548a43.175,43.175,0,0,1-24.687-7.232l-6.643-4.5,8.685-15.632a20.107,20.107,0,0,1-4.157-12.539c0-11.312,8.662-22.725,28.016-22.725,8.581,0,16.05,2.021,22.2,6.007l7,4.538L1682.6,783.46a19.44,19.44,0,0,1,5.368,8.346l.217.665.108.691a14.918,14.918,0,0,0,.335,1.587l.179.665.074.683a23.509,23.509,0,0,1,.14,2.551C1689.021,809.212,1681.5,821.548,1660.312,821.548Z" transform="translate(-1319.344 -729.443)" fill="#fff"/><path d="M1692.02,821.329c-9.414,0-17.2-2.892-23.151-8.6a28.823,28.823,0,0,1-7.945-13.437,32.1,32.1,0,0,1-.733-3.455,36.3,36.3,0,0,1-.436-5.65c0-9.028,3.151-16.823,9.113-22.542s13.738-8.6,23.152-8.6c9.472,0,17.29,2.892,23.238,8.594,5.965,5.722,9.115,13.516,9.115,22.545s-3.15,16.822-9.113,22.54S1701.493,821.329,1692.02,821.329Zm0-33.219c-.394,0-1.213,0-1.213,2.081s.819,2.08,1.213,2.08c.517,0,1.3,0,1.3-2.08S1692.538,788.11,1692.02,788.11Z" transform="translate(-1308.552 -729.397)" fill="#fff"/><path d="M1696.55,820.375v-60.37h27.607a29.672,29.672,0,0,1,7.607-.954c15.668,0,26.2,11.4,26.2,28.363v32.96Z" transform="translate(-1295.648 -729.397)" fill="#fff"/><path d="M1732.381,824.766V746.53h31.14v17.227a29.541,29.541,0,0,1,4.336-.313c15.513,0,25.935,11.4,25.935,28.363v32.96Z" transform="translate(-1283.082 -733.789)" fill="#fff"/><path d="M1798.68,821.329c-9.414,0-17.2-2.892-23.15-8.6-5.964-5.72-9.116-13.515-9.116-22.542s3.151-16.823,9.113-22.542,13.738-8.6,23.152-8.6c9.473,0,17.291,2.892,23.238,8.594,5.965,5.722,9.116,13.516,9.116,22.545s-3.151,16.822-9.114,22.54S1808.153,821.329,1798.68,821.329Zm0-33.219c-.393,0-1.213,0-1.213,2.081s.82,2.08,1.213,2.08c.518,0,1.3,0,1.3-2.08S1799.2,788.11,1798.68,788.11Z" transform="translate(-1271.146 -729.397)" fill="#fff"/><path d="M1829.839,821.548a43.179,43.179,0,0,1-24.687-7.232l-6.643-4.5,8.685-15.632a20.105,20.105,0,0,1-4.157-12.539c0-11.312,8.663-22.725,28.016-22.725,8.581,0,16.049,2.021,22.2,6.007l7,4.538-8.136,14a20.453,20.453,0,0,1,6.431,15.176C1858.55,809.212,1851.031,821.548,1829.839,821.548Z" transform="translate(-1259.891 -729.443)" fill="#fff"/><path d="M1591.229,786.827c-4.483,4.783-8.966,9.576-13.527,14.3-.011,0-.011.012-.011.012.011-.023.022-.1.055-.211l-3.477,3.62-1.461,1.528c-6.554,5.955-14.733,7.949-23.867,5.746-5.978-1.429-10.561-4.24-13.772-8.27a24.6,24.6,0,0,1-4.483-9.044c-.277-1.018-.409-2.058-.609-3.089v-3.785c.343-1.517.554-3.078,1.031-4.561a22.214,22.214,0,0,1,4.062-7.451,26.881,26.881,0,0,1,39.068-1.483c.752.752,1.483,1.528,2.225,2.314.62.641,1.229,1.306,1.871,1.971-1.461,1.538-2.911,3.077-4.372,4.626q-1.943,2.06-3.92,4.152c-.275-.266-.52-.488-.741-.72-1.506-1.583-2.944-3.232-4.527-4.749a13.1,13.1,0,0,0-12.741-3.365c-4.806,1.129-7.87,4.051-9.056,8.491-2.014,7.527,4.915,14.756,13.339,14.015a13.559,13.559,0,0,0,9.057-4.34q3.037-3.221,6.066-6.464c.121-.134.243-.277.375-.411l.068-.066,16.594-17.17h.023c.2-.166.4-.332.6-.486l-6.2-5.9-.089-.077-.111-.111c-.631.554-1.372,1.206-2.092,1.948l-.011.012a.852.852,0,0,0-.144.143,34.375,34.375,0,0,0-24.144-10.261c-.354-.012-.719-.023-1.074-.023a35.427,35.427,0,0,0-20.059,6.233,32.674,32.674,0,0,0-8.757,8.9,30.023,30.023,0,0,0-3.652,7.617,33.738,33.738,0,0,0-.974,4.04c-.089.422-.167.842-.266,1.263l-.21.951v5.6l.166.84c.055.266.1.532.143.8.145.818.322,1.826.62,2.911a33.975,33.975,0,0,0,4.174,9.5,30.88,30.88,0,0,0,8.757,8.967,35.3,35.3,0,0,0,11.713,5.058,38.87,38.87,0,0,0,9.087,1.118,33.546,33.546,0,0,0,24.2-10.306l.22-.222c.8-.808,1.583-1.638,2.369-2.446l1.208-1.24,1.626-1.694.377-1.44c-1.172-1.184-2.291-2.414-3.488-3.664,2.16-2.291,4.3-4.549,6.455-6.83C1589.7,791.177,1590.476,788.887,1591.229,786.827Zm-32.236,3.709a4.822,4.822,0,0,1-3.454,1.615c-.145.012-.277.012-.421.012a4.148,4.148,0,0,1-3.266-1.5,1.693,1.693,0,0,1-.409-1.549c.266-1.008.609-1.76,2.6-2.226a6.966,6.966,0,0,1,1.572-.2,4.156,4.156,0,0,1,3.1,1.372c.443.421.886.875,1.328,1.351C1559.7,789.784,1559.347,790.159,1558.993,790.536Z" transform="translate(-1357.104 -729.883)" fill="#fff"/><path d="M1592.928,737.1v27.764c-.442-.023-.9-.034-1.338-.034-.377,0-.754.011-1.129.023-.332.011-.664.022-.986.043-.265.012-.531.034-.8.068a8.221,8.221,0,0,0-.919.088c-.021-.011-.044,0-.078,0-.365.045-.741.089-1.106.155a.942.942,0,0,0-.243.034c-.377.054-.765.121-1.141.2-.32.055-.653.122-.974.2-.111.022-.232.055-.354.077-.709.177-1.417.365-2.114.575-.089.022-.178.055-.255.077-.8.245-1.572.532-2.347.841-.021.012-.054.023-.077.034-.376.155-.742.309-1.118.475-.354.155-.708.321-1.051.5q-.9.432-1.761.931c-.143.077-.286.154-.431.243-.786.465-1.561.963-2.314,1.483l-.309.288-.289.177-.763.688-1.34,1.151-1.2,1.018a.605.605,0,0,0-.077.111l-.011.011a42.7,42.7,0,0,0-5.06,9.355c.62.641,1.229,1.306,1.871,1.971-1.461,1.538-2.911,3.077-4.372,4.626-.775,2.237-1.506,4.484-2.149,6.609l.068-.066,16.594-17.17h.023c.2-.166.4-.332.6-.486,6.4-5.192,14.2-6.754,22.827-4.65,1.006.245,1.958.543,2.889.854V745.864h15.786v50.889l-.011-.011a21.234,21.234,0,0,1-4.2,12.664,25.375,25.375,0,0,1-17.944,10.063,25.864,25.864,0,0,1-21.775-7.427c-.244-.232-.477-.466-.7-.709-1.172-1.184-2.291-2.414-3.488-3.664,2.16-2.291,4.3-4.549,6.455-6.83.62-.652,1.24-1.306,1.86-1.969,1.7,1.782,3.309,3.509,4.948,5.214a13.769,13.769,0,0,0,15.056,3.021c5-2.014,8.114-7.106,7.283-11.955a12.038,12.038,0,0,0-10.992-9.875,13.344,13.344,0,0,0-11.558,4.2c-1.438,1.517-2.866,3.045-4.306,4.572-4.483,4.783-8.966,9.576-13.527,14.3-.011,0-.011.012-.011.012.011-.023.022-.1.055-.211l-3.477,3.62.055.055,1.838,1.915c.52.542,1.029,1.085,1.539,1.628V817.1h1.649c.343.354.686.709,1.04,1.052l.134.132a34.465,34.465,0,0,0,24.62,10.118,39.09,39.09,0,0,0,4.217-.221,34.513,34.513,0,0,0,21.61-10.538,30.891,30.891,0,0,0,5.313-7.672,29.663,29.663,0,0,0,3.055-13.218h.012V737.1Zm-4.14,58.384a4.388,4.388,0,0,1,3.543-1.528c.254,0,.531.021.808.043a3.322,3.322,0,0,1,3.2,2.635,2.835,2.835,0,0,1-1.914,2.335,5.391,5.391,0,0,1-2.071.411,4.64,4.64,0,0,1-3.409-1.384c-.42-.431-.852-.874-1.274-1.328C1588.047,796.278,1588.412,795.879,1588.788,795.481Z" transform="translate(-1343.992 -737.097)" fill="#fff"/><path d="M1425.76,821.081c-15.564,0-26.021-11.4-26.021-28.362V759.758H1460.8v60.37h-27.51A29.171,29.171,0,0,1,1425.76,821.081Z" transform="translate(-1399.739 -729.15)" fill="#fff"/><path d="M1436.148,788.708c0,5.811-3.469,9.8-8.674,9.8-4.769,0-7.631-3.3-7.631-8.848V766.245h-13.618v24.2c0,12.229,6.766,19.6,17.261,19.6a17.218,17.218,0,0,0,13.616-5.9l.867,4.944h11.8V766.245h-13.618Z" transform="translate(-1397.464 -726.875)" fill="url(#m)"/><path d="M1435.7,820.375v-60.37h27.608a29.672,29.672,0,0,1,7.607-.954c15.668,0,26.194,11.4,26.194,28.363v32.96Z" transform="translate(-1387.128 -729.397)" fill="#fff"/><path d="M1468.64,765.538q-8.716,0-13.791,5.985l-.868-5.03h-11.8v42.846H1455.8v-22.55c0-5.811,3.556-9.714,8.847-9.714,4.857,0,7.805,3.3,7.805,8.847v23.417h13.618v-24.2C1486.073,772.911,1479.308,765.538,1468.64,765.538Z" transform="translate(-1384.853 -727.123)" fill="url(#n)"/><rect width="31.14" height="60.369" transform="translate(96.969 30.608)" fill="#fff"/><rect width="13.617" height="42.847" transform="translate(105.73 39.37)" fill="url(#o)"/><rect width="31.14" height="60.369" transform="translate(96.969 30.608)" fill="#fff"/><path d="M1487.438,777.986a16.752,16.752,0,0,1-11.731-4.464,15.655,15.655,0,0,1-5.011-11.67c0-9.247,7.2-16.221,16.742-16.221s16.739,6.974,16.739,16.221a15.614,15.614,0,0,1-4.923,11.67A16.865,16.865,0,0,1,1487.438,777.986Z" transform="translate(-1374.854 -734.104)" fill="#fff"/><path d="M1485.162,752.118c-4.6,0-7.98,3.035-7.98,7.459a6.944,6.944,0,0,0,2.256,5.291,8.013,8.013,0,0,0,5.724,2.081,8.228,8.228,0,0,0,5.812-2.081,6.874,6.874,0,0,0,2.168-5.291C1493.142,755.153,1489.76,752.118,1485.162,752.118Z" transform="translate(-1372.58 -731.829)" fill="url(#p)"/><path d="M1520.477,759.982l-.011.078a30.154,30.154,0,0,0-7.174-.931h-.012c-.165-.011-.343-.011-.509-.011a30.935,30.935,0,0,0-6.387.652h-.011a27.273,27.273,0,0,0-7.56,2.724c-.123.055-.234.122-.355.188-.177.1-.365.211-.542.332a27.459,27.459,0,0,0-6.289,5.037l-.055.066c-.177.188-.354.388-.52.588-.475.531-.918,1.085-1.351,1.649-.52.7-1.019,1.417-1.472,2.158a32.789,32.789,0,0,0-4.694,17.656c0,7.749,2.071,14.381,6.166,19.761.6.775,1.218,1.517,1.894,2.237a28.039,28.039,0,0,0,6.863,5.457,28.926,28.926,0,0,0,14.313,3.6,29.938,29.938,0,0,0,7.672-.963l.023.088h27.951v-17.3a24.6,24.6,0,0,1-4.483-9.044c-.277-1.018-.409-2.058-.609-3.089v-3.785c.343-1.517.554-3.078,1.031-4.561a22.214,22.214,0,0,1,4.062-7.451V759.982Zm-5.447,28.428.134-.143c.066-.068.166-.177.818-.177.808,0,.931.132,1.042.243a3.2,3.2,0,0,1,.431,1.837c0,1.3-.309,1.628-.431,1.749-.189.2-.322.332-1.042.332-.652,0-.752-.111-.818-.188l-.134-.145c-.122-.122-.431-.454-.431-1.749S1514.908,788.544,1515.029,788.41Z" transform="translate(-1370.352 -729.374)" fill="#fff"/><path d="M1524.719,771.5c-3.557-3.9-8.326-5.9-14.224-5.9a19.368,19.368,0,0,0-14.746,6.159q-5.724,6.244-5.724,16.133c0,6.591,1.908,11.969,5.724,16.045a19.138,19.138,0,0,0,14.746,6.246,18.413,18.413,0,0,0,14.224-5.985l.867,5.116h11.8V766.47h-11.8Zm-3.643,24.2a9.74,9.74,0,0,1-7.372,3.036,9.422,9.422,0,0,1-7.287-3.036,12.077,12.077,0,0,1,0-15.613,9.421,9.421,0,0,1,7.287-3.035,9.673,9.673,0,0,1,7.372,2.949,11.038,11.038,0,0,1,2.862,7.893A10.822,10.822,0,0,1,1521.076,795.7Z" transform="translate(-1368.076 -727.1)" fill="url(#q)"/><path d="M1520.477,759.982l-.011.078a30.154,30.154,0,0,0-7.174-.931h-.012c-.165-.011-.343-.011-.509-.011a30.935,30.935,0,0,0-6.387.652h-.011a27.273,27.273,0,0,0-7.56,2.724c-.123.055-.234.122-.355.188-.177.1-.365.211-.542.332a27.459,27.459,0,0,0-6.289,5.037l-.055.066c-.177.188-.354.388-.52.588-.475.531-.918,1.085-1.351,1.649-.52.7-1.019,1.417-1.472,2.158a32.789,32.789,0,0,0-4.694,17.656c0,7.749,2.071,14.381,6.166,19.761.6.775,1.218,1.517,1.894,2.237a28.039,28.039,0,0,0,6.863,5.457,28.926,28.926,0,0,0,14.313,3.6,29.938,29.938,0,0,0,7.672-.963l.023.088h27.951v-17.3a24.6,24.6,0,0,1-4.483-9.044c-.277-1.018-.409-2.058-.609-3.089v-3.785c.343-1.517.554-3.078,1.031-4.561a22.214,22.214,0,0,1,4.062-7.451V759.982Zm-5.447,28.428.134-.143c.066-.068.166-.177.818-.177.808,0,.931.132,1.042.243a3.2,3.2,0,0,1,.431,1.837c0,1.3-.309,1.628-.431,1.749-.189.2-.322.332-1.042.332-.652,0-.752-.111-.818-.188l-.134-.145c-.122-.122-.431-.454-.431-1.749S1514.908,788.544,1515.029,788.41Z" transform="translate(-1370.352 -729.374)" fill="#fff"/><path d="M1493.035,777.692l-2.626-3.121c-3.941-4.686-3.2-11.427-2.412-15.028l.06-.273.077-.269c2.357-8.195,9.279-13.286,18.067-13.286a24.274,24.274,0,0,1,3.581.273,20.033,20.033,0,0,1,3.672.931l-.646-1.857,23.5.211,2.6,3.119c3.574,4.292,3.277,10.4,2.394,14.783l-.431,2.3-.478.547c-2.831,6.847-9.5,11.154-17.575,11.154a25.446,25.446,0,0,1-3.745-.285,18.289,18.289,0,0,1-3.37-.865l.552,1.668Z" transform="translate(-1369.007 -734.304)" fill="#fff"/><path d="M1501.841,766.628a4.8,4.8,0,0,1,.492-3.8c1.551-1.709,3.144-2.417,4.7-2.188.947.146,2.576,1,4.96,2.521a16.076,16.076,0,0,0,6.1,2.761c6.423.958,10.977-1.8,12.327-6.708l.009-.011c.035-.186,1.182-5.457-.525-7.509l-7.009-.062a4.732,4.732,0,0,1-.457,3.823c-1.086,1.78-2.4,2.53-3.96,2.291-.945-.135-2.777-1.021-5.492-2.6a20.617,20.617,0,0,0-6.782-2.791c-6.159-.927-10.514,1.864-11.924,6.77,0,0-1.191,5.426.561,7.509Z" transform="translate(-1366.725 -732)" fill="url(#r)"/><path d="M1661.929,806.068l-4.594,4.263-1.827,1.7a33.514,33.514,0,0,1-5.844,4.383,37.17,37.17,0,0,1-19.373,4.994c-9.8,0-17.789-2.823-23.756-8.414a27.334,27.334,0,0,1-2.845-3.055,28.319,28.319,0,0,1-4.584-8.236,21.234,21.234,0,0,0,4.2-12.664l.011.011V771.109a29.741,29.741,0,0,1,2.977-3.4l.068-.068a29.982,29.982,0,0,1,5.712-4.306,33.194,33.194,0,0,1,17-4.284c10.261,0,17.092,3.366,21.508,7.086a27.529,27.529,0,0,1,3.332,3.332,28.657,28.657,0,0,1,2.4,3.32c3.487,5.635,4.86,12.355,4.063,20.048-.089.941-.221,1.894-.377,2.857l-.586,3.6-.577,3.466Z" transform="translate(-1329.822 -729.397)" fill="#fff"/><path d="M1629.189,799.365c-6.159,0-10.322-2.95-11.1-7.372h31.485c1.3-7.893-.086-14.312-4.163-19.169s-10.148-7.286-18.128-7.286c-6.852,0-12.4,2.081-16.653,6.158-4.251,4.164-6.418,9.628-6.418,16.307,0,6.852,2.168,12.316,6.5,16.306,4.337,4.076,10.234,6.071,17.781,6.071q11.709,0,19.256-7.025l-7.113-7.633A17.748,17.748,0,0,1,1629.189,799.365Zm-1.475-23.071c5.551,0,9.02,2.949,9.367,7.892h-18.908C1618.607,779.242,1622.25,776.294,1627.714,776.294Z" transform="translate(-1328.032 -727.123)" fill="url(#s)"/><path d="M1660.312,821.548a43.175,43.175,0,0,1-24.687-7.232l-6.643-4.5,8.685-15.632a20.107,20.107,0,0,1-4.157-12.539c0-11.312,8.662-22.725,28.016-22.725,8.581,0,16.05,2.021,22.2,6.007l7,4.538L1682.6,783.46a19.44,19.44,0,0,1,5.368,8.346l.217.665.108.691a14.918,14.918,0,0,0,.335,1.587l.179.665.074.683a23.509,23.509,0,0,1,.14,2.551C1689.021,809.212,1681.5,821.548,1660.312,821.548Z" transform="translate(-1319.344 -729.443)" fill="#fff"/><path d="M1658.439,782.5c-3.9-.433-5.9-1.387-5.9-3.036,0-2.082,2.168-3.122,6.592-3.122a23.166,23.166,0,0,1,11.536,2.776l5.291-9.108c-4.683-3.035-10.495-4.6-17.435-4.6-11.8,0-19.254,5.377-19.254,13.964,0,7.893,6.938,13.01,17.781,13.618q6.767.389,6.766,3.382c0,1.995-1.908,3.036-5.638,3.036a29.043,29.043,0,0,1-15.438-3.99l-5.2,9.367a34.432,34.432,0,0,0,19.776,5.724c12.49,0,19.948-5.377,19.948-14.138a15.143,15.143,0,0,0-.089-1.606,23.577,23.577,0,0,1-.534-2.518C1674.781,786.563,1668.736,783.277,1658.439,782.5Z" transform="translate(-1316.344 -727.168)" fill="url(#t)"/><path d="M1692.02,821.329c-9.414,0-17.2-2.892-23.151-8.6a28.823,28.823,0,0,1-7.945-13.437,32.1,32.1,0,0,1-.733-3.455,36.3,36.3,0,0,1-.436-5.65c0-9.028,3.151-16.823,9.113-22.542s13.738-8.6,23.152-8.6c9.472,0,17.29,2.892,23.238,8.594,5.965,5.722,9.115,13.516,9.115,22.545s-3.15,16.822-9.113,22.54S1701.493,821.329,1692.02,821.329Zm0-33.219c-.394,0-1.213,0-1.213,2.081s.819,2.08,1.213,2.08c.517,0,1.3,0,1.3-2.08S1692.538,788.11,1692.02,788.11Z" transform="translate(-1308.552 -729.397)" fill="#fff"/><path d="M1689.746,765.538c-7.2,0-12.837,2.081-17.088,6.158s-6.417,9.541-6.417,16.221a27.649,27.649,0,0,0,.33,4.288,23.577,23.577,0,0,0,.534,2.518,20.137,20.137,0,0,0,5.554,9.413c4.251,4.076,9.888,6.158,17.088,6.158s12.924-2.081,17.173-6.158,6.418-9.541,6.418-16.219-2.168-12.143-6.418-16.221S1696.944,765.538,1689.746,765.538Zm0,33.219c-5.9,0-9.975-4.51-9.975-10.841s4.076-10.842,9.975-10.842c5.984,0,10.062,4.51,10.062,10.842S1695.729,798.757,1689.746,798.757Z" transform="translate(-1306.277 -727.123)" fill="url(#u)"/><path d="M1696.55,820.375v-60.37h27.607a29.672,29.672,0,0,1,7.607-.954c15.668,0,26.2,11.4,26.2,28.363v32.96Z" transform="translate(-1295.648 -729.397)" fill="#fff"/><path d="M1729.489,765.538q-8.716,0-13.791,5.985l-.867-5.03h-11.8v42.846h13.618v-22.55c0-5.812,3.555-9.714,8.846-9.714,4.857,0,7.807,3.3,7.807,8.847v23.417h13.616v-24.2C1746.923,772.91,1740.159,765.538,1729.489,765.538Z" transform="translate(-1293.373 -727.123)" fill="url(#v)"/><path d="M1732.381,824.766V746.53h31.14v17.227a29.541,29.541,0,0,1,4.336-.313c15.513,0,25.935,11.4,25.935,28.363v32.96Z" transform="translate(-1283.082 -733.789)" fill="#fff"/><path d="M1765.582,769.93a16.617,16.617,0,0,0-13.1,5.638V753.016h-13.618V813.73h13.618V791.18c0-5.812,3.643-9.714,8.934-9.714,4.857,0,7.719,3.3,7.719,8.847V813.73h13.618v-24.2C1782.755,777.476,1776.076,769.93,1765.582,769.93Z" transform="translate(-1280.807 -731.514)" fill="url(#w)"/><path d="M1798.68,821.329c-9.414,0-17.2-2.892-23.15-8.6-5.964-5.72-9.116-13.515-9.116-22.542s3.151-16.823,9.113-22.542,13.738-8.6,23.152-8.6c9.473,0,17.291,2.892,23.238,8.594,5.965,5.722,9.116,13.516,9.116,22.545s-3.151,16.822-9.114,22.54S1808.153,821.329,1798.68,821.329Zm0-33.219c-.393,0-1.213,0-1.213,2.081s.82,2.08,1.213,2.08c.518,0,1.3,0,1.3-2.08S1799.2,788.11,1798.68,788.11Z" transform="translate(-1271.146 -729.397)" fill="#fff"/><path d="M1813.58,771.7c-4.25-4.076-9.975-6.158-17.174-6.158s-12.837,2.081-17.086,6.158-6.418,9.541-6.418,16.221,2.168,12.143,6.418,16.219,9.887,6.158,17.086,6.158,12.924-2.081,17.174-6.158,6.417-9.541,6.417-16.219S1817.829,775.774,1813.58,771.7Zm-17.174,27.061c-5.9,0-9.975-4.51-9.975-10.841s4.078-10.842,9.975-10.842c5.985,0,10.062,4.51,10.062,10.842S1802.391,798.757,1796.406,798.757Z" transform="translate(-1268.872 -727.123)" fill="url(#x)"/><path d="M1829.839,821.548a43.179,43.179,0,0,1-24.687-7.232l-6.643-4.5,8.685-15.632a20.105,20.105,0,0,1-4.157-12.539c0-11.312,8.663-22.725,28.016-22.725,8.581,0,16.049,2.021,22.2,6.007l7,4.538-8.136,14a20.453,20.453,0,0,1,6.431,15.176C1858.55,809.212,1851.031,821.548,1829.839,821.548Z" transform="translate(-1259.891 -729.443)" fill="#fff"/><path d="M1827.968,782.5c-3.9-.433-5.9-1.387-5.9-3.036,0-2.082,2.169-3.122,6.592-3.122a23.165,23.165,0,0,1,11.536,2.776l5.291-9.108c-4.684-3.035-10.495-4.6-17.433-4.6-11.8,0-19.256,5.377-19.256,13.964,0,7.893,6.938,13.01,17.781,13.618q6.765.389,6.766,3.382c0,1.995-1.908,3.036-5.638,3.036a29.046,29.046,0,0,1-15.438-3.99l-5.2,9.367a34.436,34.436,0,0,0,19.776,5.724c12.49,0,19.948-5.377,19.948-14.138C1846.788,788.134,1840.544,783.45,1827.968,782.5Z" transform="translate(-1256.891 -727.168)" fill="url(#y)"/><path d="M1591.229,786.827c-4.483,4.783-8.966,9.576-13.527,14.3-.011,0-.011.012-.011.012.011-.023.022-.1.055-.211l-3.477,3.62-1.461,1.528c-6.554,5.955-14.733,7.949-23.867,5.746-5.978-1.429-10.561-4.24-13.772-8.27a24.6,24.6,0,0,1-4.483-9.044c-.277-1.018-.409-2.058-.609-3.089v-3.785c.343-1.517.554-3.078,1.031-4.561a22.214,22.214,0,0,1,4.062-7.451,26.881,26.881,0,0,1,39.068-1.483c.752.752,1.483,1.528,2.225,2.314.62.641,1.229,1.306,1.871,1.971-1.461,1.538-2.911,3.077-4.372,4.626q-1.943,2.06-3.92,4.152c-.275-.266-.52-.488-.741-.72-1.506-1.583-2.944-3.232-4.527-4.749a13.1,13.1,0,0,0-12.741-3.365c-4.806,1.129-7.87,4.051-9.056,8.491-2.014,7.527,4.915,14.756,13.339,14.015a13.559,13.559,0,0,0,9.057-4.34q3.037-3.221,6.066-6.464c.121-.134.243-.277.375-.411l.068-.066,16.594-17.17h.023c.2-.166.4-.332.6-.486l-6.2-5.9-.089-.077-.111-.111c-.631.554-1.372,1.206-2.092,1.948l-.011.012a.852.852,0,0,0-.144.143,34.375,34.375,0,0,0-24.144-10.261c-.354-.012-.719-.023-1.074-.023a35.427,35.427,0,0,0-20.059,6.233,32.674,32.674,0,0,0-8.757,8.9,30.023,30.023,0,0,0-3.652,7.617,33.738,33.738,0,0,0-.974,4.04c-.089.422-.167.842-.266,1.263l-.21.951v5.6l.166.84c.055.266.1.532.143.8.145.818.322,1.826.62,2.911a33.975,33.975,0,0,0,4.174,9.5,30.88,30.88,0,0,0,8.757,8.967,35.3,35.3,0,0,0,11.713,5.058,38.87,38.87,0,0,0,9.087,1.118,33.546,33.546,0,0,0,24.2-10.306l.22-.222c.8-.808,1.583-1.638,2.369-2.446l1.208-1.24,1.626-1.694.377-1.44c-1.172-1.184-2.291-2.414-3.488-3.664,2.16-2.291,4.3-4.549,6.455-6.83C1589.7,791.177,1590.476,788.887,1591.229,786.827Zm-32.236,3.709a4.822,4.822,0,0,1-3.454,1.615c-.145.012-.277.012-.421.012a4.148,4.148,0,0,1-3.266-1.5,1.693,1.693,0,0,1-.409-1.549c.266-1.008.609-1.76,2.6-2.226a6.966,6.966,0,0,1,1.572-.2,4.156,4.156,0,0,1,3.1,1.372c.443.421.886.875,1.328,1.351C1559.7,789.784,1559.347,790.159,1558.993,790.536Z" transform="translate(-1357.104 -729.883)" fill="#fff"/><path d="M1564.375,789.7c-.034.111-.044.188-.055.211-1.118,1.151-2.237,2.312-3.366,3.465-.122.132-.255.266-.388.4-.365.377-.741.731-1.129,1.074l1.461-1.528Z" transform="translate(-1343.733 -718.65)" fill="url(#z)"/><path d="M1575.343,768.593l-16.594,17.17c4.9-5.258,9.83-10.506,14.912-15.609C1574.2,769.6,1574.778,769.091,1575.343,768.593Z" transform="translate(-1343.974 -726.051)" fill="url(#aa)"/><path d="M1564.375,789.7c-.034.111-.044.188-.055.211-1.118,1.151-2.237,2.312-3.366,3.465-.122.132-.255.266-.388.4-.365.377-.741.731-1.129,1.074l1.461-1.528Z" transform="translate(-1343.733 -718.65)" fill="url(#ab)"/><path d="M1575.343,768.593l-16.594,17.17c4.9-5.258,9.83-10.506,14.912-15.609C1574.2,769.6,1574.778,769.091,1575.343,768.593Z" transform="translate(-1343.974 -726.051)" fill="url(#ac)"/><path d="M1592.928,737.1v27.764c-.442-.023-.9-.034-1.338-.034-.377,0-.754.011-1.129.023-.332.011-.664.022-.986.043-.265.012-.531.034-.8.068a8.221,8.221,0,0,0-.919.088c-.021-.011-.044,0-.078,0-.365.045-.741.089-1.106.155a.942.942,0,0,0-.243.034c-.377.054-.765.121-1.141.2-.32.055-.653.122-.974.2-.111.022-.232.055-.354.077-.709.166-1.417.354-2.114.575-.089.022-.178.055-.255.077-.8.245-1.572.532-2.347.841-.021.012-.054.023-.077.034-.376.155-.742.309-1.118.475-.354.155-.708.321-1.051.5q-.9.432-1.761.931c-.143.077-.286.154-.431.243-.786.465-1.561.963-2.314,1.483l-.543.011h-.055l-.021.055-.255.564-.763.632c-.034,0-.034-.222-.066-.222l-1.107,1.151-1.085,1.129a.605.605,0,0,0-.077.111l-.011.011a42.7,42.7,0,0,0-5.06,9.355c.62.641,1.229,1.306,1.871,1.971-1.461,1.538-2.911,3.077-4.372,4.626-.775,2.237-1.506,4.484-2.149,6.609l.068-.066,16.594-17.17h.023c.2-.166.4-.332.6-.486,6.4-5.192,14.2-6.754,22.827-4.65,1.006.245,1.958.543,2.889.854V745.864h15.786v50.889l-.011-.011a21.234,21.234,0,0,1-4.2,12.664,25.375,25.375,0,0,1-17.944,10.063,25.864,25.864,0,0,1-21.775-7.427c-.244-.232-.477-.466-.7-.709-1.172-1.184-2.291-2.414-3.488-3.664,2.16-2.291,4.3-4.549,6.455-6.83.62-.652,1.24-1.306,1.86-1.969,1.7,1.782,3.309,3.509,4.948,5.214a13.769,13.769,0,0,0,15.056,3.021c5-2.014,8.114-7.106,7.283-11.955a12.038,12.038,0,0,0-10.992-9.875,13.344,13.344,0,0,0-11.558,4.2c-1.438,1.517-2.866,3.045-4.306,4.572-4.483,4.783-8.966,9.576-13.527,14.3-.011,0-.011.012-.011.012.011-.023.022-.1.055-.211l-3.477,3.62.055.055,1.838,1.915c.52.542,1.029,1.085,1.539,1.628V817.1h1.649c.343.354.686.709,1.04,1.052l.134.132a34.465,34.465,0,0,0,24.62,10.118,39.09,39.09,0,0,0,4.217-.221,34.513,34.513,0,0,0,21.61-10.538,30.891,30.891,0,0,0,5.313-7.672,29.663,29.663,0,0,0,3.055-13.218h.012V737.1Zm-4.14,58.384a4.388,4.388,0,0,1,3.543-1.528c.254,0,.531.021.808.043a3.322,3.322,0,0,1,3.2,2.635,2.835,2.835,0,0,1-1.914,2.335,5.391,5.391,0,0,1-2.071.411,4.64,4.64,0,0,1-3.409-1.384c-.42-.431-.852-.874-1.274-1.328C1588.047,796.278,1588.412,795.879,1588.788,795.481Z" transform="translate(-1343.992 -737.097)" fill="#fff"/><g transform="translate(8.761 8.767)"><path d="M1501.841,766.628a4.8,4.8,0,0,1,.492-3.8c1.551-1.709,3.144-2.417,4.7-2.188.947.146,2.576,1,4.96,2.521a16.076,16.076,0,0,0,6.1,2.761c6.423.958,10.977-1.8,12.327-6.708l.009-.011c.035-.186,1.182-5.457-.525-7.509l-7.009-.062a4.732,4.732,0,0,1-.457,3.823c-1.086,1.78-2.4,2.53-3.96,2.291-.945-.135-2.777-1.021-5.492-2.6a20.617,20.617,0,0,0-6.782-2.791c-6.159-.927-10.514,1.864-11.924,6.77,0,0-1.191,5.426.561,7.509Z" transform="translate(-1375.486 -740.767)" fill="url(#ad)"/><path d="M1524.719,771.5c-3.557-3.9-8.326-5.9-14.224-5.9a19.368,19.368,0,0,0-14.746,6.159q-5.724,6.244-5.724,16.133c0,6.591,1.908,11.969,5.724,16.045a19.138,19.138,0,0,0,14.746,6.246,18.413,18.413,0,0,0,14.224-5.985l.867,5.116h11.8V766.47h-11.8Zm-3.643,24.2a9.74,9.74,0,0,1-7.372,3.036,9.422,9.422,0,0,1-7.287-3.036,12.077,12.077,0,0,1,0-15.613,9.421,9.421,0,0,1,7.287-3.035,9.673,9.673,0,0,1,7.372,2.949,11.038,11.038,0,0,1,2.862,7.893A10.822,10.822,0,0,1,1521.076,795.7Z" transform="translate(-1376.836 -735.868)" fill="url(#ae)"/><path d="M1628.319,743.588v50.889l-.011-.011a21.234,21.234,0,0,1-4.2,12.664,25.375,25.375,0,0,1-17.944,10.063,25.864,25.864,0,0,1-21.775-7.427c-.244-.232-.477-.466-.7-.709-1.172-1.184-2.291-2.414-3.488-3.664,2.16-2.291,4.3-4.549,6.455-6.83.62-.652,1.24-1.306,1.86-1.969,1.7,1.782,3.309,3.509,4.948,5.214a13.769,13.769,0,0,0,15.056,3.021c5-2.014,8.114-7.106,7.283-11.955A12.038,12.038,0,0,0,1604.816,783a13.344,13.344,0,0,0-11.558,4.2c-1.438,1.517-2.866,3.045-4.306,4.572-4.483,4.783-8.966,9.576-13.527,14.3-.011,0-.011.012-.011.012.011-.023.022-.1.055-.211l-3.477,3.62-1.461,1.528c-6.554,5.955-14.733,7.949-23.867,5.746-5.978-1.429-10.561-4.24-13.772-8.27a24.6,24.6,0,0,1-4.483-9.044c-.277-1.018-.409-2.058-.609-3.089v-3.785c.343-1.517.554-3.078,1.031-4.561a22.214,22.214,0,0,1,4.062-7.451,26.881,26.881,0,0,1,39.068-1.483c.752.752,1.483,1.528,2.225,2.314.62.641,1.229,1.306,1.871,1.971-1.461,1.538-2.911,3.077-4.372,4.626q-1.943,2.06-3.92,4.152c-.275-.266-.52-.488-.741-.72-1.506-1.583-2.944-3.232-4.527-4.749a13.1,13.1,0,0,0-12.741-3.365c-4.806,1.129-7.87,4.051-9.056,8.491-2.014,7.527,4.915,14.756,13.339,14.015a13.559,13.559,0,0,0,9.057-4.34q3.037-3.221,6.066-6.464c.121-.134.243-.277.375-.411l.068-.066,16.594-17.17h.023c.2-.166.4-.332.6-.486,6.4-5.192,14.2-6.754,22.827-4.65,1.006.245,1.958.543,2.889.854V743.588Z" transform="translate(-1363.589 -743.588)" fill="url(#af)"/><path d="M1629.189,799.365c-6.159,0-10.322-2.95-11.1-7.372h31.485c1.3-7.893-.086-14.312-4.163-19.169s-10.148-7.286-18.128-7.286c-6.852,0-12.4,2.081-16.653,6.158-4.251,4.164-6.418,9.628-6.418,16.307,0,6.852,2.168,12.316,6.5,16.306,4.337,4.076,10.234,6.071,17.781,6.071q11.709,0,19.256-7.025l-7.113-7.633A17.748,17.748,0,0,1,1629.189,799.365Zm-1.475-23.071c5.551,0,9.02,2.949,9.367,7.892h-18.908C1618.607,779.242,1622.25,776.294,1627.714,776.294Z" transform="translate(-1336.792 -735.89)" fill="url(#ag)"/><path d="M1658.439,782.5c-3.9-.433-5.9-1.387-5.9-3.036,0-2.082,2.168-3.122,6.592-3.122a23.166,23.166,0,0,1,11.536,2.776l5.291-9.108c-4.683-3.035-10.495-4.6-17.435-4.6-11.8,0-19.254,5.377-19.254,13.964,0,7.893,6.938,13.01,17.781,13.618q6.767.389,6.766,3.382c0,1.995-1.908,3.036-5.638,3.036a29.043,29.043,0,0,1-15.438-3.99l-5.2,9.367a34.432,34.432,0,0,0,19.776,5.724c12.49,0,19.948-5.377,19.948-14.138a15.143,15.143,0,0,0-.089-1.606,23.577,23.577,0,0,1-.534-2.518C1674.781,786.563,1668.736,783.277,1658.439,782.5Z" transform="translate(-1325.104 -735.935)" fill="url(#ah)"/><path d="M1689.746,765.538c-7.2,0-12.837,2.081-17.088,6.158s-6.417,9.541-6.417,16.221a27.649,27.649,0,0,0,.33,4.288,23.577,23.577,0,0,0,.534,2.518,20.137,20.137,0,0,0,5.554,9.413c4.251,4.076,9.888,6.158,17.088,6.158s12.924-2.081,17.173-6.158,6.418-9.541,6.418-16.219-2.168-12.143-6.418-16.221S1696.944,765.538,1689.746,765.538Zm0,33.219c-5.9,0-9.975-4.51-9.975-10.841s4.076-10.842,9.975-10.842c5.984,0,10.062,4.51,10.062,10.842S1695.729,798.757,1689.746,798.757Z" transform="translate(-1315.038 -735.89)" fill="url(#ai)"/><path d="M1729.489,765.538q-8.716,0-13.791,5.985l-.867-5.03h-11.8v42.846h13.618v-22.55c0-5.812,3.555-9.714,8.846-9.714,4.857,0,7.807,3.3,7.807,8.847v23.417h13.616v-24.2C1746.923,772.91,1740.159,765.538,1729.489,765.538Z" transform="translate(-1302.134 -735.89)" fill="url(#aj)"/><path d="M1765.582,769.93a16.617,16.617,0,0,0-13.1,5.638V753.016h-13.618V813.73h13.618V791.18c0-5.812,3.643-9.714,8.934-9.714,4.857,0,7.719,3.3,7.719,8.847V813.73h13.618v-24.2C1782.755,777.476,1776.076,769.93,1765.582,769.93Z" transform="translate(-1289.568 -740.282)" fill="url(#ak)"/><path d="M1813.58,771.7c-4.25-4.076-9.975-6.158-17.174-6.158s-12.837,2.081-17.086,6.158-6.418,9.541-6.418,16.221,2.168,12.143,6.418,16.219,9.887,6.158,17.086,6.158,12.924-2.081,17.174-6.158,6.417-9.541,6.417-16.219S1817.829,775.774,1813.58,771.7Zm-17.174,27.061c-5.9,0-9.975-4.51-9.975-10.841s4.078-10.842,9.975-10.842c5.985,0,10.062,4.51,10.062,10.842S1802.391,798.757,1796.406,798.757Z" transform="translate(-1277.632 -735.89)" fill="url(#al)"/><path d="M1827.968,782.5c-3.9-.433-5.9-1.387-5.9-3.036,0-2.082,2.169-3.122,6.592-3.122a23.165,23.165,0,0,1,11.536,2.776l5.291-9.108c-4.684-3.035-10.495-4.6-17.433-4.6-11.8,0-19.256,5.377-19.256,13.964,0,7.893,6.938,13.01,17.781,13.618q6.765.389,6.766,3.382c0,1.995-1.908,3.036-5.638,3.036a29.046,29.046,0,0,1-15.438-3.99l-5.2,9.367a34.436,34.436,0,0,0,19.776,5.724c12.49,0,19.948-5.377,19.948-14.138C1846.788,788.134,1840.544,783.45,1827.968,782.5Z" transform="translate(-1265.651 -735.935)" fill="url(#am)"/><rect width="13.617" height="42.847" transform="translate(96.97 30.602)" fill="url(#an)"/><path d="M1468.64,765.538q-8.716,0-13.791,5.985l-.868-5.03h-11.8v42.846H1455.8v-22.55c0-5.811,3.556-9.714,8.847-9.714,4.857,0,7.805,3.3,7.805,8.847v23.417h13.618v-24.2C1486.073,772.911,1479.308,765.538,1468.64,765.538Z" transform="translate(-1393.614 -735.89)" fill="url(#ao)"/><path d="M1436.148,788.708c0,5.811-3.469,9.8-8.674,9.8-4.769,0-7.631-3.3-7.631-8.848V766.245h-13.618v24.2c0,12.229,6.766,19.6,17.261,19.6a17.218,17.218,0,0,0,13.616-5.9l.867,4.944h11.8V766.245h-13.618Z" transform="translate(-1406.225 -735.642)" fill="url(#ap)"/><path d="M1485.162,752.118c-4.6,0-7.98,3.035-7.98,7.459a6.944,6.944,0,0,0,2.256,5.291,8.013,8.013,0,0,0,5.724,2.081,8.228,8.228,0,0,0,5.812-2.081,6.874,6.874,0,0,0,2.168-5.291C1493.142,755.153,1489.76,752.118,1485.162,752.118Z" transform="translate(-1381.34 -740.597)" fill="url(#aq)"/></g></g><path d="M1565.2,766.7s3.252-4.328,7.664-5.877Z" transform="translate(-498.178 6646.625)" fill="#fff"/></g></svg>