<svg xmlns="http://www.w3.org/2000/svg" width="261.783" height="234.153" viewBox="0 0 261.783 234.153"><g transform="translate(-1117.176 -4383.847)"><path d="M582.52,523.072a88.173,88.173,0,0,0,21.828,58.11c1.261,1.45,2.584,2.836,3.928,4.2h125c1.345-1.366,2.669-2.752,3.929-4.2a87.91,87.91,0,0,0,18.047-32.458s-.021,0,0-.021a88.271,88.271,0,0,0,3.781-25.631,85.717,85.717,0,0,0-.651-10.693,88.262,88.262,0,0,0-175.191-.231A89.256,89.256,0,0,0,582.52,523.072Z" transform="translate(577.411 4018.669)" fill="#3c3f59"/><ellipse cx="30.165" cy="30.165" rx="30.165" ry="30.165" transform="translate(1224.204 4489.991)" fill="#fff"/><ellipse cx="10.013" cy="10.084" rx="10.013" ry="10.084" transform="translate(1264.609 4540.359) rotate(-135)" fill="#3f3d56"/><path d="M595.522,463.554c-1.327-32.676,26.835-60.353,62.9-61.818s66.381,23.836,67.708,56.512-23.744,40.1-59.81,41.565S596.85,496.23,595.522,463.554Z" transform="translate(583.042 3982.172)" fill="#14c9dd"/><path d="M617.42,498.885a20.11,20.11,0,1,0,39.57,7.2l.007-.039c1.979-10.929-6.471-14.8-17.4-16.775S619.4,487.956,617.42,498.885Z" transform="translate(606.529 4077.643)" fill="#fff"/><ellipse cx="13.854" cy="44.131" rx="13.854" ry="44.131" transform="matrix(-0.759, -0.651, 0.651, -0.759, 1138.199, 4618)" fill="#3c3f59"/><ellipse cx="44.131" cy="13.854" rx="44.131" ry="13.854" transform="matrix(-0.651, -0.759, 0.759, -0.651, 1357.935, 4617.99)" fill="#3c3f59"/></g></svg>