<svg xmlns="http://www.w3.org/2000/svg" width="133.623" height="215.795" viewBox="0 0 133.623 215.795"><g transform="translate(-336.231 -4787.794)"><path d="M569.954,648.565c89.039,1.521,89.025,133.965,0,135.473C480.915,782.517,480.929,650.073,569.954,648.565Z" transform="translate(-166.873 4190.397)" fill="#3c3f59"/><rect width="20.578" height="36.869" transform="translate(372.214 4959.859)" fill="#3c3f59"/><rect width="20.578" height="36.869" transform="translate(413.37 4959.859)" fill="#3c3f59"/><path d="M542.986,745.058c22.236-.158,22.236,13.02,0,12.861C520.751,758.078,520.751,744.9,542.986,745.058Z" transform="translate(-153.625 4245.668)" fill="#3c3f59"/><path d="M569.154,744.513c22.236-.158,22.236,13.02,0,12.861C546.918,757.532,546.918,744.354,569.154,744.513Z" transform="translate(-138.636 4245.355)" fill="#3c3f59"/><path d="M555,666.01c30.276.136,30.273,46.169,0,46.3C524.719,712.175,524.722,666.142,555,666.01Z" transform="translate(-150.2 4200.39)" fill="#fff"/><path d="M549.461,675.823c10.012-.146,10.012,15.581,0,15.434C539.448,691.4,539.448,675.676,549.461,675.823Z" transform="translate(-144.665 4206.01)" fill="#3f3d56"/><path d="M504.275,671.944c-12.726-58.023,84.755-79.779,97.908-21.859,5.469,24.491-12.449,33.526-39.485,39.563S509.744,696.438,504.275,671.944Z" transform="translate(-166.901 4171.762)" fill="#f2d12a"/></g></svg>